{"glyphs":{"0":{"ha":608,"x_min":0,"x_max":0,"o":"m 304 -15 b 597 278 478 -15 597 64 l 597 725 b 304 1018 597 933 478 1018 b 11 725 124 1018 11 935 l 11 278 b 304 -15 11 64 121 -15 z m 304 233 b 289 288 289 233 289 238 l 289 725 b 304 779 289 775 289 779 b 319 725 319 779 319 775 l 319 288 b 304 233 319 238 319 233 z "},"1":{"ha":438,"x_min":0,"x_max":0,"o":"m 431 0 l 431 256 l 357 256 l 357 1000 l 114 1000 b 15 847 114 910 96 850 l 15 610 l 83 610 l 83 256 l 7 256 l 7 0 z "},"2":{"ha":601,"x_min":0,"x_max":0,"o":"m 592 0 l 592 258 l 307 258 b 406 350 310 283 326 303 b 592 647 490 401 592 472 l 592 788 b 304 1021 592 942 508 1021 b 11 764 96 1021 11 926 l 11 610 l 285 610 l 285 757 b 300 790 285 782 288 790 b 314 763 311 790 314 785 l 314 660 b 182 521 314 597 304 596 b 11 242 49 443 11 381 l 11 0 z "},"3":{"ha":607,"x_min":0,"x_max":0,"o":"m 306 -15 b 597 226 499 -15 597 78 l 597 363 b 492 528 597 468 553 511 b 597 690 560 543 597 586 l 597 804 b 308 1021 597 929 507 1021 b 7 782 124 1021 7 936 l 7 658 l 286 658 l 286 754 b 300 779 286 774 289 779 b 317 760 314 779 317 771 l 317 654 b 293 631 317 639 311 631 l 194 631 l 194 406 l 292 406 b 317 385 311 406 317 397 l 317 253 b 300 233 317 240 315 233 b 286 260 288 233 286 244 l 286 376 l 7 376 l 7 238 b 306 -15 7 67 97 -15 z "},"4":{"ha":638,"x_min":0,"x_max":0,"o":"m 631 153 l 631 388 l 564 388 l 564 1000 l 315 1000 l 7 388 l 7 153 l 310 153 l 310 0 l 564 0 l 564 153 z m 292 464 l 346 689 l 310 467 l 310 388 l 257 388 z "},"5":{"ha":599,"x_min":0,"x_max":0,"o":"m 300 -19 b 589 224 511 -19 589 79 l 589 475 b 422 699 589 643 535 699 b 260 565 338 699 289 660 b 281 728 265 610 274 671 l 399 728 b 575 915 536 728 575 785 l 575 1000 l 43 1000 l -3 494 l 275 443 l 281 463 b 301 488 286 482 293 488 b 315 461 313 488 315 481 l 315 242 b 301 224 315 229 313 224 b 288 242 289 224 288 228 l 288 407 l 8 407 l 8 224 b 300 -19 8 60 72 -19 z "},"6":{"ha":614,"x_min":0,"x_max":0,"o":"m 603 224 l 603 411 b 440 590 603 536 538 590 b 289 503 360 590 314 563 l 289 744 b 304 779 289 771 292 779 b 318 750 317 779 318 771 l 318 615 l 603 615 l 603 761 b 308 1021 599 931 517 1021 b 11 717 115 1021 11 931 l 11 286 b 310 -14 11 85 79 -14 b 603 224 510 -14 603 82 z m 306 233 b 289 290 290 233 289 242 l 289 396 b 310 417 293 410 301 417 b 324 397 317 417 324 413 l 324 268 b 306 233 324 242 319 233 z "},"7":{"ha":529,"x_min":0,"x_max":0,"o":"m 347 0 b 524 743 382 336 436 500 l 524 1000 l 6 1000 l 6 685 l 214 685 b 19 0 136 531 57 294 z "},"8":{"ha":606,"x_min":0,"x_max":0,"o":"m 296 -19 b 596 194 499 -19 596 63 l 596 371 b 521 521 596 449 571 494 b 594 664 571 546 594 592 l 594 811 b 297 1021 594 939 489 1021 b 11 808 107 1021 11 935 l 11 660 b 88 518 11 586 36 542 b 10 371 36 489 10 440 l 10 197 b 296 -19 10 53 96 -19 z m 288 617 l 288 782 b 301 804 288 794 292 804 b 318 782 315 804 318 797 l 318 615 b 303 590 318 601 315 592 b 288 617 289 590 288 600 z m 303 208 b 288 231 293 208 288 214 l 288 401 b 301 428 288 418 290 428 l 303 428 b 318 404 315 428 318 421 l 318 229 b 303 208 318 214 314 208 z "},"9":{"ha":614,"x_min":0,"x_max":0,"o":"m 304 572 b 290 592 297 572 290 576 l 290 739 b 308 774 290 765 294 774 b 325 717 324 774 325 765 l 325 593 b 304 572 321 579 313 572 z m 306 -14 b 603 290 499 -14 603 76 l 603 721 b 304 1021 603 922 535 1021 b 11 783 104 1021 11 925 l 11 579 b 189 389 11 438 72 389 b 325 493 263 389 306 413 l 325 263 b 310 228 325 236 322 228 b 296 257 297 228 296 236 l 296 365 l 11 365 l 11 246 b 306 -14 15 76 97 -14 z "}," ":{"ha":258,"x_min":0,"x_max":0,"o":""}," ":{"ha":258,"x_min":0,"x_max":0,"o":""},"A":{"ha":604,"x_min":0,"x_max":0,"o":"m 293 431 l 300 635 l 310 431 l 324 296 l 281 296 z m 353 0 l 618 0 l 471 1000 l 125 1000 l -14 0 l 251 0 l 258 76 l 346 76 z "},"B":{"ha":579,"x_min":0,"x_max":0,"o":"m 354 0 b 572 233 536 0 572 67 l 572 351 b 475 518 572 451 549 499 b 567 672 549 540 567 588 l 567 785 b 294 1000 567 950 492 1000 l 14 1000 l 14 0 z m 278 803 b 303 775 299 803 303 799 l 303 646 b 283 615 303 619 296 615 l 274 615 l 274 803 z m 278 406 b 306 375 300 406 306 404 l 306 250 b 279 214 306 221 301 214 l 274 214 l 274 406 z "},"C":{"ha":603,"x_min":0,"x_max":0,"o":"m 301 -15 b 593 278 483 -15 593 69 l 593 464 l 315 464 l 315 288 b 301 233 315 238 313 233 b 286 288 288 233 286 238 l 286 725 b 301 779 286 775 286 779 b 315 725 311 779 315 776 l 315 564 l 593 564 l 593 725 b 308 1018 593 932 507 1018 b 11 725 119 1018 11 929 l 11 278 b 301 -15 11 61 118 -15 z "},"D":{"ha":610,"x_min":0,"x_max":0,"o":"m 14 0 l 299 0 b 599 283 471 0 599 74 l 599 718 b 303 1000 599 926 478 1000 l 14 1000 z m 285 238 l 285 769 l 286 769 b 315 729 310 769 315 764 l 315 286 b 285 238 315 242 310 238 z "},"E":{"ha":493,"x_min":0,"x_max":0,"o":"m 482 268 l 283 268 l 283 375 l 482 375 l 482 638 l 283 638 l 283 739 l 482 739 l 482 1000 l 14 1000 l 14 0 l 482 0 z "},"F":{"ha":461,"x_min":0,"x_max":0,"o":"m 453 364 l 453 633 l 282 633 l 282 731 l 453 731 l 453 1000 l 14 1000 l 14 0 l 282 0 l 282 364 z "},"G":{"ha":615,"x_min":0,"x_max":0,"o":"m 367 135 l 378 0 l 601 0 l 601 596 l 310 596 l 310 329 l 350 329 l 350 290 b 319 224 350 236 342 224 b 289 290 296 224 289 236 l 289 733 b 304 779 289 778 292 779 b 319 736 317 779 319 778 l 319 646 l 601 646 l 601 732 b 308 1017 601 936 508 1017 b 11 728 126 1017 11 935 l 11 274 b 203 -15 11 65 61 -15 b 367 135 306 -15 351 36 z "},"H":{"ha":599,"x_min":0,"x_max":0,"o":"m 313 0 l 585 0 l 585 1000 l 313 1000 l 313 632 l 285 632 l 285 1000 l 14 1000 l 14 0 l 285 0 l 285 374 l 313 374 z "},"I":{"ha":313,"x_min":0,"x_max":0,"o":"m 15 0 l 297 0 l 297 1000 l 15 1000 z "},"J":{"ha":617,"x_min":0,"x_max":0,"o":"m 306 -15 b 604 297 515 -15 604 69 l 604 1000 l 321 1000 l 321 292 b 307 232 321 238 318 232 b 292 268 294 232 292 238 l 292 529 l 10 529 l 10 283 b 306 -15 10 50 101 -15 z "},"K":{"ha":644,"x_min":0,"x_max":0,"o":"m 300 278 l 361 0 l 663 0 l 514 574 l 657 1000 l 365 1000 l 304 797 l 261 610 l 286 815 l 286 1000 l 15 1000 l 15 0 l 286 0 l 286 368 l 289 392 z "},"L":{"ha":454,"x_min":0,"x_max":0,"o":"m 444 0 l 444 279 l 297 279 l 297 1000 l 14 1000 l 14 0 z "},"M":{"ha":911,"x_min":0,"x_max":0,"o":"m 294 175 l 249 793 l 339 0 l 575 0 l 665 779 l 621 176 l 621 0 l 897 0 l 897 1000 l 492 1000 l 465 657 l 458 260 l 451 657 l 424 1000 l 14 1000 l 14 0 l 294 0 z "},"N":{"ha":665,"x_min":0,"x_max":0,"o":"m 279 225 l 222 661 l 343 0 l 651 0 l 651 1000 l 393 1000 l 393 804 l 456 324 l 335 1000 l 14 1000 l 14 0 l 279 0 z "},"O":{"ha":608,"x_min":0,"x_max":0,"o":"m 304 -15 b 597 278 478 -15 597 64 l 597 725 b 304 1018 597 933 478 1018 b 11 725 124 1018 11 935 l 11 278 b 304 -15 11 64 121 -15 z m 304 233 b 289 288 289 233 289 238 l 289 725 b 304 779 289 775 289 779 b 319 725 319 779 319 775 l 319 288 b 304 233 319 238 319 233 z "},"P":{"ha":596,"x_min":0,"x_max":0,"o":"m 294 189 b 583 458 503 189 583 289 l 583 751 b 296 1000 583 914 506 1000 l 14 1000 l 14 0 l 281 0 l 281 189 z m 281 776 b 311 739 304 776 311 760 l 311 465 b 281 424 311 435 300 424 z "},"Q":{"ha":608,"x_min":0,"x_max":0,"o":"m 617 -114 l 521 58 b 597 278 569 106 597 178 l 597 725 b 304 1018 597 928 478 1018 b 11 725 124 1018 11 929 l 11 278 b 281 -15 11 79 111 -7 l 317 -112 z m 304 233 b 289 288 289 233 289 238 l 289 725 b 304 779 289 775 289 779 b 319 725 319 779 319 775 l 319 288 b 304 233 319 238 319 233 z "},"R":{"ha":586,"x_min":0,"x_max":0,"o":"m 286 775 b 314 742 308 775 314 768 l 314 597 b 283 563 314 574 308 564 l 283 775 z m 313 297 l 313 75 b 331 0 313 35 315 7 l 593 0 b 574 76 576 15 574 31 l 574 301 b 494 456 574 392 561 435 b 576 624 557 478 576 524 l 576 760 b 310 1000 576 957 494 1000 l 14 1000 l 14 0 l 283 0 l 283 340 b 313 297 304 339 313 332 z "},"S":{"ha":600,"x_min":0,"x_max":0,"o":"m 294 -18 b 592 239 501 -18 592 60 l 592 346 b 399 604 592 472 553 519 b 289 703 293 663 289 668 l 289 767 b 303 800 289 797 292 800 b 317 763 317 800 317 794 l 317 660 l 588 660 l 588 781 b 306 1019 588 943 483 1019 b 10 760 103 1019 10 928 l 10 700 b 193 435 10 560 44 519 b 315 308 313 369 315 364 l 315 251 b 300 218 315 221 310 218 b 286 247 290 218 286 222 l 286 372 l 6 372 l 6 239 b 294 -18 6 63 86 -18 z "},"T":{"ha":506,"x_min":0,"x_max":0,"o":"m 497 740 l 497 1000 l 8 1000 l 8 740 l 113 740 l 113 0 l 393 0 l 393 740 z "},"U":{"ha":604,"x_min":0,"x_max":0,"o":"m 301 -15 b 592 282 501 -15 592 79 l 592 1000 l 315 1000 l 315 299 b 301 247 315 249 314 247 b 288 299 289 247 288 250 l 288 1000 l 13 1000 l 13 282 b 301 -15 13 83 89 -15 z "},"V":{"ha":613,"x_min":0,"x_max":0,"o":"m 486 0 l 626 1000 l 349 1000 l 318 706 l 310 256 l 300 706 l 269 1000 l -14 1000 l 126 0 z "},"W":{"ha":939,"x_min":0,"x_max":0,"o":"m 463 371 l 471 693 l 478 371 l 508 0 l 861 0 l 951 1000 l 672 1000 l 651 638 l 656 219 l 638 639 l 607 1000 l 333 1000 l 301 639 l 286 219 l 288 638 l 274 1000 l -12 1000 l 72 0 l 429 0 z "},"X":{"ha":622,"x_min":0,"x_max":0,"o":"m 303 189 l 314 388 l 325 189 l 368 0 l 644 0 l 492 533 l 633 1000 l 363 1000 l 325 829 l 314 674 l 303 831 l 265 1000 l -10 1000 l 132 536 l -21 0 l 265 0 z "},"Y":{"ha":590,"x_min":0,"x_max":0,"o":"m 435 0 l 435 299 l 613 1000 l 339 1000 l 301 793 l 296 578 l 286 793 l 253 1000 l -24 1000 l 153 271 l 153 0 z "},"Z":{"ha":482,"x_min":0,"x_max":0,"o":"m 471 0 l 471 260 l 303 260 l 471 754 l 471 1000 l 11 1000 l 11 739 l 179 739 l 10 242 l 10 0 z "},"Á":{"ha":604,"x_min":0,"x_max":0,"o":"m 293 431 l 300 635 l 310 431 l 324 296 l 281 296 z m 353 0 l 618 0 l 471 1000 l 125 1000 l -14 0 l 251 0 l 258 76 l 346 76 z m 201 1017 l 386 1017 l 539 1225 l 299 1225 z "},"Ă":{"ha":604,"x_min":0,"x_max":0,"o":"m 293 431 l 300 635 l 310 431 l 324 296 l 281 296 z m 353 0 l 618 0 l 471 1000 l 125 1000 l -14 0 l 251 0 l 258 76 l 346 76 z m 303 1015 b 488 1218 432 1015 488 1068 l 325 1218 b 303 1171 325 1175 322 1171 b 279 1218 281 1171 279 1174 l 117 1218 b 303 1015 117 1071 169 1015 z "},"Â":{"ha":604,"x_min":0,"x_max":0,"o":"m 293 431 l 300 635 l 310 431 l 324 296 l 281 296 z m 353 0 l 618 0 l 471 1000 l 125 1000 l -14 0 l 251 0 l 258 76 l 346 76 z m 328 1017 l 499 1017 l 386 1238 l 225 1238 l 111 1017 l 276 1017 l 304 1083 z "},"Ä":{"ha":604,"x_min":0,"x_max":0,"o":"m 293 431 l 300 635 l 310 431 l 324 296 l 281 296 z m 353 0 l 618 0 l 471 1000 l 125 1000 l -14 0 l 251 0 l 258 76 l 346 76 z m 192 1015 b 292 1115 269 1015 292 1038 b 192 1226 292 1201 268 1226 b 96 1115 119 1226 96 1201 b 192 1015 96 1035 113 1015 z m 408 1015 b 508 1115 485 1015 508 1038 b 408 1226 508 1201 482 1226 b 313 1115 332 1226 313 1201 b 408 1015 313 1035 328 1015 z "},"À":{"ha":604,"x_min":0,"x_max":0,"o":"m 293 431 l 300 635 l 310 431 l 324 296 l 281 296 z m 353 0 l 618 0 l 471 1000 l 125 1000 l -14 0 l 251 0 l 258 76 l 346 76 z m 236 1017 l 403 1017 l 333 1225 l 93 1225 z "},"Ā":{"ha":604,"x_min":0,"x_max":0,"o":"m 293 431 l 300 635 l 310 431 l 324 296 l 281 296 z m 353 0 l 618 0 l 471 1000 l 125 1000 l -14 0 l 251 0 l 258 76 l 346 76 z m 161 1017 l 442 1017 l 442 1197 l 161 1197 z "},"Ʌ":{"ha":604,"x_min":0,"x_max":0,"o":"m 294 392 l 300 572 l 308 392 l 346 0 l 618 0 l 471 1000 l 125 1000 l -14 0 l 258 0 z "},"Ą":{"ha":604,"x_min":0,"x_max":0,"o":"m 293 431 l 300 635 l 310 431 l 324 296 l 281 296 z m 706 -97 l 510 -97 b 490 -142 511 -133 501 -142 b 479 -128 483 -142 479 -139 b 618 0 479 -118 479 -101 l 471 1000 l 125 1000 l -14 0 l 251 0 l 258 76 l 346 76 l 353 0 l 367 0 b 294 -142 308 -51 294 -94 b 482 -296 294 -243 356 -296 b 706 -97 614 -296 692 -233 z "},"Å":{"ha":604,"x_min":0,"x_max":0,"o":"m 293 431 l 300 635 l 310 431 l 324 296 l 281 296 z m 353 0 l 618 0 l 471 1000 l 125 1000 l -14 0 l 251 0 l 258 76 l 346 76 z m 301 1014 b 476 1164 414 1014 476 1071 b 301 1318 476 1261 406 1318 b 126 1161 204 1318 126 1268 b 301 1014 126 1065 194 1014 z m 303 1147 b 281 1165 285 1147 281 1154 b 303 1185 281 1175 285 1185 b 325 1165 321 1185 325 1175 b 303 1147 325 1156 321 1147 z "},"Ǻ":{"ha":604,"x_min":0,"x_max":0,"o":"m 211 1183 l 396 1183 l 549 1392 l 308 1392 z m 301 1000 b 279 1018 283 1000 279 1007 b 301 1038 279 1028 283 1038 b 324 1018 319 1038 324 1028 b 301 1000 324 1008 319 1000 z m 293 431 l 300 635 l 310 431 l 324 296 l 281 296 z m 258 76 l 346 76 l 353 0 l 618 0 l 472 988 b 475 1017 474 996 475 1007 b 300 1171 475 1114 404 1171 b 125 1014 203 1171 125 1121 b 125 1000 125 1008 125 1004 l -14 0 l 251 0 z "},"Ã":{"ha":604,"x_min":0,"x_max":0,"o":"m 293 431 l 300 635 l 310 431 l 324 296 l 281 296 z m 353 0 l 618 0 l 471 1000 l 125 1000 l -14 0 l 251 0 l 258 76 l 346 76 z m 82 1017 l 228 1017 b 254 1060 228 1043 232 1060 b 399 1013 293 1060 333 1013 b 525 1254 489 1013 525 1056 l 375 1254 b 349 1218 375 1232 369 1218 b 208 1260 315 1218 275 1260 b 82 1017 113 1260 81 1208 z "},"Æ":{"ha":808,"x_min":0,"x_max":0,"o":"m 325 407 l 339 672 l 347 397 l 363 281 l 307 281 z m 400 0 l 797 0 l 797 268 l 639 268 l 626 376 l 797 376 l 797 636 l 597 636 l 585 739 l 797 739 l 797 1000 l 157 1000 l -21 0 l 265 0 l 276 74 l 390 74 z "},"Ǽ":{"ha":808,"x_min":0,"x_max":0,"o":"m 325 407 l 339 672 l 347 397 l 363 281 l 307 281 z m 400 0 l 797 0 l 797 268 l 639 268 l 626 376 l 797 376 l 797 636 l 597 636 l 585 739 l 797 739 l 797 1000 l 157 1000 l -21 0 l 265 0 l 276 74 l 390 74 z m 267 1017 l 451 1017 l 604 1225 l 364 1225 z "},"Ć":{"ha":603,"x_min":0,"x_max":0,"o":"m 301 -15 b 593 278 483 -15 593 69 l 593 464 l 315 464 l 315 288 b 301 233 315 238 313 233 b 286 288 288 233 286 238 l 286 725 b 301 779 286 775 286 779 b 315 725 311 779 315 776 l 315 564 l 593 564 l 593 725 b 308 1018 593 932 507 1018 b 11 725 119 1018 11 929 l 11 278 b 301 -15 11 61 118 -15 z m 204 1035 l 389 1035 l 542 1243 l 301 1243 z "},"Č":{"ha":603,"x_min":0,"x_max":0,"o":"m 301 -15 b 593 278 483 -15 593 69 l 593 464 l 315 464 l 315 288 b 301 233 315 238 313 233 b 286 288 288 233 286 238 l 286 725 b 301 779 286 775 286 779 b 315 725 311 779 315 776 l 315 564 l 593 564 l 593 725 b 308 1018 593 932 507 1018 b 11 725 119 1018 11 929 l 11 278 b 301 -15 11 61 118 -15 z m 383 1035 l 500 1256 l 333 1256 l 306 1188 l 282 1256 l 108 1256 l 222 1035 z "},"Ç":{"ha":603,"x_min":0,"x_max":0,"o":"m 294 -315 b 503 -162 424 -315 503 -258 b 369 -33 503 -67 453 -40 l 369 -11 b 593 278 510 10 593 97 l 593 464 l 315 464 l 315 288 b 301 233 315 238 313 233 b 286 288 288 233 286 238 l 286 725 b 301 779 286 775 286 779 b 315 725 311 779 315 776 l 315 564 l 593 564 l 593 725 b 308 1018 593 932 507 1018 b 11 725 119 1018 11 929 l 11 278 b 213 -8 11 99 83 15 l 213 -135 l 303 -135 b 331 -156 319 -135 331 -140 b 300 -176 331 -167 322 -176 b 263 -149 281 -176 269 -168 l 72 -149 b 294 -315 89 -271 176 -315 z "},"Ĉ":{"ha":603,"x_min":0,"x_max":0,"o":"m 301 -15 b 593 278 483 -15 593 69 l 593 464 l 315 464 l 315 288 b 301 233 315 238 313 233 b 286 288 288 233 286 238 l 286 725 b 301 779 286 775 286 779 b 315 725 311 779 315 776 l 315 564 l 593 564 l 593 725 b 308 1018 593 932 507 1018 b 11 725 119 1018 11 929 l 11 278 b 301 -15 11 61 118 -15 z m 331 1031 l 501 1031 l 389 1251 l 228 1251 l 114 1031 l 279 1031 l 307 1097 z "},"Ċ":{"ha":603,"x_min":0,"x_max":0,"o":"m 301 -15 b 593 278 483 -15 593 69 l 593 464 l 315 464 l 315 288 b 301 233 315 238 313 233 b 286 288 288 233 286 238 l 286 725 b 301 779 286 775 286 779 b 315 725 311 779 315 776 l 315 564 l 593 564 l 593 725 b 308 1018 593 932 507 1018 b 11 725 119 1018 11 929 l 11 278 b 301 -15 11 61 118 -15 z m 301 1033 b 429 1157 400 1033 429 1050 b 301 1283 429 1267 399 1283 b 176 1157 204 1283 176 1267 b 301 1033 176 1047 199 1033 z "},"Ď":{"ha":610,"x_min":0,"x_max":0,"o":"m 14 0 l 299 0 b 599 283 471 0 599 74 l 599 718 b 303 1000 599 926 478 1000 l 14 1000 z m 285 238 l 285 769 l 286 769 b 315 729 310 769 315 764 l 315 286 b 285 238 315 242 310 238 z m 372 1017 l 489 1238 l 322 1238 l 294 1169 l 271 1238 l 97 1238 l 211 1017 z "},"Đ":{"ha":617,"x_min":0,"x_max":0,"o":"m 306 0 b 606 283 478 0 606 74 l 606 718 b 310 1000 606 926 485 1000 l 21 1000 l 21 631 l 0 631 l 0 394 l 21 394 l 21 0 z m 317 394 l 317 631 l 292 631 l 292 769 l 303 769 b 332 729 326 769 332 764 l 332 286 b 301 238 332 242 326 238 l 292 238 l 292 394 z "},"Ð":{"ha":617,"x_min":0,"x_max":0,"o":"m 306 0 b 606 283 478 0 606 74 l 606 718 b 310 1000 606 926 485 1000 l 21 1000 l 21 631 l 0 631 l 0 394 l 21 394 l 21 0 z m 317 394 l 317 631 l 292 631 l 292 769 l 303 769 b 332 729 326 769 332 764 l 332 286 b 301 238 332 242 326 238 l 292 238 l 292 394 z "},"É":{"ha":493,"x_min":0,"x_max":0,"o":"m 482 268 l 283 268 l 283 375 l 482 375 l 482 638 l 283 638 l 283 739 l 482 739 l 482 1000 l 14 1000 l 14 0 l 482 0 z m 156 1017 l 340 1017 l 493 1225 l 253 1225 z "},"Ĕ":{"ha":493,"x_min":0,"x_max":0,"o":"m 482 268 l 283 268 l 283 375 l 482 375 l 482 638 l 283 638 l 283 739 l 482 739 l 482 1000 l 14 1000 l 14 0 l 482 0 z m 257 1015 b 442 1218 386 1015 442 1068 l 279 1218 b 257 1171 279 1175 276 1171 b 233 1218 235 1171 233 1174 l 71 1218 b 257 1015 71 1071 124 1015 z "},"Ě":{"ha":493,"x_min":0,"x_max":0,"o":"m 482 268 l 283 268 l 283 375 l 482 375 l 482 638 l 283 638 l 283 739 l 482 739 l 482 1000 l 14 1000 l 14 0 l 482 0 z m 335 1017 l 451 1238 l 285 1238 l 257 1169 l 233 1238 l 60 1238 l 174 1017 z "},"Ê":{"ha":493,"x_min":0,"x_max":0,"o":"m 482 268 l 283 268 l 283 375 l 482 375 l 482 638 l 283 638 l 283 739 l 482 739 l 482 1000 l 14 1000 l 14 0 l 482 0 z m 282 1017 l 453 1017 l 340 1238 l 179 1238 l 65 1017 l 231 1017 l 258 1083 z "},"Ë":{"ha":493,"x_min":0,"x_max":0,"o":"m 482 268 l 283 268 l 283 375 l 482 375 l 482 638 l 283 638 l 283 739 l 482 739 l 482 1000 l 14 1000 l 14 0 l 482 0 z m 146 1015 b 246 1115 224 1015 246 1038 b 146 1226 246 1201 222 1226 b 50 1115 74 1226 50 1201 b 146 1015 50 1035 67 1015 z m 363 1015 b 463 1115 439 1015 463 1038 b 363 1226 463 1201 436 1226 b 267 1115 286 1226 267 1201 b 363 1015 267 1035 282 1015 z "},"Ė":{"ha":493,"x_min":0,"x_max":0,"o":"m 482 268 l 283 268 l 283 375 l 482 375 l 482 638 l 283 638 l 283 739 l 482 739 l 482 1000 l 14 1000 l 14 0 l 482 0 z m 253 1015 b 381 1139 351 1015 381 1032 b 253 1265 381 1249 350 1265 b 128 1139 156 1265 128 1249 b 253 1015 128 1029 150 1015 z "},"È":{"ha":493,"x_min":0,"x_max":0,"o":"m 482 268 l 283 268 l 283 375 l 482 375 l 482 638 l 283 638 l 283 739 l 482 739 l 482 1000 l 14 1000 l 14 0 l 482 0 z m 190 1017 l 357 1017 l 288 1225 l 47 1225 z "},"Ē":{"ha":493,"x_min":0,"x_max":0,"o":"m 482 268 l 283 268 l 283 375 l 482 375 l 482 638 l 283 638 l 283 739 l 482 739 l 482 1000 l 14 1000 l 14 0 l 482 0 z m 115 1017 l 396 1017 l 396 1197 l 115 1197 z "},"Ę":{"ha":493,"x_min":0,"x_max":0,"o":"m 569 -97 l 374 -97 b 354 -142 375 -133 365 -142 b 343 -128 347 -142 343 -139 b 482 0 343 -118 343 -101 l 482 268 l 283 268 l 283 375 l 482 375 l 482 638 l 283 638 l 283 739 l 482 739 l 482 1000 l 14 1000 l 14 0 l 231 0 b 158 -142 172 -51 158 -94 b 346 -296 158 -243 219 -296 b 569 -97 478 -296 556 -233 z "},"Ğ":{"ha":615,"x_min":0,"x_max":0,"o":"m 367 135 l 378 0 l 601 0 l 601 596 l 310 596 l 310 329 l 350 329 l 350 290 b 319 224 350 236 342 224 b 289 290 296 224 289 236 l 289 733 b 304 779 289 778 292 779 b 319 736 317 779 319 778 l 319 646 l 601 646 l 601 732 b 308 1017 601 936 508 1017 b 11 728 126 1017 11 935 l 11 274 b 203 -15 11 65 61 -15 b 367 135 306 -15 351 36 z m 308 1032 b 493 1235 438 1032 493 1085 l 331 1235 b 308 1188 331 1192 328 1188 b 285 1235 286 1188 285 1190 l 122 1235 b 308 1032 122 1088 175 1032 z "},"Ĝ":{"ha":615,"x_min":0,"x_max":0,"o":"m 367 135 l 378 0 l 601 0 l 601 596 l 310 596 l 310 329 l 350 329 l 350 290 b 319 224 350 236 342 224 b 289 290 296 224 289 236 l 289 733 b 304 779 289 778 292 779 b 319 736 317 779 319 778 l 319 646 l 601 646 l 601 732 b 308 1017 601 936 508 1017 b 11 728 126 1017 11 935 l 11 274 b 203 -15 11 65 61 -15 b 367 135 306 -15 351 36 z m 333 1031 l 504 1031 l 392 1251 l 231 1251 l 117 1031 l 282 1031 l 310 1097 z "},"Ģ":{"ha":615,"x_min":0,"x_max":0,"o":"m 367 135 l 378 0 l 601 0 l 601 596 l 310 596 l 310 329 l 350 329 l 350 290 b 319 224 350 236 342 224 b 289 290 296 224 289 236 l 289 733 b 304 779 289 778 292 779 b 319 736 317 779 319 778 l 319 646 l 601 646 l 601 732 b 308 1017 601 936 508 1017 b 11 728 126 1017 11 935 l 11 274 b 203 -15 11 65 61 -15 b 367 135 306 -15 351 36 z m 204 -303 b 485 -142 401 -303 485 -272 b 338 -17 485 -33 450 -17 b 192 -110 222 -17 192 -35 b 319 -199 192 -189 222 -199 b 367 -194 336 -199 351 -197 b 204 -232 354 -228 300 -232 z "},"Ġ":{"ha":615,"x_min":0,"x_max":0,"o":"m 367 135 l 378 0 l 601 0 l 601 596 l 310 596 l 310 329 l 350 329 l 350 290 b 319 224 350 236 342 224 b 289 290 296 224 289 236 l 289 733 b 304 779 289 778 292 779 b 319 736 317 779 319 778 l 319 646 l 601 646 l 601 732 b 308 1017 601 936 508 1017 b 11 728 126 1017 11 935 l 11 274 b 203 -15 11 65 61 -15 b 367 135 306 -15 351 36 z m 304 1032 b 432 1156 403 1032 432 1049 b 304 1282 432 1265 401 1282 b 179 1156 207 1282 179 1265 b 304 1032 179 1046 201 1032 z "},"Ħ":{"ha":613,"x_min":0,"x_max":0,"o":"m 322 590 l 289 590 l 289 707 l 322 707 z m 322 0 l 592 0 l 592 707 l 614 707 l 614 897 l 592 897 l 592 1000 l 322 1000 l 322 897 l 289 897 l 289 1000 l 21 1000 l 21 897 l -1 897 l -1 707 l 21 707 l 21 0 l 289 0 l 289 374 l 322 374 z "},"Ĥ":{"ha":599,"x_min":0,"x_max":0,"o":"m 313 0 l 585 0 l 585 1000 l 313 1000 l 313 632 l 285 632 l 285 1000 l 14 1000 l 14 0 l 285 0 l 285 374 l 313 374 z m 324 1017 l 494 1017 l 382 1238 l 221 1238 l 107 1017 l 272 1017 l 300 1083 z "},"Í":{"ha":313,"x_min":0,"x_max":0,"o":"m 15 0 l 297 0 l 297 1000 l 15 1000 z m 56 1017 l 240 1017 l 393 1225 l 153 1225 z "},"Ĭ":{"ha":313,"x_min":0,"x_max":0,"o":"m 15 0 l 297 0 l 297 1000 l 15 1000 z m 157 1015 b 342 1218 286 1015 342 1068 l 179 1218 b 157 1171 179 1175 176 1171 b 133 1218 135 1171 133 1174 l -29 1218 b 157 1015 -29 1071 24 1015 z "},"Î":{"ha":313,"x_min":0,"x_max":0,"o":"m 15 0 l 297 0 l 297 1000 l 15 1000 z m 182 1017 l 353 1017 l 240 1238 l 79 1238 l -35 1017 l 131 1017 l 158 1083 z "},"Ï":{"ha":313,"x_min":0,"x_max":0,"o":"m 15 0 l 297 0 l 297 1000 l 15 1000 z m 46 1015 b 146 1115 124 1015 146 1038 b 46 1226 146 1201 122 1226 b -50 1115 -26 1226 -50 1201 b 46 1015 -50 1035 -33 1015 z m 263 1015 b 363 1115 339 1015 363 1038 b 263 1226 363 1201 336 1226 b 167 1115 186 1226 167 1201 b 263 1015 167 1035 182 1015 z "},"İ":{"ha":313,"x_min":0,"x_max":0,"o":"m 15 0 l 297 0 l 297 1000 l 15 1000 z m 153 1015 b 281 1139 251 1015 281 1032 b 153 1265 281 1249 250 1265 b 28 1139 56 1265 28 1249 b 153 1015 28 1029 50 1015 z "},"Ì":{"ha":313,"x_min":0,"x_max":0,"o":"m 15 0 l 297 0 l 297 1000 l 15 1000 z m 90 1017 l 257 1017 l 188 1225 l -53 1225 z "},"Ī":{"ha":313,"x_min":0,"x_max":0,"o":"m 15 0 l 297 0 l 297 1000 l 15 1000 z m 15 1017 l 296 1017 l 296 1197 l 15 1197 z "},"Į":{"ha":313,"x_min":0,"x_max":0,"o":"m 385 -97 l 189 -97 b 169 -142 190 -133 181 -142 b 158 -128 163 -142 158 -139 b 297 0 158 -118 158 -101 l 297 1000 l 15 1000 l 15 0 l 46 0 b -26 -142 -12 -51 -26 -94 b 161 -296 -26 -243 35 -296 b 385 -97 293 -296 371 -233 z "},"Ĩ":{"ha":313,"x_min":0,"x_max":0,"o":"m 15 0 l 297 0 l 297 1000 l 15 1000 z m -64 1017 l 82 1017 b 108 1060 82 1043 86 1060 b 253 1013 147 1060 188 1013 b 379 1254 343 1013 379 1056 l 229 1254 b 203 1218 229 1232 224 1218 b 63 1260 169 1218 129 1260 b -64 1017 -33 1260 -65 1208 z "},"Ĵ":{"ha":617,"x_min":0,"x_max":0,"o":"m 306 -15 b 604 297 515 -15 604 69 l 604 1000 l 321 1000 l 321 292 b 307 232 321 238 318 232 b 292 268 294 232 292 238 l 292 529 l 10 529 l 10 283 b 306 -15 10 50 101 -15 z m 488 1017 l 658 1017 l 546 1238 l 385 1238 l 271 1017 l 436 1017 l 464 1083 z "},"Ķ":{"ha":644,"x_min":0,"x_max":0,"o":"m 300 278 l 361 0 l 663 0 l 514 574 l 657 1000 l 365 1000 l 304 797 l 261 610 l 286 815 l 286 1000 l 15 1000 l 15 0 l 286 0 l 286 368 l 289 392 z m 193 -299 b 474 -137 390 -299 474 -268 b 326 -12 474 -29 439 -12 b 181 -106 211 -12 181 -31 b 308 -194 181 -185 211 -194 b 356 -190 325 -194 340 -193 b 193 -228 343 -224 289 -228 z "},"Ĺ":{"ha":454,"x_min":0,"x_max":0,"o":"m 444 0 l 444 279 l 297 279 l 297 1000 l 14 1000 l 14 0 z m 54 1017 l 239 1017 l 392 1225 l 151 1225 z "},"Ľ":{"ha":454,"x_min":0,"x_max":0,"o":"m 444 0 l 444 279 l 297 279 l 297 1000 l 14 1000 l 14 0 z m 299 769 l 369 769 l 468 1000 l 340 1000 z "},"Ļ":{"ha":454,"x_min":0,"x_max":0,"o":"m 444 0 l 444 279 l 297 279 l 297 1000 l 14 1000 l 14 0 z m 110 -301 b 390 -140 307 -301 390 -271 b 243 -15 390 -32 356 -15 b 97 -108 128 -15 97 -33 b 225 -197 97 -187 128 -197 b 272 -193 242 -197 257 -196 b 110 -231 260 -226 206 -231 z "},"Ŀ":{"ha":600,"x_min":0,"x_max":0,"o":"m 592 0 l 592 279 l 297 279 l 297 1000 l 14 1000 l 14 0 z m 450 406 b 590 542 558 406 590 424 b 450 679 590 661 557 679 b 313 542 343 679 313 661 b 450 406 313 421 338 406 z "},"Ł":{"ha":458,"x_min":0,"x_max":0,"o":"m 449 0 l 449 279 l 301 279 l 301 444 l 357 460 l 357 660 l 301 644 l 301 1000 l 18 1000 l 18 568 l 0 564 l 0 365 l 18 369 l 18 0 z "},"Ń":{"ha":665,"x_min":0,"x_max":0,"o":"m 279 225 l 222 661 l 343 0 l 651 0 l 651 1000 l 393 1000 l 393 804 l 456 324 l 335 1000 l 14 1000 l 14 0 l 279 0 z m 224 1017 l 408 1017 l 561 1225 l 321 1225 z "},"Ň":{"ha":665,"x_min":0,"x_max":0,"o":"m 279 225 l 222 661 l 343 0 l 651 0 l 651 1000 l 393 1000 l 393 804 l 456 324 l 335 1000 l 14 1000 l 14 0 l 279 0 z m 403 1017 l 519 1238 l 353 1238 l 325 1169 l 301 1238 l 128 1238 l 242 1017 z "},"Ņ":{"ha":665,"x_min":0,"x_max":0,"o":"m 279 225 l 222 661 l 343 0 l 651 0 l 651 1000 l 393 1000 l 393 804 l 456 324 l 335 1000 l 14 1000 l 14 0 l 279 0 z m 208 -300 b 489 -139 406 -300 489 -269 b 342 -14 489 -31 454 -14 b 196 -107 226 -14 196 -32 b 324 -196 196 -186 226 -196 b 371 -192 340 -196 356 -194 b 208 -229 358 -225 304 -229 z "},"Ñ":{"ha":665,"x_min":0,"x_max":0,"o":"m 279 225 l 222 661 l 343 0 l 651 0 l 651 1000 l 393 1000 l 393 804 l 456 324 l 335 1000 l 14 1000 l 14 0 l 279 0 z m 224 1017 l 408 1017 l 561 1225 l 321 1225 z "},"Ŋ":{"ha":657,"x_min":0,"x_max":0,"o":"m 410 -278 b 643 -49 579 -278 643 -219 l 643 1000 l 396 1000 l 396 771 l 447 368 l 314 1000 l 14 1000 l 14 0 l 265 0 l 265 272 l 226 614 l 368 -22 b 347 -26 364 -25 357 -26 l 260 -26 l 260 -278 z "},"Ó":{"ha":608,"x_min":0,"x_max":0,"o":"m 304 -15 b 597 278 478 -15 597 64 l 597 725 b 304 1018 597 933 478 1018 b 11 725 124 1018 11 935 l 11 278 b 304 -15 11 64 121 -15 z m 304 233 b 289 288 289 233 289 238 l 289 725 b 304 779 289 775 289 779 b 319 725 319 779 319 775 l 319 288 b 304 233 319 238 319 233 z m 88 1026 l 233 1026 b 260 1069 233 1053 238 1069 b 404 1022 299 1069 339 1022 b 531 1264 494 1022 531 1065 l 381 1264 b 354 1228 381 1242 375 1228 b 214 1269 321 1228 281 1269 b 88 1026 118 1269 86 1218 z "},"Ŏ":{"ha":608,"x_min":0,"x_max":0,"o":"m 304 -15 b 597 278 478 -15 597 64 l 597 725 b 304 1018 597 933 478 1018 b 11 725 124 1018 11 935 l 11 278 b 304 -15 11 64 121 -15 z m 304 233 b 289 288 289 233 289 238 l 289 725 b 304 779 289 775 289 779 b 319 725 319 779 319 775 l 319 288 b 304 233 319 238 319 233 z m 303 1033 b 488 1236 432 1033 488 1086 l 325 1236 b 303 1189 325 1193 322 1189 b 279 1236 281 1189 279 1192 l 117 1236 b 303 1033 117 1089 169 1033 z "},"Ô":{"ha":608,"x_min":0,"x_max":0,"o":"m 304 -15 b 597 278 478 -15 597 64 l 597 725 b 304 1018 597 933 478 1018 b 11 725 124 1018 11 935 l 11 278 b 304 -15 11 64 121 -15 z m 304 233 b 289 288 289 233 289 238 l 289 725 b 304 779 289 775 289 779 b 319 725 319 779 319 775 l 319 288 b 304 233 319 238 319 233 z m 328 1033 l 499 1033 l 386 1254 l 225 1254 l 111 1033 l 276 1033 l 304 1100 z "},"Ö":{"ha":608,"x_min":0,"x_max":0,"o":"m 304 -15 b 597 278 478 -15 597 64 l 597 725 b 304 1018 597 933 478 1018 b 11 725 124 1018 11 935 l 11 278 b 304 -15 11 64 121 -15 z m 304 233 b 289 288 289 233 289 238 l 289 725 b 304 779 289 775 289 779 b 319 725 319 779 319 775 l 319 288 b 304 233 319 238 319 233 z m 192 1024 b 292 1124 269 1024 292 1046 b 192 1235 292 1210 268 1235 b 96 1124 119 1235 96 1210 b 192 1024 96 1043 113 1024 z m 408 1024 b 508 1124 485 1024 508 1046 b 408 1235 508 1210 482 1235 b 313 1124 332 1235 313 1210 b 408 1024 313 1043 328 1024 z "},"Ò":{"ha":608,"x_min":0,"x_max":0,"o":"m 304 -15 b 597 278 478 -15 597 64 l 597 725 b 304 1018 597 933 478 1018 b 11 725 124 1018 11 935 l 11 278 b 304 -15 11 64 121 -15 z m 304 233 b 289 288 289 233 289 238 l 289 725 b 304 779 289 775 289 779 b 319 725 319 779 319 775 l 319 288 b 304 233 319 238 319 233 z m 236 1035 l 403 1035 l 333 1243 l 93 1243 z "},"Ő":{"ha":608,"x_min":0,"x_max":0,"o":"m 304 -15 b 597 278 478 -15 597 64 l 597 725 b 304 1018 597 933 478 1018 b 11 725 124 1018 11 935 l 11 278 b 304 -15 11 64 121 -15 z m 304 233 b 289 288 289 233 289 238 l 289 725 b 304 779 289 775 289 779 b 319 725 319 779 319 775 l 319 288 b 304 233 319 238 319 233 z m 319 1032 l 450 1032 l 556 1240 l 368 1240 z m 144 1032 l 271 1032 l 347 1240 l 168 1240 z "},"Ō":{"ha":608,"x_min":0,"x_max":0,"o":"m 304 -15 b 597 278 478 -15 597 64 l 597 725 b 304 1018 597 933 478 1018 b 11 725 124 1018 11 935 l 11 278 b 304 -15 11 64 121 -15 z m 304 233 b 289 288 289 233 289 238 l 289 725 b 304 779 289 775 289 779 b 319 725 319 779 319 775 l 319 288 b 304 233 319 238 319 233 z m 161 1035 l 442 1035 l 442 1215 l 161 1215 z "},"Ø":{"ha":608,"x_min":0,"x_max":0,"o":"m 339 -156 l 371 -11 b 597 278 507 8 597 93 l 597 725 b 531 935 597 819 574 888 l 579 1126 l 304 1126 l 281 1018 b 11 725 114 1010 11 925 l 11 278 b 108 35 11 158 46 81 l 60 -156 z m 304 233 b 289 288 289 233 289 238 l 289 725 b 304 779 289 775 289 779 b 319 725 319 779 319 775 l 319 288 b 304 233 319 238 319 233 z "},"Ǿ":{"ha":608,"x_min":0,"x_max":0,"o":"m 339 -156 l 371 -11 b 597 278 507 8 597 93 l 597 725 b 531 935 597 819 574 888 l 579 1126 l 304 1126 l 281 1018 b 11 725 114 1010 11 925 l 11 278 b 108 35 11 158 46 81 l 60 -156 z m 304 233 b 289 288 289 233 289 238 l 289 725 b 304 779 289 775 289 779 b 319 725 319 779 319 775 l 319 288 b 304 233 319 238 319 233 z m 232 1139 l 417 1139 l 569 1347 l 329 1347 z "},"Õ":{"ha":608,"x_min":0,"x_max":0,"o":"m 304 -15 b 597 278 478 -15 597 64 l 597 725 b 304 1018 597 933 478 1018 b 11 725 124 1018 11 935 l 11 278 b 304 -15 11 64 121 -15 z m 304 233 b 289 288 289 233 289 238 l 289 725 b 304 779 289 775 289 779 b 319 725 319 779 319 775 l 319 288 b 304 233 319 238 319 233 z m 86 1026 l 232 1026 b 258 1069 232 1053 236 1069 b 403 1022 297 1069 338 1022 b 529 1264 493 1022 529 1065 l 379 1264 b 353 1228 379 1242 374 1228 b 213 1269 319 1228 279 1269 b 86 1026 117 1269 85 1218 z "},"Œ":{"ha":800,"x_min":0,"x_max":0,"o":"m 310 233 b 294 288 294 233 294 238 l 294 725 b 310 779 294 775 294 779 b 325 725 325 779 325 775 l 325 288 b 310 233 325 238 325 233 z m 321 0 l 789 0 l 789 268 l 590 268 l 590 375 l 789 375 l 789 638 l 590 638 l 590 739 l 789 739 l 789 1000 l 321 1000 l 321 940 b 193 1018 301 1000 264 1018 b 11 721 60 1018 11 929 l 11 286 b 197 -14 11 78 49 -14 b 321 64 265 -14 301 13 z "},"Ŕ":{"ha":586,"x_min":0,"x_max":0,"o":"m 286 775 b 314 742 308 775 314 768 l 314 597 b 283 563 314 574 308 564 l 283 775 z m 313 297 l 313 75 b 331 0 313 35 315 7 l 593 0 b 574 76 576 15 574 31 l 574 301 b 494 456 574 392 561 435 b 576 624 557 478 576 524 l 576 760 b 310 1000 576 957 494 1000 l 14 1000 l 14 0 l 283 0 l 283 340 b 313 297 304 339 313 332 z m 206 1017 l 390 1017 l 543 1225 l 303 1225 z "},"Ř":{"ha":586,"x_min":0,"x_max":0,"o":"m 286 775 b 314 742 308 775 314 768 l 314 597 b 283 563 314 574 308 564 l 283 775 z m 313 297 l 313 75 b 331 0 313 35 315 7 l 593 0 b 574 76 576 15 574 31 l 574 301 b 494 456 574 392 561 435 b 576 624 557 478 576 524 l 576 760 b 310 1000 576 957 494 1000 l 14 1000 l 14 0 l 283 0 l 283 340 b 313 297 304 339 313 332 z m 385 1017 l 501 1238 l 335 1238 l 307 1169 l 283 1238 l 110 1238 l 224 1017 z "},"Ŗ":{"ha":586,"x_min":0,"x_max":0,"o":"m 286 775 b 314 742 308 775 314 768 l 314 597 b 283 563 314 574 308 564 l 283 775 z m 313 297 l 313 75 b 331 0 313 35 315 7 l 593 0 b 574 76 576 15 574 31 l 574 301 b 494 456 574 392 561 435 b 576 624 557 478 576 524 l 576 760 b 310 1000 576 957 494 1000 l 14 1000 l 14 0 l 283 0 l 283 340 b 313 297 304 339 313 332 z m 176 -301 b 457 -140 374 -301 457 -271 b 310 -15 457 -32 422 -15 b 164 -108 194 -15 164 -33 b 292 -197 164 -187 194 -197 b 339 -193 308 -197 324 -196 b 176 -231 326 -226 272 -231 z "},"Ś":{"ha":600,"x_min":0,"x_max":0,"o":"m 294 -18 b 592 239 501 -18 592 60 l 592 346 b 399 604 592 472 553 519 b 289 703 293 663 289 668 l 289 767 b 303 800 289 797 292 800 b 317 763 317 800 317 794 l 317 660 l 588 660 l 588 781 b 306 1019 588 943 483 1019 b 10 760 103 1019 10 928 l 10 700 b 193 435 10 560 44 519 b 315 308 313 369 315 364 l 315 251 b 300 218 315 221 310 218 b 286 247 290 218 286 222 l 286 372 l 6 372 l 6 239 b 294 -18 6 63 86 -18 z m 204 1036 l 389 1036 l 542 1244 l 301 1244 z "},"Š":{"ha":600,"x_min":0,"x_max":0,"o":"m 294 -18 b 592 239 501 -18 592 60 l 592 346 b 399 604 592 472 553 519 b 289 703 293 663 289 668 l 289 767 b 303 800 289 797 292 800 b 317 763 317 800 317 794 l 317 660 l 588 660 l 588 781 b 306 1019 588 943 483 1019 b 10 760 103 1019 10 928 l 10 700 b 193 435 10 560 44 519 b 315 308 313 369 315 364 l 315 251 b 300 218 315 221 310 218 b 286 247 290 218 286 222 l 286 372 l 6 372 l 6 239 b 294 -18 6 63 86 -18 z m 383 1036 l 500 1257 l 333 1257 l 306 1189 l 282 1257 l 108 1257 l 222 1036 z "},"Ş":{"ha":600,"x_min":0,"x_max":0,"o":"m 293 -315 b 501 -162 422 -315 501 -258 b 368 -33 501 -67 451 -40 l 368 -14 b 592 239 524 3 592 82 l 592 346 b 399 604 592 472 553 519 b 289 703 293 663 289 668 l 289 767 b 303 800 289 797 292 800 b 317 763 317 800 317 794 l 317 660 l 588 660 l 588 781 b 306 1019 588 943 483 1019 b 10 760 103 1019 10 928 l 10 700 b 193 435 10 560 44 519 b 315 308 313 369 315 364 l 315 251 b 300 218 315 221 310 218 b 286 247 290 218 286 222 l 286 372 l 6 372 l 6 239 b 211 -12 6 89 64 7 l 211 -135 l 301 -135 b 329 -156 318 -135 329 -140 b 299 -176 329 -167 321 -176 b 261 -149 279 -176 268 -168 l 71 -149 b 293 -315 88 -271 175 -315 z "},"Ŝ":{"ha":600,"x_min":0,"x_max":0,"o":"m 294 -18 b 592 239 501 -18 592 60 l 592 346 b 399 604 592 472 553 519 b 289 703 293 663 289 668 l 289 767 b 303 800 289 797 292 800 b 317 763 317 800 317 794 l 317 660 l 588 660 l 588 781 b 306 1019 588 943 483 1019 b 10 760 103 1019 10 928 l 10 700 b 193 435 10 560 44 519 b 315 308 313 369 315 364 l 315 251 b 300 218 315 221 310 218 b 286 247 290 218 286 222 l 286 372 l 6 372 l 6 239 b 294 -18 6 63 86 -18 z m 331 1033 l 501 1033 l 389 1254 l 228 1254 l 114 1033 l 279 1033 l 307 1100 z "},"Ș":{"ha":600,"x_min":0,"x_max":0,"o":"m 294 -18 b 592 239 501 -18 592 60 l 592 346 b 399 604 592 472 553 519 b 289 703 293 663 289 668 l 289 767 b 303 800 289 797 292 800 b 317 763 317 800 317 794 l 317 660 l 588 660 l 588 781 b 306 1019 588 943 483 1019 b 10 760 103 1019 10 928 l 10 700 b 193 435 10 560 44 519 b 315 308 313 369 315 364 l 315 251 b 300 218 315 221 310 218 b 286 247 290 218 286 222 l 286 372 l 6 372 l 6 239 b 294 -18 6 63 86 -18 z m 167 -318 b 447 -157 364 -318 447 -287 b 300 -32 447 -49 413 -32 b 154 -125 185 -32 154 -50 b 282 -214 154 -204 185 -214 b 329 -210 299 -214 314 -212 b 167 -247 317 -243 263 -247 z "},"Ŧ":{"ha":506,"x_min":0,"x_max":0,"o":"m 464 335 l 464 585 l 393 585 l 393 740 l 497 740 l 497 1000 l 8 1000 l 8 740 l 113 740 l 113 585 l 39 585 l 39 335 l 113 335 l 113 0 l 393 0 l 393 335 z "},"Ť":{"ha":506,"x_min":0,"x_max":0,"o":"m 497 740 l 497 1000 l 8 1000 l 8 740 l 113 740 l 113 0 l 393 0 l 393 740 z m 339 1017 l 456 1238 l 289 1238 l 261 1169 l 238 1238 l 64 1238 l 178 1017 z "},"Ţ":{"ha":506,"x_min":0,"x_max":0,"o":"m 497 740 l 497 1000 l 8 1000 l 8 740 l 113 740 l 113 0 l 393 0 l 393 740 z m 118 -301 b 399 -140 315 -301 399 -271 b 251 -15 399 -32 364 -15 b 106 -108 136 -15 106 -33 b 233 -197 106 -187 136 -197 b 281 -193 250 -197 265 -196 b 118 -231 268 -226 214 -231 z "},"Ú":{"ha":604,"x_min":0,"x_max":0,"o":"m 301 -15 b 592 282 501 -15 592 79 l 592 1000 l 315 1000 l 315 299 b 301 247 315 249 314 247 b 288 299 289 247 288 250 l 288 1000 l 13 1000 l 13 282 b 301 -15 13 83 89 -15 z m 201 1017 l 386 1017 l 539 1225 l 299 1225 z "},"Ŭ":{"ha":604,"x_min":0,"x_max":0,"o":"m 301 -15 b 592 282 501 -15 592 79 l 592 1000 l 315 1000 l 315 299 b 301 247 315 249 314 247 b 288 299 289 247 288 250 l 288 1000 l 13 1000 l 13 282 b 301 -15 13 83 89 -15 z m 303 1015 b 488 1218 432 1015 488 1068 l 325 1218 b 303 1171 325 1175 322 1171 b 279 1218 281 1171 279 1174 l 117 1218 b 303 1015 117 1071 169 1015 z "},"Û":{"ha":604,"x_min":0,"x_max":0,"o":"m 301 -15 b 592 282 501 -15 592 79 l 592 1000 l 315 1000 l 315 299 b 301 247 315 249 314 247 b 288 299 289 247 288 250 l 288 1000 l 13 1000 l 13 282 b 301 -15 13 83 89 -15 z m 328 1017 l 499 1017 l 386 1238 l 225 1238 l 111 1017 l 276 1017 l 304 1083 z "},"Ü":{"ha":604,"x_min":0,"x_max":0,"o":"m 301 -15 b 592 282 501 -15 592 79 l 592 1000 l 315 1000 l 315 299 b 301 247 315 249 314 247 b 288 299 289 247 288 250 l 288 1000 l 13 1000 l 13 282 b 301 -15 13 83 89 -15 z m 192 1015 b 292 1115 269 1015 292 1038 b 192 1226 292 1201 268 1226 b 96 1115 119 1226 96 1201 b 192 1015 96 1035 113 1015 z m 408 1015 b 508 1115 485 1015 508 1038 b 408 1226 508 1201 482 1226 b 313 1115 332 1226 313 1201 b 408 1015 313 1035 328 1015 z "},"Ù":{"ha":604,"x_min":0,"x_max":0,"o":"m 301 -15 b 592 282 501 -15 592 79 l 592 1000 l 315 1000 l 315 299 b 301 247 315 249 314 247 b 288 299 289 247 288 250 l 288 1000 l 13 1000 l 13 282 b 301 -15 13 83 89 -15 z m 236 1017 l 403 1017 l 333 1225 l 93 1225 z "},"Ű":{"ha":604,"x_min":0,"x_max":0,"o":"m 301 -15 b 592 282 501 -15 592 79 l 592 1000 l 315 1000 l 315 299 b 301 247 315 249 314 247 b 288 299 289 247 288 250 l 288 1000 l 13 1000 l 13 282 b 301 -15 13 83 89 -15 z m 319 1017 l 450 1017 l 556 1225 l 368 1225 z m 144 1017 l 271 1017 l 347 1225 l 168 1225 z "},"Ū":{"ha":604,"x_min":0,"x_max":0,"o":"m 301 -15 b 592 282 501 -15 592 79 l 592 1000 l 315 1000 l 315 299 b 301 247 315 249 314 247 b 288 299 289 247 288 250 l 288 1000 l 13 1000 l 13 282 b 301 -15 13 83 89 -15 z m 161 1017 l 442 1017 l 442 1197 l 161 1197 z "},"Ų":{"ha":604,"x_min":0,"x_max":0,"o":"m 333 -274 b 557 -75 465 -274 543 -211 l 361 -75 b 342 -119 363 -111 353 -119 b 331 -106 335 -119 331 -117 b 456 13 331 -96 331 -81 b 592 282 549 53 592 142 l 592 1000 l 315 1000 l 315 299 b 301 247 315 249 314 247 b 288 299 289 247 288 250 l 288 1000 l 13 1000 l 13 282 b 192 -4 13 122 63 28 b 146 -119 156 -44 146 -81 b 333 -274 146 -221 207 -274 z "},"Ů":{"ha":604,"x_min":0,"x_max":0,"o":"m 301 -15 b 592 282 501 -15 592 79 l 592 1000 l 315 1000 l 315 299 b 301 247 315 249 314 247 b 288 299 289 247 288 250 l 288 1000 l 13 1000 l 13 282 b 301 -15 13 83 89 -15 z m 303 1015 b 478 1165 415 1015 478 1072 b 303 1319 478 1263 407 1319 b 128 1163 206 1319 128 1269 b 303 1015 128 1067 196 1015 z m 304 1149 b 282 1167 286 1149 282 1156 b 304 1186 282 1176 286 1186 b 326 1167 322 1186 326 1176 b 304 1149 326 1157 322 1149 z "},"Ũ":{"ha":604,"x_min":0,"x_max":0,"o":"m 301 -15 b 592 282 501 -15 592 79 l 592 1000 l 315 1000 l 315 299 b 301 247 315 249 314 247 b 288 299 289 247 288 250 l 288 1000 l 13 1000 l 13 282 b 301 -15 13 83 89 -15 z m 82 1017 l 228 1017 b 254 1060 228 1043 232 1060 b 399 1013 293 1060 333 1013 b 525 1254 489 1013 525 1056 l 375 1254 b 349 1218 375 1232 369 1218 b 208 1260 315 1218 275 1260 b 82 1017 113 1260 81 1208 z "},"Ẃ":{"ha":939,"x_min":0,"x_max":0,"o":"m 463 371 l 471 693 l 478 371 l 508 0 l 861 0 l 951 1000 l 672 1000 l 651 638 l 656 219 l 638 639 l 607 1000 l 333 1000 l 301 639 l 286 219 l 288 638 l 274 1000 l -12 1000 l 72 0 l 429 0 z m 367 1017 l 551 1017 l 704 1225 l 464 1225 z "},"Ŵ":{"ha":939,"x_min":0,"x_max":0,"o":"m 463 371 l 471 693 l 478 371 l 508 0 l 861 0 l 951 1000 l 672 1000 l 651 638 l 656 219 l 638 639 l 607 1000 l 333 1000 l 301 639 l 286 219 l 288 638 l 274 1000 l -12 1000 l 72 0 l 429 0 z m 493 1017 l 664 1017 l 551 1238 l 390 1238 l 276 1017 l 442 1017 l 469 1083 z "},"Ẅ":{"ha":939,"x_min":0,"x_max":0,"o":"m 463 371 l 471 693 l 478 371 l 508 0 l 861 0 l 951 1000 l 672 1000 l 651 638 l 656 219 l 638 639 l 607 1000 l 333 1000 l 301 639 l 286 219 l 288 638 l 274 1000 l -12 1000 l 72 0 l 429 0 z m 357 1015 b 457 1115 435 1015 457 1038 b 357 1226 457 1201 433 1226 b 261 1115 285 1226 261 1201 b 357 1015 261 1035 278 1015 z m 574 1015 b 674 1115 650 1015 674 1038 b 574 1226 674 1201 647 1226 b 478 1115 497 1226 478 1201 b 574 1015 478 1035 493 1015 z "},"Ẁ":{"ha":939,"x_min":0,"x_max":0,"o":"m 463 371 l 471 693 l 478 371 l 508 0 l 861 0 l 951 1000 l 672 1000 l 651 638 l 656 219 l 638 639 l 607 1000 l 333 1000 l 301 639 l 286 219 l 288 638 l 274 1000 l -12 1000 l 72 0 l 429 0 z m 401 1017 l 568 1017 l 499 1225 l 258 1225 z "},"Ý":{"ha":590,"x_min":0,"x_max":0,"o":"m 435 0 l 435 299 l 613 1000 l 339 1000 l 301 793 l 296 578 l 286 793 l 253 1000 l -24 1000 l 153 271 l 153 0 z m 194 1017 l 379 1017 l 532 1225 l 292 1225 z "},"Ŷ":{"ha":590,"x_min":0,"x_max":0,"o":"m 435 0 l 435 299 l 613 1000 l 339 1000 l 301 793 l 296 578 l 286 793 l 253 1000 l -24 1000 l 153 271 l 153 0 z m 321 1017 l 492 1017 l 379 1238 l 218 1238 l 104 1017 l 269 1017 l 297 1083 z "},"Ÿ":{"ha":590,"x_min":0,"x_max":0,"o":"m 435 0 l 435 299 l 613 1000 l 339 1000 l 301 793 l 296 578 l 286 793 l 253 1000 l -24 1000 l 153 271 l 153 0 z m 185 1015 b 285 1115 263 1015 285 1038 b 185 1226 285 1201 261 1226 b 89 1115 113 1226 89 1201 b 185 1015 89 1035 106 1015 z m 401 1015 b 501 1115 478 1015 501 1038 b 401 1226 501 1201 475 1226 b 306 1115 325 1226 306 1201 b 401 1015 306 1035 321 1015 z "},"Ỳ":{"ha":590,"x_min":0,"x_max":0,"o":"m 435 0 l 435 299 l 613 1000 l 339 1000 l 301 793 l 296 578 l 286 793 l 253 1000 l -24 1000 l 153 271 l 153 0 z m 229 1017 l 396 1017 l 326 1225 l 86 1225 z "},"Ĳ":{"ha":650,"x_min":0,"x_max":0,"o":"m 319 0 l 408 0 b 636 289 604 0 636 25 l 636 1004 l 354 1004 l 354 288 b 329 256 354 257 353 256 l 319 256 z m 15 0 l 297 0 l 297 1000 l 15 1000 z "},"Ź":{"ha":482,"x_min":0,"x_max":0,"o":"m 471 0 l 471 260 l 303 260 l 471 754 l 471 1000 l 11 1000 l 11 739 l 179 739 l 10 242 l 10 0 z m 138 1017 l 322 1017 l 475 1225 l 235 1225 z "},"Ž":{"ha":482,"x_min":0,"x_max":0,"o":"m 471 0 l 471 260 l 303 260 l 471 754 l 471 1000 l 11 1000 l 11 739 l 179 739 l 10 242 l 10 0 z m 331 1017 l 447 1238 l 281 1238 l 253 1169 l 229 1238 l 56 1238 l 169 1017 z "},"Ż":{"ha":482,"x_min":0,"x_max":0,"o":"m 471 0 l 471 260 l 303 260 l 471 754 l 471 1000 l 11 1000 l 11 739 l 179 739 l 10 242 l 10 0 z m 246 1015 b 374 1139 344 1015 374 1032 b 246 1265 374 1249 343 1265 b 121 1139 149 1265 121 1249 b 246 1015 121 1029 143 1015 z "},"Þ":{"ha":594,"x_min":0,"x_max":0,"o":"m 294 110 b 586 379 503 110 586 211 l 586 644 b 296 892 586 806 506 892 l 281 892 l 281 1000 l 14 1000 l 14 0 l 281 0 l 281 110 z m 281 669 b 311 631 304 669 311 653 l 311 386 b 281 344 311 356 300 344 z "},"a":{"ha":589,"x_min":0,"x_max":0,"o":"m 299 185 b 283 213 283 185 283 193 l 283 319 b 292 350 283 340 285 344 b 311 361 299 356 307 357 l 314 364 l 314 210 b 299 185 314 193 308 185 z m 347 0 l 575 0 l 575 589 b 300 825 575 767 503 825 b 15 582 104 825 15 753 l 15 488 l 285 488 l 285 585 b 300 617 285 613 289 617 b 314 588 311 617 314 613 l 314 543 b 246 468 314 489 308 486 b 61 392 165 444 103 428 b 8 238 25 360 8 319 l 8 163 b 172 -18 8 29 67 -18 b 322 108 257 -18 308 13 z "},"b":{"ha":592,"x_min":0,"x_max":0,"o":"m 408 -11 b 581 272 533 -11 581 69 l 581 540 b 424 822 581 760 535 822 b 283 700 353 822 306 785 l 283 1067 l 14 1067 l 14 0 l 250 0 l 276 110 b 408 -11 292 39 329 -11 z m 296 213 b 282 268 288 213 282 213 l 282 526 b 297 603 282 596 283 603 b 313 535 311 603 313 593 l 313 282 b 296 213 313 214 308 213 z "},"c":{"ha":582,"x_min":0,"x_max":0,"o":"m 290 -17 b 572 256 499 -17 572 76 l 572 376 l 306 376 l 306 265 b 293 215 306 221 306 215 b 278 267 281 215 278 221 l 278 540 b 293 600 278 594 281 600 b 306 540 304 600 306 596 l 306 444 l 572 444 l 572 558 b 304 824 572 739 490 824 b 11 543 119 824 11 733 l 11 260 b 290 -17 11 67 88 -17 z "},"d":{"ha":592,"x_min":0,"x_max":0,"o":"m 297 213 b 281 282 285 213 281 214 l 281 535 b 296 603 281 593 282 603 b 311 526 310 603 311 596 l 311 268 b 297 213 311 213 306 213 z m 347 0 l 578 0 l 578 1067 l 308 1067 l 308 717 b 178 822 288 786 246 822 b 11 553 74 822 11 772 l 11 281 b 185 -11 11 58 51 -11 b 319 114 276 -11 308 40 z "},"e":{"ha":585,"x_min":0,"x_max":0,"o":"m 574 261 l 574 313 l 306 313 l 306 281 b 292 206 306 218 307 206 b 275 261 278 206 275 207 l 275 342 l 574 342 l 574 544 b 292 824 574 733 486 824 b 11 550 114 824 11 733 l 11 268 b 299 -17 11 81 72 -17 b 574 261 507 -17 574 96 z m 275 547 b 293 608 275 599 276 608 b 310 556 308 608 310 603 l 310 489 l 275 489 z "},"f":{"ha":419,"x_min":0,"x_max":0,"o":"m 411 542 l 411 813 l 321 813 l 321 817 b 353 850 321 840 326 850 l 411 850 l 411 1118 l 318 1118 b 67 878 107 1118 67 1054 l 67 813 l 7 813 l 7 542 l 67 542 l 67 0 l 343 0 l 343 542 z "},"g":{"ha":585,"x_min":0,"x_max":0,"o":"m 290 399 b 274 431 278 399 274 406 l 274 604 b 290 638 274 632 276 638 b 306 606 304 638 306 633 l 306 429 b 290 399 306 407 301 399 z m 261 -256 b 590 -21 510 -256 590 -182 l 590 -18 b 322 196 590 124 522 196 l 242 196 b 181 204 190 196 181 196 b 224 217 181 214 189 217 l 283 217 b 576 458 489 217 576 283 l 576 594 b 389 803 576 729 524 785 b 590 947 574 794 590 818 l 590 949 l 306 949 l 306 900 b 239 819 306 836 300 828 l 208 815 b 8 583 65 796 8 726 l 8 461 b 161 254 8 333 56 267 b 3 110 50 242 3 192 b 160 -15 3 32 49 -8 l 146 -15 b -26 -125 21 -10 -26 -51 b 243 -256 -26 -203 40 -256 z m 274 -46 b 228 -33 243 -46 228 -42 l 228 -32 b 268 -17 228 -21 236 -17 l 319 -17 b 351 -28 340 -17 351 -19 l 351 -31 b 307 -46 351 -40 338 -46 z "},"h":{"ha":599,"x_min":0,"x_max":0,"o":"m 285 547 b 301 592 285 588 289 592 b 314 547 313 592 314 588 l 314 0 l 585 0 l 585 597 b 435 822 585 754 542 822 b 286 700 347 822 303 778 l 286 1067 l 14 1067 l 14 0 l 285 0 z "},"i":{"ha":308,"x_min":0,"x_max":0,"o":"m 153 794 b 300 935 276 794 300 824 b 153 1074 300 1046 274 1074 b 8 935 35 1074 8 1046 b 153 794 8 819 33 794 z m 14 0 l 294 0 l 294 811 b 154 771 268 783 240 771 b 14 810 68 771 38 783 z "},"j":{"ha":308,"x_min":0,"x_max":0,"o":"m 153 794 b 300 935 276 794 300 824 b 153 1074 300 1046 274 1074 b 8 935 35 1074 8 1046 b 153 794 8 819 33 794 z m -89 -276 l 61 -276 b 294 -49 231 -276 294 -218 l 294 811 b 154 771 268 783 240 771 b 14 810 68 771 38 783 l 14 7 b -17 -26 14 -21 8 -26 l -89 -26 z "},"k":{"ha":610,"x_min":0,"x_max":0,"o":"m 288 229 l 342 0 l 614 0 l 488 458 l 611 813 l 343 813 l 294 658 l 260 486 l 278 665 l 278 1067 l 14 1067 l 14 0 l 278 0 l 278 343 l 279 354 z "},"l":{"ha":307,"x_min":0,"x_max":0,"o":"m 293 0 l 293 1067 l 14 1067 l 14 0 z "},"m":{"ha":904,"x_min":0,"x_max":0,"o":"m 286 547 b 301 589 286 582 289 589 b 315 547 314 589 315 586 l 315 0 l 585 0 l 585 547 b 601 589 585 582 588 589 b 615 547 614 589 615 586 l 615 0 l 890 0 l 890 596 b 721 822 890 738 846 822 b 569 704 644 822 592 783 b 429 822 553 785 507 822 b 267 703 347 822 290 781 l 236 813 l 14 813 l 14 0 l 286 0 z "},"n":{"ha":601,"x_min":0,"x_max":0,"o":"m 288 547 b 303 592 288 588 290 592 b 317 547 315 592 317 588 l 317 0 l 588 0 l 588 597 b 426 822 588 754 533 822 b 268 703 338 822 288 781 l 238 813 l 14 813 l 14 0 l 288 0 z "},"o":{"ha":586,"x_min":0,"x_max":0,"o":"m 293 -17 b 575 260 489 -17 575 64 l 575 543 b 293 824 575 736 481 824 b 11 543 114 824 11 738 l 11 260 b 293 -17 11 64 100 -17 z m 293 213 b 278 251 282 213 278 215 l 278 563 b 293 603 278 600 282 603 b 308 563 304 603 308 600 l 308 251 b 293 213 308 215 304 213 z "},"p":{"ha":590,"x_min":0,"x_max":0,"o":"m 293 213 b 279 268 285 213 279 213 l 279 526 b 294 603 279 596 281 603 b 310 535 308 603 310 593 l 310 282 b 293 213 310 214 306 213 z m 404 -11 b 579 281 538 -11 579 72 l 579 542 b 413 822 579 753 524 822 b 279 701 338 822 297 786 l 257 813 l 14 813 l 14 -244 l 279 -244 l 279 96 b 404 -11 290 32 322 -11 z "},"q":{"ha":592,"x_min":0,"x_max":0,"o":"m 578 -244 l 578 813 l 349 813 l 318 706 b 176 822 300 788 256 822 b 13 553 72 822 13 772 l 13 281 b 183 -11 13 58 50 -11 b 313 96 260 -11 296 33 l 313 -244 z m 299 213 b 282 282 286 213 282 214 l 282 535 b 297 603 282 593 283 603 b 313 526 311 603 313 596 l 313 268 b 299 213 313 213 307 213 z "},"r":{"ha":410,"x_min":0,"x_max":0,"o":"m 276 0 l 276 378 b 343 443 276 436 283 443 l 399 443 l 399 821 l 372 821 b 235 635 257 821 235 796 l 235 622 l 208 813 l 14 813 l 14 0 z "},"s":{"ha":582,"x_min":0,"x_max":0,"o":"m 292 -18 b 576 243 511 -18 576 85 l 576 250 b 378 510 576 381 528 443 b 274 589 288 551 274 561 l 274 594 b 294 625 274 617 279 625 b 315 579 311 625 315 615 l 315 544 l 576 544 l 576 597 b 288 826 576 732 507 826 b 7 588 101 826 7 743 l 7 581 b 197 335 7 457 56 401 b 315 238 303 286 315 279 b 293 204 315 210 310 204 b 274 235 279 204 274 214 l 274 293 l 3 293 l 3 215 b 292 -18 3 64 71 -18 z "},"t":{"ha":406,"x_min":0,"x_max":0,"o":"m 397 260 l 383 260 b 328 318 333 260 328 267 l 328 542 l 397 542 l 397 813 l 328 813 l 328 956 l 90 956 b 82 843 90 897 89 868 b 56 811 78 828 71 817 b 6 806 44 807 32 806 l 6 542 l 61 542 l 61 228 b 299 0 61 47 117 0 l 397 0 z "},"u":{"ha":593,"x_min":0,"x_max":0,"o":"m 360 0 l 579 0 l 579 813 l 311 813 l 311 267 b 296 222 311 233 310 222 b 283 264 285 222 283 229 l 283 813 l 13 813 l 13 218 b 188 -12 13 54 63 -12 b 331 107 271 -12 314 25 z "},"v":{"ha":579,"x_min":0,"x_max":0,"o":"m 482 0 l 596 813 l 322 813 l 300 533 l 289 196 l 282 533 l 257 813 l -17 813 l 97 0 z "},"w":{"ha":867,"x_min":0,"x_max":0,"o":"m 428 251 l 438 496 l 442 251 l 476 0 l 792 0 l 883 813 l 628 813 l 603 475 l 601 229 l 590 474 l 567 813 l 315 813 l 285 471 l 269 225 l 272 476 l 256 813 l -17 813 l 71 0 l 404 0 z "},"x":{"ha":622,"x_min":0,"x_max":0,"o":"m 306 164 l 314 336 l 324 164 l 363 0 l 643 0 l 524 439 l 629 813 l 350 813 l 322 672 l 313 501 l 306 672 l 281 813 l -4 813 l 100 435 l -21 0 l 269 0 z "},"y":{"ha":589,"x_min":0,"x_max":0,"o":"m 135 -271 b 454 3 346 -271 407 -247 l 606 813 l 335 813 l 310 614 l 297 275 l 290 615 l 264 813 l -17 813 l 151 21 b 93 -22 146 -19 138 -22 l 36 -22 l 36 -271 z "},"z":{"ha":450,"x_min":0,"x_max":0,"o":"m 442 0 l 442 244 l 301 244 l 442 596 l 442 813 l 8 813 l 8 581 l 156 581 l 8 213 l 8 0 z "},"á":{"ha":589,"x_min":0,"x_max":0,"o":"m 299 185 b 283 213 283 185 283 193 l 283 319 b 292 350 283 340 285 344 b 311 361 299 356 307 357 l 314 364 l 314 210 b 299 185 314 193 308 185 z m 347 0 l 575 0 l 575 589 b 300 825 575 767 503 825 b 15 582 104 825 15 753 l 15 488 l 285 488 l 285 585 b 300 617 285 613 289 617 b 314 588 311 617 314 613 l 314 543 b 246 468 314 489 308 486 b 61 392 165 444 103 428 b 8 238 25 360 8 319 l 8 163 b 172 -18 8 29 67 -18 b 322 108 257 -18 308 13 z m 199 842 l 383 842 l 536 1050 l 296 1050 z "},"ă":{"ha":589,"x_min":0,"x_max":0,"o":"m 299 185 b 283 213 283 185 283 193 l 283 319 b 292 350 283 340 285 344 b 311 361 299 356 307 357 l 314 364 l 314 210 b 299 185 314 193 308 185 z m 347 0 l 575 0 l 575 589 b 300 825 575 767 503 825 b 15 582 104 825 15 753 l 15 488 l 285 488 l 285 585 b 300 617 285 613 289 617 b 314 588 311 617 314 613 l 314 543 b 246 468 314 489 308 486 b 61 392 165 444 103 428 b 8 238 25 360 8 319 l 8 163 b 172 -18 8 29 67 -18 b 322 108 257 -18 308 13 z m 300 840 b 485 1043 429 840 485 893 l 322 1043 b 300 996 322 1000 319 996 b 276 1043 278 996 276 999 l 114 1043 b 300 840 114 896 167 840 z "},"â":{"ha":589,"x_min":0,"x_max":0,"o":"m 299 185 b 283 213 283 185 283 193 l 283 319 b 292 350 283 340 285 344 b 311 361 299 356 307 357 l 314 364 l 314 210 b 299 185 314 193 308 185 z m 347 0 l 575 0 l 575 589 b 300 825 575 767 503 825 b 15 582 104 825 15 753 l 15 488 l 285 488 l 285 585 b 300 617 285 613 289 617 b 314 588 311 617 314 613 l 314 543 b 246 468 314 489 308 486 b 61 392 165 444 103 428 b 8 238 25 360 8 319 l 8 163 b 172 -18 8 29 67 -18 b 322 108 257 -18 308 13 z m 325 842 l 496 842 l 383 1063 l 222 1063 l 108 842 l 274 842 l 301 908 z "},"ä":{"ha":589,"x_min":0,"x_max":0,"o":"m 299 185 b 283 213 283 185 283 193 l 283 319 b 292 350 283 340 285 344 b 311 361 299 356 307 357 l 314 364 l 314 210 b 299 185 314 193 308 185 z m 347 0 l 575 0 l 575 589 b 300 825 575 767 503 825 b 15 582 104 825 15 753 l 15 488 l 285 488 l 285 585 b 300 617 285 613 289 617 b 314 588 311 617 314 613 l 314 543 b 246 468 314 489 308 486 b 61 392 165 444 103 428 b 8 238 25 360 8 319 l 8 163 b 172 -18 8 29 67 -18 b 322 108 257 -18 308 13 z m 194 833 b 294 933 272 833 294 856 b 194 1044 294 1019 271 1044 b 99 933 122 1044 99 1019 b 194 833 99 853 115 833 z m 411 833 b 511 933 488 833 511 856 b 411 1044 511 1019 485 1044 b 315 933 335 1044 315 1019 b 411 833 315 853 331 833 z "},"à":{"ha":589,"x_min":0,"x_max":0,"o":"m 299 185 b 283 213 283 185 283 193 l 283 319 b 292 350 283 340 285 344 b 311 361 299 356 307 357 l 314 364 l 314 210 b 299 185 314 193 308 185 z m 347 0 l 575 0 l 575 589 b 300 825 575 767 503 825 b 15 582 104 825 15 753 l 15 488 l 285 488 l 285 585 b 300 617 285 613 289 617 b 314 588 311 617 314 613 l 314 543 b 246 468 314 489 308 486 b 61 392 165 444 103 428 b 8 238 25 360 8 319 l 8 163 b 172 -18 8 29 67 -18 b 322 108 257 -18 308 13 z m 233 842 l 400 842 l 331 1050 l 90 1050 z "},"ā":{"ha":589,"x_min":0,"x_max":0,"o":"m 299 185 b 283 213 283 185 283 193 l 283 319 b 292 350 283 340 285 344 b 311 361 299 356 307 357 l 314 364 l 314 210 b 299 185 314 193 308 185 z m 347 0 l 575 0 l 575 589 b 300 825 575 767 503 825 b 15 582 104 825 15 753 l 15 488 l 285 488 l 285 585 b 300 617 285 613 289 617 b 314 588 311 617 314 613 l 314 543 b 246 468 314 489 308 486 b 61 392 165 444 103 428 b 8 238 25 360 8 319 l 8 163 b 172 -18 8 29 67 -18 b 322 108 257 -18 308 13 z m 158 842 l 439 842 l 439 1022 l 158 1022 z "},"ą":{"ha":589,"x_min":0,"x_max":0,"o":"m 299 185 b 283 213 283 185 283 193 l 283 319 b 292 350 283 340 285 344 b 311 361 299 356 307 357 l 314 364 l 314 210 b 299 185 314 193 308 185 z m 663 -97 l 467 -97 b 447 -142 468 -133 458 -142 b 436 -128 440 -142 436 -139 b 575 0 436 -118 436 -101 l 575 589 b 300 825 575 767 503 825 b 15 582 104 825 15 753 l 15 488 l 285 488 l 285 585 b 300 617 285 613 289 617 b 314 588 311 617 314 613 l 314 543 b 246 468 314 489 308 486 b 61 392 165 444 103 428 b 8 238 25 360 8 319 l 8 163 b 172 -18 8 29 67 -18 b 322 108 257 -18 308 13 l 343 17 b 251 -142 269 -43 251 -89 b 439 -296 251 -243 313 -296 b 663 -97 571 -296 649 -233 z "},"å":{"ha":589,"x_min":0,"x_max":0,"o":"m 299 185 b 283 213 283 185 283 193 l 283 319 b 292 350 283 340 285 344 b 311 361 299 356 307 357 l 314 364 l 314 210 b 299 185 314 193 308 185 z m 347 0 l 575 0 l 575 589 b 300 825 575 767 503 825 b 15 582 104 825 15 753 l 15 488 l 285 488 l 285 585 b 300 617 285 613 289 617 b 314 588 311 617 314 613 l 314 543 b 246 468 314 489 308 486 b 61 392 165 444 103 428 b 8 238 25 360 8 319 l 8 163 b 172 -18 8 29 67 -18 b 322 108 257 -18 308 13 z m 300 840 b 475 990 413 840 475 897 b 300 1144 475 1088 404 1144 b 125 988 203 1144 125 1094 b 300 840 125 892 193 840 z m 301 974 b 279 992 283 974 279 981 b 301 1011 279 1001 283 1011 b 324 992 319 1011 324 1001 b 301 974 324 982 319 974 z "},"ǻ":{"ha":588,"x_min":0,"x_max":0,"o":"m 299 185 b 283 213 283 185 283 193 l 283 319 b 292 350 283 340 285 344 b 311 361 299 356 307 357 l 314 364 l 314 210 b 299 185 314 193 308 185 z m 347 0 l 575 0 l 575 589 b 300 825 575 767 503 825 b 15 582 104 825 15 753 l 15 488 l 285 488 l 285 585 b 300 617 285 613 289 617 b 314 588 311 617 314 613 l 314 543 b 246 468 314 489 308 486 b 61 392 165 444 103 428 b 8 238 25 360 8 319 l 8 163 b 172 -18 8 29 67 -18 b 322 108 257 -18 308 13 z m 301 839 b 476 989 414 839 476 896 b 301 1143 476 1086 406 1143 b 126 986 204 1143 126 1093 b 301 839 126 890 194 839 z m 303 972 b 281 990 285 972 281 979 b 303 1010 281 1000 285 1010 b 325 990 321 1010 325 1000 b 303 972 325 981 321 972 z m 210 1156 l 394 1156 l 547 1364 l 307 1364 z "},"ã":{"ha":589,"x_min":0,"x_max":0,"o":"m 299 185 b 283 213 283 185 283 193 l 283 319 b 292 350 283 340 285 344 b 311 361 299 356 307 357 l 314 364 l 314 210 b 299 185 314 193 308 185 z m 347 0 l 575 0 l 575 589 b 300 825 575 767 503 825 b 15 582 104 825 15 753 l 15 488 l 285 488 l 285 585 b 300 617 285 613 289 617 b 314 588 311 617 314 613 l 314 543 b 246 468 314 489 308 486 b 61 392 165 444 103 428 b 8 238 25 360 8 319 l 8 163 b 172 -18 8 29 67 -18 b 322 108 257 -18 308 13 z m 96 839 l 242 839 b 268 882 242 865 246 882 b 413 835 307 882 347 835 b 539 1076 503 835 539 878 l 389 1076 b 363 1040 389 1054 383 1040 b 222 1082 329 1040 289 1082 b 96 839 126 1082 94 1031 z "},"æ":{"ha":872,"x_min":0,"x_max":0,"o":"m 567 547 b 585 608 567 599 568 608 b 601 556 600 608 601 603 l 601 489 l 567 489 z m 296 185 b 279 213 281 185 279 193 l 279 315 b 286 346 279 336 281 340 b 308 357 292 351 303 353 l 311 360 l 311 210 b 296 185 311 193 306 185 z m 597 -17 b 861 261 794 -17 861 96 l 861 313 l 597 313 l 597 281 b 583 206 597 218 599 206 b 567 261 569 206 567 207 l 567 342 l 861 342 l 861 544 b 596 824 861 733 778 824 b 454 786 540 824 493 811 b 293 825 415 813 363 825 b 17 582 101 825 17 725 l 17 496 l 281 496 l 281 585 b 296 619 281 614 285 619 b 311 588 307 619 311 613 l 311 554 b 244 474 311 500 307 489 b 61 407 164 453 106 443 b 10 269 24 376 10 339 l 10 163 b 196 -18 10 29 67 -18 b 368 78 283 -18 339 15 b 597 -17 403 14 471 -17 z "},"ǽ":{"ha":872,"x_min":0,"x_max":0,"o":"m 567 547 b 585 608 567 599 568 608 b 601 556 600 608 601 603 l 601 489 l 567 489 z m 296 185 b 279 213 281 185 279 193 l 279 315 b 286 346 279 336 281 340 b 308 357 292 351 303 353 l 311 360 l 311 210 b 296 185 311 193 306 185 z m 597 -17 b 861 261 794 -17 861 96 l 861 313 l 597 313 l 597 281 b 583 206 597 218 599 206 b 567 261 569 206 567 207 l 567 342 l 861 342 l 861 544 b 596 824 861 733 778 824 b 454 786 540 824 493 811 b 293 825 415 813 363 825 b 17 582 101 825 17 725 l 17 496 l 281 496 l 281 585 b 296 619 281 614 285 619 b 311 588 307 619 311 613 l 311 554 b 244 474 311 500 307 489 b 61 407 164 453 106 443 b 10 269 24 376 10 339 l 10 163 b 196 -18 10 29 67 -18 b 368 78 283 -18 339 15 b 597 -17 403 14 471 -17 z m 358 833 l 543 833 l 696 1042 l 456 1042 z "},"ć":{"ha":582,"x_min":0,"x_max":0,"o":"m 290 -17 b 572 256 499 -17 572 76 l 572 376 l 306 376 l 306 265 b 293 215 306 221 306 215 b 278 267 281 215 278 221 l 278 540 b 293 600 278 594 281 600 b 306 540 304 600 306 596 l 306 444 l 572 444 l 572 558 b 304 824 572 739 490 824 b 11 543 119 824 11 733 l 11 260 b 290 -17 11 67 88 -17 z m 203 842 l 388 842 l 540 1050 l 300 1050 z "},"č":{"ha":582,"x_min":0,"x_max":0,"o":"m 290 -17 b 572 256 499 -17 572 76 l 572 376 l 306 376 l 306 265 b 293 215 306 221 306 215 b 278 267 281 215 278 221 l 278 540 b 293 600 278 594 281 600 b 306 540 304 600 306 596 l 306 444 l 572 444 l 572 558 b 304 824 572 739 490 824 b 11 543 119 824 11 733 l 11 260 b 290 -17 11 67 88 -17 z m 382 842 l 499 1063 l 332 1063 l 304 994 l 281 1063 l 107 1063 l 221 842 z "},"ç":{"ha":582,"x_min":0,"x_max":0,"o":"m 290 -318 b 499 -165 419 -318 499 -261 b 365 -36 499 -69 449 -43 l 365 -12 b 572 256 517 10 572 100 l 572 376 l 306 376 l 306 265 b 293 215 306 221 306 215 b 278 267 281 215 278 221 l 278 540 b 293 600 278 594 281 600 b 306 540 304 600 306 596 l 306 444 l 572 444 l 572 558 b 304 824 572 739 490 824 b 11 543 119 824 11 733 l 11 260 b 208 -11 11 96 67 11 l 208 -137 l 299 -137 b 326 -158 315 -137 326 -143 b 296 -179 326 -169 318 -179 b 258 -151 276 -179 265 -171 l 68 -151 b 290 -318 85 -274 172 -318 z "},"ĉ":{"ha":582,"x_min":0,"x_max":0,"o":"m 290 -17 b 572 256 499 -17 572 76 l 572 376 l 306 376 l 306 265 b 293 215 306 221 306 215 b 278 267 281 215 278 221 l 278 540 b 293 600 278 594 281 600 b 306 540 304 600 306 596 l 306 444 l 572 444 l 572 558 b 304 824 572 739 490 824 b 11 543 119 824 11 733 l 11 260 b 290 -17 11 67 88 -17 z m 329 842 l 500 842 l 388 1063 l 226 1063 l 113 842 l 278 842 l 306 908 z "},"ċ":{"ha":582,"x_min":0,"x_max":0,"o":"m 290 -17 b 572 256 499 -17 572 76 l 572 376 l 306 376 l 306 265 b 293 215 306 221 306 215 b 278 267 281 215 278 221 l 278 540 b 293 600 278 594 281 600 b 306 540 304 600 306 596 l 306 444 l 572 444 l 572 558 b 304 824 572 739 490 824 b 11 543 119 824 11 733 l 11 260 b 290 -17 11 67 88 -17 z m 300 840 b 428 964 399 840 428 857 b 300 1090 428 1074 397 1090 b 175 964 203 1090 175 1074 b 300 840 175 854 197 840 z "},"ď":{"ha":592,"x_min":0,"x_max":0,"o":"m 297 213 b 281 282 285 213 281 214 l 281 535 b 296 603 281 593 282 603 b 311 526 310 603 311 596 l 311 268 b 297 213 311 213 306 213 z m 347 0 l 578 0 l 578 1067 l 308 1067 l 308 717 b 178 822 288 786 246 822 b 11 553 74 822 11 772 l 11 281 b 185 -11 11 58 51 -11 b 319 114 276 -11 308 40 z m 579 836 l 650 836 l 749 1067 l 621 1067 z "},"đ":{"ha":585,"x_min":0,"x_max":0,"o":"m 290 213 b 274 282 278 213 274 214 l 274 535 b 289 603 274 593 275 603 b 304 526 303 603 304 596 l 304 268 b 290 213 304 213 299 213 z m 340 0 l 571 0 l 571 825 l 585 825 l 585 997 l 571 997 l 571 1067 l 301 1067 l 301 997 l 236 997 l 236 825 l 301 825 l 301 719 b 174 822 281 788 242 822 b 11 535 69 822 11 754 l 11 304 b 181 -11 11 82 47 -11 b 313 113 272 -11 303 40 z "},"ð":{"ha":583,"x_min":0,"x_max":0,"o":"m 282 -17 b 574 274 460 -17 574 72 l 574 558 b 436 963 574 721 521 860 l 606 1065 l 407 1065 l 360 1036 b 319 1065 346 1047 333 1057 l -18 1065 b 171 922 58 1014 121 968 l 1 819 l 200 819 l 246 847 b 342 679 294 790 325 736 b 193 779 319 742 282 779 b 11 528 64 779 11 704 l 11 242 b 282 -17 11 64 96 -17 z m 292 215 b 276 254 281 215 276 218 l 276 518 b 292 558 276 556 281 558 b 307 518 303 558 307 556 l 307 254 b 292 215 307 218 303 215 z "},"é":{"ha":585,"x_min":0,"x_max":0,"o":"m 574 261 l 574 313 l 306 313 l 306 281 b 292 206 306 218 307 206 b 275 261 278 206 275 207 l 275 342 l 574 342 l 574 544 b 292 824 574 733 486 824 b 11 550 114 824 11 733 l 11 268 b 299 -17 11 81 72 -17 b 574 261 507 -17 574 96 z m 275 547 b 293 608 275 599 276 608 b 310 556 308 608 310 603 l 310 489 l 275 489 z m 192 840 l 376 840 l 529 1049 l 289 1049 z "},"ĕ":{"ha":585,"x_min":0,"x_max":0,"o":"m 574 261 l 574 313 l 306 313 l 306 281 b 292 206 306 218 307 206 b 275 261 278 206 275 207 l 275 342 l 574 342 l 574 544 b 292 824 574 733 486 824 b 11 550 114 824 11 733 l 11 268 b 299 -17 11 81 72 -17 b 574 261 507 -17 574 96 z m 275 547 b 293 608 275 599 276 608 b 310 556 308 608 310 603 l 310 489 l 275 489 z m 293 839 b 478 1042 422 839 478 892 l 315 1042 b 293 994 315 999 313 994 b 269 1042 271 994 269 997 l 107 1042 b 293 839 107 894 160 839 z "},"ě":{"ha":585,"x_min":0,"x_max":0,"o":"m 574 261 l 574 313 l 306 313 l 306 281 b 292 206 306 218 307 206 b 275 261 278 206 275 207 l 275 342 l 574 342 l 574 544 b 292 824 574 733 486 824 b 11 550 114 824 11 733 l 11 268 b 299 -17 11 81 72 -17 b 574 261 507 -17 574 96 z m 275 547 b 293 608 275 599 276 608 b 310 556 308 608 310 603 l 310 489 l 275 489 z m 371 840 l 488 1061 l 321 1061 l 293 993 l 269 1061 l 96 1061 l 210 840 z "},"ê":{"ha":585,"x_min":0,"x_max":0,"o":"m 574 261 l 574 313 l 306 313 l 306 281 b 292 206 306 218 307 206 b 275 261 278 206 275 207 l 275 342 l 574 342 l 574 544 b 292 824 574 733 486 824 b 11 550 114 824 11 733 l 11 268 b 299 -17 11 81 72 -17 b 574 261 507 -17 574 96 z m 275 547 b 293 608 275 599 276 608 b 310 556 308 608 310 603 l 310 489 l 275 489 z m 318 838 l 489 838 l 376 1058 l 215 1058 l 101 838 l 267 838 l 294 904 z "},"ë":{"ha":585,"x_min":0,"x_max":0,"o":"m 574 261 l 574 313 l 306 313 l 306 281 b 292 206 306 218 307 206 b 275 261 278 206 275 207 l 275 342 l 574 342 l 574 544 b 292 824 574 733 486 824 b 11 550 114 824 11 733 l 11 268 b 299 -17 11 81 72 -17 b 574 261 507 -17 574 96 z m 275 547 b 293 608 275 599 276 608 b 310 556 308 608 310 603 l 310 489 l 275 489 z m 182 831 b 282 931 260 831 282 853 b 182 1042 282 1017 258 1042 b 86 931 110 1042 86 1017 b 182 831 86 850 103 831 z m 399 831 b 499 931 475 831 499 853 b 399 1042 499 1017 472 1042 b 303 931 322 1042 303 1017 b 399 831 303 850 318 831 z "},"ė":{"ha":585,"x_min":0,"x_max":0,"o":"m 574 261 l 574 313 l 306 313 l 306 281 b 292 206 306 218 307 206 b 275 261 278 206 275 207 l 275 342 l 574 342 l 574 544 b 292 824 574 733 486 824 b 11 550 114 824 11 733 l 11 268 b 299 -17 11 81 72 -17 b 574 261 507 -17 574 96 z m 275 547 b 293 608 275 599 276 608 b 310 556 308 608 310 603 l 310 489 l 275 489 z m 289 839 b 417 963 388 839 417 856 b 289 1089 417 1072 386 1089 b 164 963 192 1089 164 1072 b 289 839 164 853 186 839 z "},"è":{"ha":585,"x_min":0,"x_max":0,"o":"m 574 261 l 574 313 l 306 313 l 306 281 b 292 206 306 218 307 206 b 275 261 278 206 275 207 l 275 342 l 574 342 l 574 544 b 292 824 574 733 486 824 b 11 550 114 824 11 733 l 11 268 b 299 -17 11 81 72 -17 b 574 261 507 -17 574 96 z m 275 547 b 293 608 275 599 276 608 b 310 556 308 608 310 603 l 310 489 l 275 489 z m 226 840 l 393 840 l 324 1049 l 83 1049 z "},"ē":{"ha":585,"x_min":0,"x_max":0,"o":"m 574 261 l 574 313 l 306 313 l 306 281 b 292 206 306 218 307 206 b 275 261 278 206 275 207 l 275 342 l 574 342 l 574 544 b 292 824 574 733 486 824 b 11 550 114 824 11 733 l 11 268 b 299 -17 11 81 72 -17 b 574 261 507 -17 574 96 z m 275 547 b 293 608 275 599 276 608 b 310 556 308 608 310 603 l 310 489 l 275 489 z m 151 840 l 432 840 l 432 1021 l 151 1021 z "},"ę":{"ha":585,"x_min":0,"x_max":0,"o":"m 343 -267 b 567 -68 475 -267 553 -204 l 371 -68 b 351 -112 372 -104 363 -112 b 340 -99 344 -112 340 -110 b 476 28 340 -89 340 -72 b 574 261 547 75 574 157 l 574 313 l 306 313 l 306 281 b 292 206 306 218 307 206 b 275 261 278 206 275 207 l 275 342 l 574 342 l 574 544 b 292 824 574 733 486 824 b 11 550 114 824 11 733 l 11 268 b 193 -7 11 114 53 21 b 156 -112 164 -44 156 -76 b 343 -267 156 -214 217 -267 z m 275 547 b 293 608 275 599 276 608 b 310 556 308 608 310 603 l 310 489 l 275 489 z "},"ğ":{"ha":586,"x_min":0,"x_max":0,"o":"m 290 400 b 274 432 278 400 274 407 l 274 606 b 290 640 274 635 276 640 b 306 607 304 640 306 636 l 306 431 b 290 400 306 408 301 400 z m 261 -257 b 590 -21 510 -257 590 -182 l 590 -18 b 322 196 590 124 522 196 l 242 196 b 181 206 190 196 181 196 b 224 218 181 215 189 218 l 283 218 b 576 460 489 218 576 285 l 576 596 b 389 804 576 732 524 786 b 590 915 578 796 590 799 l 590 917 l 306 917 l 306 903 b 239 822 306 839 300 831 l 208 818 b 8 585 65 799 8 729 l 8 463 b 161 256 8 335 56 268 b 3 110 50 243 3 192 b 156 -15 3 33 47 -7 b -12 -125 35 -10 -12 -51 b 257 -257 -12 -203 54 -257 z m 274 -46 b 228 -33 243 -46 228 -42 l 228 -32 b 268 -17 228 -21 236 -17 l 319 -17 b 351 -28 340 -17 351 -19 l 351 -31 b 307 -46 351 -40 338 -46 z m 296 933 b 481 1136 425 933 481 986 l 318 1136 b 296 1089 318 1093 315 1089 b 272 1136 274 1089 272 1092 l 110 1136 b 296 933 110 989 163 933 z "},"ĝ":{"ha":586,"x_min":0,"x_max":0,"o":"m 290 400 b 274 432 278 400 274 407 l 274 606 b 290 640 274 635 276 640 b 306 607 304 640 306 636 l 306 431 b 290 400 306 408 301 400 z m 261 -257 b 590 -21 510 -257 590 -182 l 590 -18 b 322 196 590 124 522 196 l 242 196 b 181 206 190 196 181 196 b 224 218 181 215 189 218 l 283 218 b 576 460 489 218 576 285 l 576 596 b 389 804 576 732 524 786 b 590 915 578 796 590 799 l 590 917 l 306 917 l 306 903 b 239 822 306 839 300 831 l 208 818 b 8 585 65 799 8 729 l 8 463 b 161 256 8 335 56 268 b 3 110 50 243 3 192 b 156 -15 3 33 47 -7 b -12 -125 35 -10 -12 -51 b 257 -257 -12 -203 54 -257 z m 274 -46 b 228 -33 243 -46 228 -42 l 228 -32 b 268 -17 228 -21 236 -17 l 319 -17 b 351 -28 340 -17 351 -19 l 351 -31 b 307 -46 351 -40 338 -46 z m 321 935 l 492 935 l 379 1156 l 218 1156 l 104 935 l 269 935 l 297 1001 z "},"ģ":{"ha":586,"x_min":0,"x_max":0,"o":"m 290 400 b 274 432 278 400 274 407 l 274 606 b 290 640 274 635 276 640 b 306 607 304 640 306 636 l 306 431 b 290 400 306 408 301 400 z m 261 -257 b 590 -21 510 -257 590 -182 l 590 -18 b 322 196 590 124 522 196 l 242 196 b 181 206 190 196 181 196 b 224 218 181 215 189 218 l 283 218 b 576 460 489 218 576 285 l 576 596 b 389 804 576 732 524 786 b 590 915 578 796 590 799 l 590 917 l 306 917 l 306 903 b 239 822 306 839 300 831 l 208 818 b 8 585 65 799 8 729 l 8 463 b 161 256 8 335 56 268 b 3 110 50 243 3 192 b 156 -15 3 33 47 -7 b -12 -125 35 -10 -12 -51 b 257 -257 -12 -203 54 -257 z m 274 -46 b 228 -33 243 -46 228 -42 l 228 -32 b 268 -17 228 -21 236 -17 l 319 -17 b 351 -28 340 -17 351 -19 l 351 -31 b 307 -46 351 -40 338 -46 z m 296 933 b 442 1026 411 933 442 951 b 314 1115 442 1106 411 1115 b 267 1111 297 1115 282 1114 b 429 1149 279 1144 333 1149 l 429 1219 b 149 1058 232 1219 149 1189 b 296 933 149 950 183 933 z "},"ġ":{"ha":586,"x_min":0,"x_max":0,"o":"m 290 400 b 274 432 278 400 274 407 l 274 606 b 290 640 274 635 276 640 b 306 607 304 640 306 636 l 306 431 b 290 400 306 408 301 400 z m 261 -257 b 590 -21 510 -257 590 -182 l 590 -18 b 322 196 590 124 522 196 l 242 196 b 181 206 190 196 181 196 b 224 218 181 215 189 218 l 283 218 b 576 460 489 218 576 285 l 576 596 b 389 804 576 732 524 786 b 590 915 578 796 590 799 l 590 917 l 306 917 l 306 903 b 239 822 306 839 300 831 l 208 818 b 8 585 65 799 8 729 l 8 463 b 161 256 8 335 56 268 b 3 110 50 243 3 192 b 156 -15 3 33 47 -7 b -12 -125 35 -10 -12 -51 b 257 -257 -12 -203 54 -257 z m 274 -46 b 228 -33 243 -46 228 -42 l 228 -32 b 268 -17 228 -21 236 -17 l 319 -17 b 351 -28 340 -17 351 -19 l 351 -31 b 307 -46 351 -40 338 -46 z m 292 933 b 419 1057 390 933 419 950 b 292 1183 419 1167 389 1183 b 167 1057 194 1183 167 1167 b 292 933 167 947 189 933 z "},"ß":{"ha":631,"x_min":0,"x_max":0,"o":"m 421 -4 b 619 226 581 -4 619 28 l 619 379 b 547 528 619 465 590 507 b 611 679 590 550 611 594 l 611 824 b 322 1044 611 951 519 1044 b 14 806 132 1044 14 960 l 14 0 l 289 0 l 289 778 b 313 803 289 797 301 803 b 335 783 326 803 335 794 l 335 657 b 317 633 335 642 331 633 l 308 633 l 308 408 l 317 408 b 336 388 332 408 336 400 l 336 256 b 319 233 336 243 329 233 l 310 233 l 310 0 b 421 -4 321 -1 363 -4 z "},"ħ":{"ha":596,"x_min":0,"x_max":0,"o":"m 285 547 b 301 592 285 588 289 592 b 314 547 313 592 314 588 l 314 0 l 585 0 l 585 597 b 435 822 585 754 542 822 b 286 700 347 822 303 778 l 286 843 l 328 843 l 328 999 l 286 999 l 286 1067 l 14 1067 l 14 999 l 0 999 l 0 843 l 14 843 l 14 0 l 285 0 z "},"ĥ":{"ha":599,"x_min":0,"x_max":0,"o":"m 285 547 b 301 592 285 588 289 592 b 314 547 313 592 314 588 l 314 0 l 585 0 l 585 597 b 435 822 585 754 542 822 b 286 700 347 822 303 778 l 286 1067 l 14 1067 l 14 0 l 285 0 z m 172 1083 l 343 1083 l 231 1304 l 69 1304 l -44 1083 l 121 1083 l 149 1150 z "},"í":{"ha":308,"x_min":0,"x_max":0,"o":"m 294 0 l 294 813 l 14 813 l 14 0 z m 58 831 l 243 831 l 396 1039 l 156 1039 z "},"ĭ":{"ha":308,"x_min":0,"x_max":0,"o":"m 294 0 l 294 813 l 14 813 l 14 0 z m 156 828 b 340 1031 285 828 340 881 l 178 1031 b 156 983 178 988 175 983 b 132 1031 133 983 132 986 l -31 1031 b 156 828 -31 883 22 828 z "},"î":{"ha":308,"x_min":0,"x_max":0,"o":"m 294 0 l 294 813 l 14 813 l 14 0 z m 181 829 l 351 829 l 239 1050 l 78 1050 l -36 829 l 129 829 l 157 896 z "},"ï":{"ha":308,"x_min":0,"x_max":0,"o":"m 294 0 l 294 813 l 14 813 l 14 0 z m 44 828 b 144 928 122 828 144 850 b 44 1039 144 1014 121 1039 b -51 928 -28 1039 -51 1014 b 44 828 -51 847 -35 828 z m 261 828 b 361 928 338 828 361 850 b 261 1039 361 1014 335 1039 b 165 928 185 1039 165 1014 b 261 828 165 847 181 828 z "},"ì":{"ha":308,"x_min":0,"x_max":0,"o":"m 294 0 l 294 813 l 14 813 l 14 0 z m 89 829 l 256 829 l 186 1038 l -54 1038 z "},"ī":{"ha":308,"x_min":0,"x_max":0,"o":"m 294 0 l 294 813 l 14 813 l 14 0 z m 14 829 l 294 829 l 294 1010 l 14 1010 z "},"į":{"ha":308,"x_min":0,"x_max":0,"o":"m 153 794 b 300 935 276 794 300 824 b 153 1074 300 1046 274 1074 b 8 935 35 1074 8 1046 b 153 794 8 819 33 794 z m 382 -97 l 186 -97 b 167 -142 188 -133 178 -142 b 156 -128 160 -142 156 -139 b 294 0 156 -118 156 -101 l 294 811 b 154 771 268 783 240 771 b 14 810 68 771 38 783 l 14 0 l 43 0 b -29 -142 -15 -51 -29 -94 b 158 -296 -29 -243 32 -296 b 382 -97 290 -296 368 -233 z "},"ĩ":{"ha":308,"x_min":0,"x_max":0,"o":"m 294 0 l 294 813 l 14 813 l 14 0 z m -65 829 l 81 829 b 107 872 81 856 85 872 b 251 825 146 872 186 825 b 378 1067 342 825 378 868 l 228 1067 b 201 1031 228 1044 222 1031 b 61 1072 168 1031 128 1072 b -65 829 -35 1072 -67 1021 z "},"ı":{"ha":308,"x_min":0,"x_max":0,"o":"m 294 0 l 294 813 l 14 813 l 14 0 z "},"ĵ":{"ha":308,"x_min":0,"x_max":0,"o":"m -89 -276 l 61 -276 b 294 -49 231 -276 294 -218 l 294 813 l 14 813 l 14 7 b -17 -26 14 -21 8 -26 l -89 -26 z m 181 829 l 351 829 l 239 1050 l 78 1050 l -36 829 l 129 829 l 157 896 z "},"ȷ":{"ha":308,"x_min":0,"x_max":0,"o":"m -89 -276 l 61 -276 b 294 -49 231 -276 294 -218 l 294 813 l 14 813 l 14 7 b -17 -26 14 -21 8 -26 l -89 -26 z "},"ķ":{"ha":610,"x_min":0,"x_max":0,"o":"m 288 229 l 342 0 l 614 0 l 488 458 l 611 813 l 343 813 l 294 658 l 260 486 l 278 665 l 278 1067 l 14 1067 l 14 0 l 278 0 l 278 343 l 279 354 z m 178 -301 b 458 -140 375 -301 458 -271 b 311 -15 458 -32 424 -15 b 165 -108 196 -15 165 -33 b 293 -197 165 -187 196 -197 b 340 -193 310 -197 325 -196 b 178 -231 328 -226 274 -231 z "},"ĸ":{"ha":608,"x_min":0,"x_max":0,"o":"m 286 229 l 340 0 l 613 0 l 486 458 l 610 813 l 343 813 l 294 658 l 260 486 l 278 665 l 278 813 l 13 813 l 13 0 l 276 0 l 276 343 l 278 354 z "},"ĺ":{"ha":307,"x_min":0,"x_max":0,"o":"m 293 0 l 293 1067 l 14 1067 l 14 0 z m 50 1083 l 235 1083 l 388 1292 l 147 1292 z "},"ľ":{"ha":307,"x_min":0,"x_max":0,"o":"m 293 0 l 293 1067 l 14 1067 l 14 0 z m 294 836 l 365 836 l 464 1067 l 336 1067 z "},"ļ":{"ha":307,"x_min":0,"x_max":0,"o":"m 293 0 l 293 1067 l 14 1067 l 14 0 z m 25 -301 b 306 -140 222 -301 306 -271 b 158 -15 306 -32 271 -15 b 13 -108 43 -15 13 -33 b 140 -197 13 -187 43 -197 b 188 -193 157 -197 172 -196 b 25 -231 175 -226 121 -231 z "},"ŀ":{"ha":393,"x_min":0,"x_max":0,"o":"m 293 0 l 293 1067 l 14 1067 l 14 0 z m 344 181 b 388 410 378 181 388 210 b 344 646 388 614 378 646 b 301 410 311 646 301 614 b 344 181 301 204 310 181 z "},"ł":{"ha":311,"x_min":0,"x_max":0,"o":"m 290 0 l 290 339 l 311 343 l 311 578 l 290 574 l 290 1067 l 19 1067 l 19 518 l 0 514 l 0 278 l 19 282 l 19 0 z "},"ń":{"ha":601,"x_min":0,"x_max":0,"o":"m 288 547 b 303 592 288 588 290 592 b 317 547 315 592 317 588 l 317 0 l 588 0 l 588 597 b 426 822 588 754 533 822 b 268 703 338 822 288 781 l 238 813 l 14 813 l 14 0 l 288 0 z m 208 828 l 393 828 l 546 1036 l 306 1036 z "},"ň":{"ha":601,"x_min":0,"x_max":0,"o":"m 288 547 b 303 592 288 588 290 592 b 317 547 315 592 317 588 l 317 0 l 588 0 l 588 597 b 426 822 588 754 533 822 b 268 703 338 822 288 781 l 238 813 l 14 813 l 14 0 l 288 0 z m 388 828 l 504 1049 l 338 1049 l 310 981 l 286 1049 l 113 1049 l 226 828 z "},"ņ":{"ha":601,"x_min":0,"x_max":0,"o":"m 288 547 b 303 592 288 588 290 592 b 317 547 315 592 317 588 l 317 0 l 588 0 l 588 597 b 426 822 588 754 533 822 b 268 703 338 822 288 781 l 238 813 l 14 813 l 14 0 l 288 0 z m 169 -299 b 450 -137 367 -299 450 -268 b 303 -12 450 -29 415 -12 b 157 -106 188 -12 157 -31 b 285 -194 157 -185 188 -194 b 332 -190 301 -194 317 -193 b 169 -228 319 -224 265 -228 z "},"ñ":{"ha":601,"x_min":0,"x_max":0,"o":"m 288 547 b 303 592 288 588 290 592 b 317 547 315 592 317 588 l 317 0 l 588 0 l 588 597 b 426 822 588 754 533 822 b 268 703 338 822 288 781 l 238 813 l 14 813 l 14 0 l 288 0 z m 88 835 l 233 835 b 260 878 233 861 238 878 b 404 831 299 878 339 831 b 531 1072 494 831 531 874 l 381 1072 b 354 1036 381 1050 375 1036 b 214 1078 321 1036 281 1078 b 88 835 118 1078 86 1026 z "},"ŋ":{"ha":599,"x_min":0,"x_max":0,"o":"m 363 -276 b 586 -49 532 -276 586 -218 l 586 597 b 426 822 586 754 533 822 b 268 703 338 822 288 781 l 238 813 l 14 813 l 14 0 l 288 0 l 288 547 b 301 592 288 588 289 592 b 315 547 314 592 315 588 l 315 7 b 285 -26 315 -21 310 -26 l 232 -26 l 232 -276 z "},"ó":{"ha":586,"x_min":0,"x_max":0,"o":"m 293 -17 b 575 260 489 -17 575 64 l 575 543 b 293 824 575 736 481 824 b 11 543 114 824 11 738 l 11 260 b 293 -17 11 64 100 -17 z m 293 213 b 278 251 282 213 278 215 l 278 563 b 293 603 278 600 282 603 b 308 563 304 603 308 600 l 308 251 b 293 213 308 215 304 213 z m 193 839 l 378 839 l 531 1047 l 290 1047 z "},"ŏ":{"ha":586,"x_min":0,"x_max":0,"o":"m 293 -17 b 575 260 489 -17 575 64 l 575 543 b 293 824 575 736 481 824 b 11 543 114 824 11 738 l 11 260 b 293 -17 11 64 100 -17 z m 293 213 b 278 251 282 213 278 215 l 278 563 b 293 603 278 600 282 603 b 308 563 304 603 308 600 l 308 251 b 293 213 308 215 304 213 z m 294 838 b 479 1040 424 838 479 890 l 317 1040 b 294 993 317 997 314 993 b 271 1040 272 993 271 996 l 108 1040 b 294 838 108 893 161 838 z "},"ô":{"ha":586,"x_min":0,"x_max":0,"o":"m 293 -17 b 575 260 489 -17 575 64 l 575 543 b 293 824 575 736 481 824 b 11 543 114 824 11 738 l 11 260 b 293 -17 11 64 100 -17 z m 293 213 b 278 251 282 213 278 215 l 278 563 b 293 603 278 600 282 603 b 308 563 304 603 308 600 l 308 251 b 293 213 308 215 304 213 z m 319 836 l 490 836 l 378 1057 l 217 1057 l 103 836 l 268 836 l 296 903 z "},"ö":{"ha":586,"x_min":0,"x_max":0,"o":"m 293 -17 b 575 260 489 -17 575 64 l 575 543 b 293 824 575 736 481 824 b 11 543 114 824 11 738 l 11 260 b 293 -17 11 64 100 -17 z m 293 213 b 278 251 282 213 278 215 l 278 563 b 293 603 278 600 282 603 b 308 563 304 603 308 600 l 308 251 b 293 213 308 215 304 213 z m 188 829 b 288 929 265 829 288 851 b 188 1040 288 1015 264 1040 b 92 929 115 1040 92 1015 b 188 829 92 849 108 829 z m 404 829 b 504 929 481 829 504 851 b 404 1040 504 1015 478 1040 b 308 929 328 1040 308 1015 b 404 829 308 849 324 829 z "},"œ":{"ha":874,"x_min":0,"x_max":0,"o":"m 863 261 l 863 313 l 596 313 l 596 281 b 582 206 596 218 597 206 b 565 261 568 206 565 207 l 565 342 l 863 342 l 863 544 b 610 824 863 733 786 824 b 450 771 539 824 488 804 b 276 824 411 806 354 824 b 10 543 97 824 10 738 l 10 260 b 276 -17 10 64 83 -17 b 443 29 349 -17 404 -3 b 614 -17 478 -1 532 -17 b 863 261 811 -17 863 96 z m 565 547 b 583 608 565 599 567 608 b 600 556 599 608 600 603 l 600 489 l 565 489 z m 290 213 b 275 251 279 213 275 215 l 275 563 b 290 603 275 600 279 603 b 306 563 301 603 306 600 l 306 251 b 290 213 306 215 301 213 z "},"ò":{"ha":586,"x_min":0,"x_max":0,"o":"m 293 -17 b 575 260 489 -17 575 64 l 575 543 b 293 824 575 736 481 824 b 11 543 114 824 11 738 l 11 260 b 293 -17 11 64 100 -17 z m 293 213 b 278 251 282 213 278 215 l 278 563 b 293 603 278 600 282 603 b 308 563 304 603 308 600 l 308 251 b 293 213 308 215 304 213 z m 228 839 l 394 839 l 325 1047 l 85 1047 z "},"ő":{"ha":586,"x_min":0,"x_max":0,"o":"m 293 -17 b 575 260 489 -17 575 64 l 575 543 b 293 824 575 736 481 824 b 11 543 114 824 11 738 l 11 260 b 293 -17 11 64 100 -17 z m 293 213 b 278 251 282 213 278 215 l 278 563 b 293 603 278 600 282 603 b 308 563 304 603 308 600 l 308 251 b 293 213 308 215 304 213 z m 311 835 l 442 835 l 547 1043 l 360 1043 z m 136 835 l 263 835 l 339 1043 l 160 1043 z "},"ō":{"ha":586,"x_min":0,"x_max":0,"o":"m 293 -17 b 575 260 489 -17 575 64 l 575 543 b 293 824 575 736 481 824 b 11 543 114 824 11 738 l 11 260 b 293 -17 11 64 100 -17 z m 293 213 b 278 251 282 213 278 215 l 278 563 b 293 603 278 600 282 603 b 308 563 304 603 308 600 l 308 251 b 293 213 308 215 304 213 z m 153 839 l 433 839 l 433 1019 l 153 1019 z "},"ø":{"ha":596,"x_min":0,"x_max":0,"o":"m 303 -147 l 338 -15 b 581 260 506 -4 581 78 l 581 543 b 514 751 581 636 558 706 l 560 919 l 274 919 l 246 821 b 15 543 99 806 15 718 l 15 260 b 71 61 15 171 33 106 l 15 -147 z m 299 215 b 283 267 290 215 283 222 l 283 542 b 299 600 283 590 282 600 b 314 542 319 600 314 592 l 314 267 b 299 215 314 222 307 215 z "},"ǿ":{"ha":596,"x_min":0,"x_max":0,"o":"m 303 -147 l 338 -15 b 581 260 506 -4 581 78 l 581 543 b 514 751 581 636 558 706 l 560 919 l 274 919 l 246 821 b 15 543 99 806 15 718 l 15 260 b 71 61 15 171 33 106 l 15 -147 z m 299 215 b 283 267 290 215 283 222 l 283 542 b 299 600 283 590 282 600 b 314 542 319 600 314 592 l 314 267 b 299 215 314 222 307 215 z m 231 932 l 415 932 l 568 1140 l 328 1140 z "},"õ":{"ha":586,"x_min":0,"x_max":0,"o":"m 293 -17 b 575 260 489 -17 575 64 l 575 543 b 293 824 575 736 481 824 b 11 543 114 824 11 738 l 11 260 b 293 -17 11 64 100 -17 z m 293 213 b 278 251 282 213 278 215 l 278 563 b 293 603 278 600 282 603 b 308 563 304 603 308 600 l 308 251 b 293 213 308 215 304 213 z m 89 832 l 235 832 b 261 875 235 858 239 875 b 406 828 300 875 340 828 b 532 1069 496 828 532 871 l 382 1069 b 356 1033 382 1047 376 1033 b 215 1075 322 1033 282 1075 b 89 832 119 1075 88 1024 z "},"ŕ":{"ha":410,"x_min":0,"x_max":0,"o":"m 276 0 l 276 378 b 343 443 276 436 283 443 l 399 443 l 399 821 l 372 821 b 235 635 257 821 235 796 l 235 622 l 208 813 l 14 813 l 14 0 z m 138 832 l 322 832 l 475 1040 l 235 1040 z "},"ř":{"ha":410,"x_min":0,"x_max":0,"o":"m 276 0 l 276 378 b 343 443 276 436 283 443 l 399 443 l 399 821 l 372 821 b 235 635 257 821 235 796 l 235 622 l 208 813 l 14 813 l 14 0 z m 317 832 l 433 1053 l 267 1053 l 239 985 l 215 1053 l 42 1053 l 156 832 z "},"ŗ":{"ha":410,"x_min":0,"x_max":0,"o":"m 276 0 l 276 378 b 343 443 276 436 283 443 l 399 443 l 399 821 l 372 821 b 235 635 257 821 235 796 l 235 622 l 208 813 l 14 813 l 14 0 z m 14 -301 b 294 -140 211 -301 294 -271 b 147 -15 294 -32 260 -15 b 1 -108 32 -15 1 -33 b 129 -197 1 -187 32 -197 b 176 -193 146 -197 161 -196 b 14 -231 164 -226 110 -231 z "},"ś":{"ha":582,"x_min":0,"x_max":0,"o":"m 292 -18 b 576 243 511 -18 576 85 l 576 250 b 378 510 576 381 528 443 b 274 589 288 551 274 561 l 274 594 b 294 625 274 617 279 625 b 315 579 311 625 315 615 l 315 544 l 576 544 l 576 597 b 288 826 576 732 507 826 b 7 588 101 826 7 743 l 7 581 b 197 335 7 457 56 401 b 315 238 303 286 315 279 b 293 204 315 210 310 204 b 274 235 279 204 274 214 l 274 293 l 3 293 l 3 215 b 292 -18 3 64 71 -18 z m 196 843 l 381 843 l 533 1051 l 293 1051 z "},"š":{"ha":582,"x_min":0,"x_max":0,"o":"m 292 -18 b 576 243 511 -18 576 85 l 576 250 b 378 510 576 381 528 443 b 274 589 288 551 274 561 l 274 594 b 294 625 274 617 279 625 b 315 579 311 625 315 615 l 315 544 l 576 544 l 576 597 b 288 826 576 732 507 826 b 7 588 101 826 7 743 l 7 581 b 197 335 7 457 56 401 b 315 238 303 286 315 279 b 293 204 315 210 310 204 b 274 235 279 204 274 214 l 274 293 l 3 293 l 3 215 b 292 -18 3 64 71 -18 z m 375 843 l 492 1064 l 325 1064 l 297 996 l 274 1064 l 100 1064 l 214 843 z "},"ş":{"ha":582,"x_min":0,"x_max":0,"o":"m 293 -319 b 501 -167 422 -319 501 -262 b 368 -37 501 -71 451 -44 l 368 -12 b 576 243 526 8 576 104 l 576 250 b 378 510 576 381 528 443 b 274 589 288 551 274 561 l 274 594 b 294 625 274 617 279 625 b 315 579 311 625 315 615 l 315 544 l 576 544 l 576 597 b 288 826 576 732 507 826 b 7 588 101 826 7 743 l 7 581 b 197 335 7 457 56 401 b 315 238 303 286 315 279 b 293 204 315 210 310 204 b 274 235 279 204 274 214 l 274 293 l 3 293 l 3 215 b 211 -14 3 85 54 6 l 211 -139 l 301 -139 b 329 -160 318 -139 329 -144 b 299 -181 329 -171 321 -181 b 261 -153 279 -181 268 -172 l 71 -153 b 293 -319 88 -275 175 -319 z "},"ŝ":{"ha":582,"x_min":0,"x_max":0,"o":"m 292 -18 b 576 243 511 -18 576 85 l 576 250 b 378 510 576 381 528 443 b 274 589 288 551 274 561 l 274 594 b 294 625 274 617 279 625 b 315 579 311 625 315 615 l 315 544 l 576 544 l 576 597 b 288 826 576 732 507 826 b 7 588 101 826 7 743 l 7 581 b 197 335 7 457 56 401 b 315 238 303 286 315 279 b 293 204 315 210 310 204 b 274 235 279 204 274 214 l 274 293 l 3 293 l 3 215 b 292 -18 3 64 71 -18 z m 322 842 l 493 842 l 381 1063 l 219 1063 l 106 842 l 271 842 l 299 908 z "},"ș":{"ha":582,"x_min":0,"x_max":0,"o":"m 292 -18 b 576 243 511 -18 576 85 l 576 250 b 378 510 576 381 528 443 b 274 589 288 551 274 561 l 274 594 b 294 625 274 617 279 625 b 315 579 311 625 315 615 l 315 544 l 576 544 l 576 597 b 288 826 576 732 507 826 b 7 588 101 826 7 743 l 7 581 b 197 335 7 457 56 401 b 315 238 303 286 315 279 b 293 204 315 210 310 204 b 274 235 279 204 274 214 l 274 293 l 3 293 l 3 215 b 292 -18 3 64 71 -18 z m 167 -319 b 447 -158 364 -319 447 -289 b 300 -33 447 -50 413 -33 b 154 -126 185 -33 154 -51 b 282 -215 154 -206 185 -215 b 329 -211 299 -215 314 -214 b 167 -249 317 -244 263 -249 z "},"ŧ":{"ha":419,"x_min":0,"x_max":0,"o":"m 413 256 l 397 256 b 339 319 353 256 339 260 l 339 339 l 396 339 l 396 472 l 339 472 l 339 544 l 413 544 l 413 813 l 339 813 l 339 956 l 108 956 b 99 860 108 911 108 890 b 50 808 88 826 75 817 b 3 801 35 803 21 801 l 3 544 l 64 544 l 64 472 l 15 472 l 15 339 l 64 339 l 64 232 b 313 0 64 51 131 0 l 413 0 z "},"ť":{"ha":406,"x_min":0,"x_max":0,"o":"m 397 260 l 383 260 b 328 318 333 260 328 267 l 328 542 l 397 542 l 397 813 l 328 813 l 328 956 l 90 956 b 82 843 90 897 89 868 b 56 811 78 828 71 817 b 6 806 44 807 32 806 l 6 542 l 61 542 l 61 228 b 299 0 61 47 117 0 l 397 0 z m 340 947 l 411 947 l 510 1178 l 382 1178 z "},"ţ":{"ha":406,"x_min":0,"x_max":0,"o":"m 397 260 l 383 260 b 328 318 333 260 328 267 l 328 542 l 397 542 l 397 813 l 328 813 l 328 956 l 90 956 b 82 843 90 897 89 868 b 56 811 78 828 71 817 b 6 806 44 807 32 806 l 6 542 l 61 542 l 61 228 b 299 0 61 47 117 0 l 397 0 z m 83 -301 b 364 -140 281 -301 364 -271 b 217 -15 364 -32 329 -15 b 71 -108 101 -15 71 -33 b 199 -197 71 -187 101 -197 b 246 -193 215 -197 231 -196 b 83 -231 233 -226 179 -231 z "},"ú":{"ha":593,"x_min":0,"x_max":0,"o":"m 360 0 l 579 0 l 579 813 l 311 813 l 311 267 b 296 222 311 233 310 222 b 283 264 285 222 283 229 l 283 813 l 13 813 l 13 218 b 188 -12 13 54 63 -12 b 331 107 271 -12 314 25 z m 196 829 l 381 829 l 533 1038 l 293 1038 z "},"ŭ":{"ha":593,"x_min":0,"x_max":0,"o":"m 360 0 l 579 0 l 579 813 l 311 813 l 311 267 b 296 222 311 233 310 222 b 283 264 285 222 283 229 l 283 813 l 13 813 l 13 218 b 188 -12 13 54 63 -12 b 331 107 271 -12 314 25 z m 297 828 b 482 1031 426 828 482 881 l 319 1031 b 297 983 319 988 317 983 b 274 1031 275 983 274 986 l 111 1031 b 297 828 111 883 164 828 z "},"û":{"ha":593,"x_min":0,"x_max":0,"o":"m 360 0 l 579 0 l 579 813 l 311 813 l 311 267 b 296 222 311 233 310 222 b 283 264 285 222 283 229 l 283 813 l 13 813 l 13 218 b 188 -12 13 54 63 -12 b 331 107 271 -12 314 25 z m 322 829 l 493 829 l 381 1050 l 219 1050 l 106 829 l 271 829 l 299 896 z "},"ü":{"ha":593,"x_min":0,"x_max":0,"o":"m 360 0 l 579 0 l 579 813 l 311 813 l 311 267 b 296 222 311 233 310 222 b 283 264 285 222 283 229 l 283 813 l 13 813 l 13 218 b 188 -12 13 54 63 -12 b 331 107 271 -12 314 25 z m 186 828 b 286 928 264 828 286 850 b 186 1039 286 1014 263 1039 b 90 928 114 1039 90 1014 b 186 828 90 847 107 828 z m 403 828 b 503 928 479 828 503 850 b 403 1039 503 1014 476 1039 b 307 928 326 1039 307 1014 b 403 828 307 847 322 828 z "},"ù":{"ha":593,"x_min":0,"x_max":0,"o":"m 360 0 l 579 0 l 579 813 l 311 813 l 311 267 b 296 222 311 233 310 222 b 283 264 285 222 283 229 l 283 813 l 13 813 l 13 218 b 188 -12 13 54 63 -12 b 331 107 271 -12 314 25 z m 231 829 l 397 829 l 328 1038 l 88 1038 z "},"ű":{"ha":593,"x_min":0,"x_max":0,"o":"m 360 0 l 579 0 l 579 813 l 311 813 l 311 267 b 296 222 311 233 310 222 b 283 264 285 222 283 229 l 283 813 l 13 813 l 13 218 b 188 -12 13 54 63 -12 b 331 107 271 -12 314 25 z m 314 829 l 444 829 l 550 1038 l 363 1038 z m 139 829 l 265 829 l 342 1038 l 163 1038 z "},"ū":{"ha":593,"x_min":0,"x_max":0,"o":"m 360 0 l 579 0 l 579 813 l 311 813 l 311 267 b 296 222 311 233 310 222 b 283 264 285 222 283 229 l 283 813 l 13 813 l 13 218 b 188 -12 13 54 63 -12 b 331 107 271 -12 314 25 z m 156 829 l 436 829 l 436 1010 l 156 1010 z "},"ų":{"ha":593,"x_min":0,"x_max":0,"o":"m 667 -97 l 471 -97 b 451 -142 472 -133 463 -142 b 440 -128 444 -142 440 -139 b 579 0 440 -118 440 -101 l 579 813 l 311 813 l 311 267 b 296 222 311 233 310 222 b 283 264 285 222 283 229 l 283 813 l 13 813 l 13 218 b 188 -12 13 54 63 -12 b 331 107 271 -12 314 25 l 354 22 b 256 -142 275 -40 256 -87 b 443 -296 256 -243 317 -296 b 667 -97 575 -296 653 -233 z "},"ů":{"ha":593,"x_min":0,"x_max":0,"o":"m 360 0 l 579 0 l 579 813 l 311 813 l 311 267 b 296 222 311 233 310 222 b 283 264 285 222 283 229 l 283 813 l 13 813 l 13 218 b 188 -12 13 54 63 -12 b 331 107 271 -12 314 25 z m 297 828 b 472 978 410 828 472 885 b 297 1132 472 1075 401 1132 b 122 975 200 1132 122 1082 b 297 828 122 879 190 828 z m 299 961 b 276 979 281 961 276 968 b 299 999 276 989 281 999 b 321 979 317 999 321 989 b 299 961 321 969 317 961 z "},"ũ":{"ha":593,"x_min":0,"x_max":0,"o":"m 360 0 l 579 0 l 579 813 l 311 813 l 311 267 b 296 222 311 233 310 222 b 283 264 285 222 283 229 l 283 813 l 13 813 l 13 218 b 188 -12 13 54 63 -12 b 331 107 271 -12 314 25 z m 76 829 l 222 829 b 249 872 222 856 226 872 b 393 825 288 872 328 825 b 519 1067 483 825 519 868 l 369 1067 b 343 1031 369 1044 364 1031 b 203 1072 310 1031 269 1072 b 76 829 107 1072 75 1021 z "},"ẃ":{"ha":867,"x_min":0,"x_max":0,"o":"m 428 251 l 438 496 l 442 251 l 476 0 l 792 0 l 883 813 l 628 813 l 603 475 l 601 229 l 590 474 l 567 813 l 315 813 l 285 471 l 269 225 l 272 476 l 256 813 l -17 813 l 71 0 l 404 0 z m 340 829 l 525 829 l 678 1038 l 438 1038 z "},"ŵ":{"ha":867,"x_min":0,"x_max":0,"o":"m 428 251 l 438 496 l 442 251 l 476 0 l 792 0 l 883 813 l 628 813 l 603 475 l 601 229 l 590 474 l 567 813 l 315 813 l 285 471 l 269 225 l 272 476 l 256 813 l -17 813 l 71 0 l 404 0 z m 467 829 l 638 829 l 525 1050 l 364 1050 l 250 829 l 415 829 l 443 896 z "},"ẅ":{"ha":867,"x_min":0,"x_max":0,"o":"m 428 251 l 438 496 l 442 251 l 476 0 l 792 0 l 883 813 l 628 813 l 603 475 l 601 229 l 590 474 l 567 813 l 315 813 l 285 471 l 269 225 l 272 476 l 256 813 l -17 813 l 71 0 l 404 0 z m 331 828 b 431 928 408 828 431 850 b 331 1039 431 1014 407 1039 b 235 928 258 1039 235 1014 b 331 828 235 847 251 828 z m 547 828 b 647 928 624 828 647 850 b 547 1039 647 1014 621 1039 b 451 928 471 1039 451 1014 b 547 828 451 847 467 828 z "},"ẁ":{"ha":867,"x_min":0,"x_max":0,"o":"m 428 251 l 438 496 l 442 251 l 476 0 l 792 0 l 883 813 l 628 813 l 603 475 l 601 229 l 590 474 l 567 813 l 315 813 l 285 471 l 269 225 l 272 476 l 256 813 l -17 813 l 71 0 l 404 0 z m 363 829 l 529 829 l 460 1038 l 219 1038 z "},"ý":{"ha":589,"x_min":0,"x_max":0,"o":"m 135 -271 b 454 3 346 -271 407 -247 l 606 813 l 335 813 l 310 614 l 297 275 l 290 615 l 264 813 l -17 813 l 151 21 b 93 -22 146 -19 138 -22 l 36 -22 l 36 -271 z m 185 831 l 369 831 l 522 1039 l 282 1039 z "},"ŷ":{"ha":589,"x_min":0,"x_max":0,"o":"m 135 -271 b 454 3 346 -271 407 -247 l 606 813 l 335 813 l 310 614 l 297 275 l 290 615 l 264 813 l -17 813 l 151 21 b 93 -22 146 -19 138 -22 l 36 -22 l 36 -271 z m 326 831 l 497 831 l 385 1051 l 224 1051 l 110 831 l 275 831 l 303 897 z "},"ÿ":{"ha":589,"x_min":0,"x_max":0,"o":"m 135 -271 b 454 3 346 -271 407 -247 l 606 813 l 335 813 l 310 614 l 297 275 l 290 615 l 264 813 l -17 813 l 151 21 b 93 -22 146 -19 138 -22 l 36 -22 l 36 -271 z m 190 829 b 290 929 268 829 290 851 b 190 1040 290 1015 267 1040 b 94 929 118 1040 94 1015 b 190 829 94 849 111 829 z m 407 829 b 507 929 483 829 507 851 b 407 1040 507 1015 481 1040 b 311 929 331 1040 311 1015 b 407 829 311 849 326 829 z "},"ỳ":{"ha":589,"x_min":0,"x_max":0,"o":"m 135 -271 b 454 3 346 -271 407 -247 l 606 813 l 335 813 l 310 614 l 297 275 l 290 615 l 264 813 l -17 813 l 151 21 b 93 -22 146 -19 138 -22 l 36 -22 l 36 -271 z m 219 831 l 386 831 l 317 1039 l 76 1039 z "},"ĳ":{"ha":619,"x_min":0,"x_max":0,"o":"m 154 793 b 297 915 257 793 297 819 b 154 1035 297 1011 258 1035 b 10 915 47 1035 10 1011 b 154 793 10 815 44 793 z m 463 793 b 606 915 565 793 606 819 b 463 1035 606 1011 569 1035 b 321 915 357 1035 321 1011 b 463 793 321 815 354 793 z m 15 0 l 294 0 l 294 806 b 154 772 268 785 236 772 b 15 804 72 772 42 783 z m 15 -267 l 344 -267 b 606 -29 551 -267 606 -219 l 606 806 b 463 772 576 785 544 772 b 322 804 381 772 351 783 l 322 0 b 293 -26 322 -24 314 -26 l 15 -26 z "},"ź":{"ha":450,"x_min":0,"x_max":0,"o":"m 442 0 l 442 244 l 301 244 l 442 596 l 442 813 l 8 813 l 8 581 l 156 581 l 8 213 l 8 0 z m 110 829 l 294 829 l 447 1038 l 207 1038 z "},"ž":{"ha":450,"x_min":0,"x_max":0,"o":"m 442 0 l 442 244 l 301 244 l 442 596 l 442 813 l 8 813 l 8 581 l 156 581 l 8 213 l 8 0 z m 308 829 l 425 1050 l 258 1050 l 231 982 l 207 1050 l 33 1050 l 147 829 z "},"ż":{"ha":450,"x_min":0,"x_max":0,"o":"m 442 0 l 442 244 l 301 244 l 442 596 l 442 813 l 8 813 l 8 581 l 156 581 l 8 213 l 8 0 z m 225 828 b 353 951 324 828 353 844 b 225 1078 353 1061 322 1078 b 100 951 128 1078 100 1061 b 225 828 100 842 122 828 z "},"þ":{"ha":594,"x_min":0,"x_max":0,"o":"m 292 213 b 278 268 283 213 278 213 l 278 526 b 293 603 278 596 279 603 b 308 535 307 603 308 593 l 308 282 b 292 213 308 214 304 213 z m 403 -11 b 579 304 536 -11 579 82 l 579 535 b 415 822 579 754 517 822 b 278 722 346 822 301 792 l 278 1067 l 11 1067 l 11 -244 l 278 -244 l 278 96 b 403 -11 289 32 321 -11 z "},"ª":{"ha":433,"x_min":0,"x_max":0,"o":"m 214 578 b 201 596 204 578 201 585 l 201 653 b 204 679 201 672 201 675 b 218 690 207 683 211 686 b 226 700 222 693 225 696 l 226 599 b 214 578 226 585 224 578 z m 267 460 l 418 460 l 418 857 b 225 1017 418 963 363 1017 b 17 858 86 1017 17 960 l 17 790 l 206 790 l 206 851 b 217 874 206 869 208 874 b 226 858 224 874 226 869 l 226 814 b 165 772 226 782 219 779 b 53 740 114 765 79 757 b 8 640 25 722 8 694 l 8 579 b 138 450 8 486 47 450 b 240 524 199 450 228 474 z "},"º":{"ha":419,"x_min":0,"x_max":0,"o":"m 207 453 b 415 646 336 453 415 510 l 415 824 b 210 1017 415 954 332 1017 b 3 824 89 1017 3 956 l 3 646 b 207 453 3 511 75 453 z m 210 618 b 199 651 200 618 199 621 l 199 821 b 210 857 199 851 200 857 b 221 821 218 857 221 853 l 221 651 b 210 618 221 619 217 618 z "},"&":{"ha":786,"x_min":0,"x_max":0,"o":"m 635 -17 b 779 21 710 -17 749 -1 l 779 238 b 690 203 756 218 731 203 b 779 493 746 283 779 383 l 779 574 l 567 574 l 567 531 b 529 350 567 460 553 399 b 508 396 522 364 515 379 b 463 506 492 435 476 471 b 646 799 594 583 646 653 l 646 814 b 404 1021 646 954 558 1021 b 168 772 268 1021 168 942 l 168 760 b 193 579 168 706 176 644 b 7 272 93 524 7 449 l 7 236 b 301 -15 7 69 117 -15 b 493 31 367 -15 433 1 b 635 -17 538 -1 585 -17 z m 393 768 l 393 783 b 414 828 393 819 401 828 b 431 792 426 828 431 819 l 431 785 b 403 689 431 742 421 715 b 393 768 396 718 393 744 z m 340 208 b 269 288 293 208 269 235 l 269 356 b 301 288 279 333 290 310 b 344 208 315 260 331 233 z "},"´":{"ha":435,"x_min":0,"x_max":0,"o":"m 25 856 l 210 856 l 363 1064 l 122 1064 z "},"˘":{"ha":435,"x_min":0,"x_max":0,"o":"m 215 854 b 400 1057 344 854 400 907 l 238 1057 b 215 1010 238 1014 235 1010 b 192 1057 193 1010 192 1013 l 29 1057 b 215 854 29 910 82 854 z "},"ˇ":{"ha":435,"x_min":0,"x_max":0,"o":"m 296 856 l 413 1076 l 246 1076 l 218 1008 l 194 1076 l 21 1076 l 135 856 z "},"¸":{"ha":435,"x_min":0,"x_max":0,"o":"m 225 -317 b 433 -164 354 -317 433 -260 b 300 -35 433 -68 383 -42 l 300 26 l 143 26 l 143 -136 l 233 -136 b 261 -157 250 -136 261 -142 b 231 -178 261 -168 253 -178 b 193 -150 211 -178 200 -169 l 3 -150 b 225 -317 19 -272 107 -317 z "},"ˆ":{"ha":435,"x_min":0,"x_max":0,"o":"m 239 856 l 410 856 l 297 1076 l 136 1076 l 22 856 l 188 856 l 215 922 z "},"¨":{"ha":432,"x_min":0,"x_max":0,"o":"m 106 854 b 206 954 183 854 206 876 b 106 1065 206 1040 182 1065 b 10 954 33 1065 10 1040 b 106 854 10 874 26 854 z m 322 854 b 422 954 399 854 422 876 b 322 1065 422 1040 396 1065 b 226 954 246 1065 226 1040 b 322 854 226 874 242 854 z "},"˙":{"ha":433,"x_min":0,"x_max":0,"o":"m 219 854 b 347 978 318 854 347 871 b 219 1104 347 1088 317 1104 b 94 978 122 1104 94 1088 b 219 854 94 868 117 854 z "},"`":{"ha":435,"x_min":0,"x_max":0,"o":"m 164 856 l 331 856 l 261 1064 l 21 1064 z "},"˝":{"ha":435,"x_min":0,"x_max":0,"o":"m 219 856 l 350 856 l 456 1064 l 268 1064 z m 44 856 l 171 856 l 247 1064 l 68 1064 z "},"¯":{"ha":435,"x_min":0,"x_max":0,"o":"m 76 856 l 357 856 l 357 1036 l 76 1036 z "},"˛":{"ha":435,"x_min":0,"x_max":0,"o":"m 203 -296 b 426 -97 335 -296 413 -233 l 231 -97 b 211 -142 232 -133 222 -142 b 200 -128 204 -142 200 -139 b 339 0 200 -118 200 -101 l 183 71 b 15 -142 44 -17 15 -75 b 203 -296 15 -243 76 -296 z "},"˚":{"ha":435,"x_min":0,"x_max":0,"o":"m 219 854 b 394 1004 332 854 394 911 b 219 1158 394 1101 324 1158 b 44 1001 122 1158 44 1108 b 219 854 44 906 113 854 z m 221 988 b 199 1006 203 988 199 994 b 221 1025 199 1015 203 1025 b 243 1006 239 1025 243 1015 b 221 988 243 996 239 988 z "},"˜":{"ha":435,"x_min":0,"x_max":0,"o":"m 3 856 l 149 856 b 175 899 149 882 153 899 b 319 851 214 899 254 851 b 446 1093 410 851 446 894 l 296 1093 b 269 1057 296 1071 290 1057 b 129 1099 236 1057 196 1099 b 3 856 33 1099 1 1047 z "},".":{"ha":329,"x_min":0,"x_max":0,"o":"m 164 -11 b 325 165 290 -11 325 15 b 165 338 325 313 292 338 b 4 165 40 338 4 313 b 164 -11 4 14 33 -11 z "},",":{"ha":332,"x_min":0,"x_max":0,"o":"m 328 132 b 167 338 328 313 294 338 b 4 165 42 338 4 304 b 131 -6 4 29 35 -6 b 147 -4 136 -6 142 -6 b 32 -65 135 -50 101 -68 l 31 -190 b 328 132 253 -201 328 -89 z "},":":{"ha":328,"x_min":0,"x_max":0,"o":"m 164 350 b 325 525 290 350 325 376 b 165 699 325 674 292 699 b 4 525 40 699 4 674 b 164 350 4 375 33 350 z m 164 -11 b 325 165 290 -11 325 15 b 165 338 325 313 292 338 b 4 165 40 338 4 313 b 164 -11 4 14 33 -11 z "},";":{"ha":329,"x_min":0,"x_max":0,"o":"m 164 350 b 325 525 290 350 325 376 b 165 699 325 674 292 699 b 4 525 40 699 4 674 b 164 350 4 375 33 350 z m 328 132 b 167 338 328 313 294 338 b 4 165 42 338 4 304 b 131 -6 4 29 35 -6 b 147 -4 136 -6 142 -6 b 32 -65 135 -50 101 -68 l 31 -190 b 328 132 253 -201 328 -89 z "},"…":{"ha":914,"x_min":0,"x_max":0,"o":"m 150 -11 b 296 165 264 -11 296 15 b 150 338 296 313 265 338 b 4 165 38 338 4 313 b 150 -11 4 14 31 -11 z m 457 -11 b 603 165 571 -11 603 15 b 457 338 603 313 572 338 b 311 165 344 338 311 313 b 457 -11 311 14 338 -11 z m 764 -11 b 910 165 878 -11 910 15 b 764 338 910 313 879 338 b 618 165 651 338 618 313 b 764 -11 618 14 644 -11 z "},"!":{"ha":326,"x_min":0,"x_max":0,"o":"m 63 294 b 165 306 81 301 115 306 b 267 294 213 306 246 301 b 315 683 282 311 315 492 l 315 1000 l 11 1000 l 11 683 b 63 294 11 488 46 311 z m 164 -11 b 319 139 288 -11 319 14 b 164 286 319 263 288 286 b 7 139 35 286 7 263 b 164 -11 7 13 35 -11 z "},"¡":{"ha":326,"x_min":0,"x_max":0,"o":"m 164 831 b 7 681 35 831 7 807 b 164 533 7 557 35 533 b 319 681 288 533 319 557 b 164 831 319 806 288 831 z m 267 525 b 165 514 246 518 213 514 b 63 525 115 514 81 518 b 11 136 46 508 11 332 l 11 -181 l 315 -181 l 315 136 b 267 525 315 328 282 508 z "},"?":{"ha":597,"x_min":0,"x_max":0,"o":"m 154 264 b 281 288 172 278 210 288 b 403 265 350 288 381 279 l 407 344 b 486 429 411 374 417 385 b 588 613 575 486 588 494 l 588 790 b 297 1018 588 925 507 1018 b 10 776 94 1018 10 929 l 10 585 l 283 585 l 283 767 b 297 790 283 785 288 790 b 310 769 307 790 310 786 l 310 608 b 253 544 310 585 297 572 b 150 400 164 490 150 458 l 150 394 b 154 264 150 358 151 308 z m 281 -11 b 429 126 396 -11 429 13 b 281 264 429 243 396 264 b 132 126 164 264 132 243 b 281 -11 132 11 160 -11 z "},"¿":{"ha":597,"x_min":0,"x_max":0,"o":"m 317 831 b 168 693 201 831 168 807 b 317 556 168 576 201 556 b 465 693 433 556 465 576 b 317 831 465 808 438 831 z m 443 556 b 317 532 425 542 388 532 b 194 554 247 532 217 540 l 190 475 b 111 390 186 446 181 435 b 10 207 22 333 10 325 l 10 29 b 300 -199 10 -106 90 -199 b 588 43 503 -199 588 -110 l 588 235 l 314 235 l 314 53 b 300 29 314 35 310 29 b 288 50 290 29 288 33 l 288 211 b 344 275 288 235 300 247 b 447 419 433 329 447 361 l 447 425 b 443 556 447 461 446 511 z "},"‽":{"ha":688,"x_min":0,"x_max":0,"o":"m 439 288 l 446 351 b 676 622 463 460 676 449 l 676 757 b 349 1017 676 922 578 1017 b 10 729 103 1017 10 897 l 10 465 l 232 465 l 232 731 b 254 800 232 761 239 783 l 254 633 b 263 324 254 451 260 354 b 269 289 264 310 264 297 b 354 299 289 296 314 299 b 439 288 393 299 417 296 z m 435 633 l 435 806 b 458 740 453 790 458 768 l 458 633 b 433 554 458 600 449 583 b 435 633 435 579 435 606 z m 354 -11 b 504 126 472 -11 504 13 b 354 264 504 243 472 264 b 207 126 238 264 207 243 b 354 -11 207 11 233 -11 z "},"⸘":{"ha":688,"x_min":0,"x_max":0,"o":"m 332 831 b 182 693 214 831 182 807 b 332 556 182 576 214 556 b 479 693 449 556 479 576 b 332 831 479 808 453 831 z m 338 -197 b 676 90 583 -197 676 -78 l 676 354 l 454 354 l 454 89 b 432 19 454 58 447 36 l 432 186 b 424 496 432 368 426 465 b 417 531 422 510 422 522 b 332 521 397 524 372 521 b 247 532 293 521 269 524 l 240 468 b 10 197 224 360 10 371 l 10 63 b 338 -197 10 -103 108 -197 z m 228 79 l 228 186 b 253 265 228 219 238 236 b 251 186 251 240 251 214 l 251 14 b 228 79 233 29 228 51 z "},"‘":{"ha":332,"x_min":0,"x_max":0,"o":"m 328 660 b 201 829 328 794 297 829 b 185 828 196 829 190 829 b 300 889 197 874 231 892 l 301 1014 b 4 693 79 1025 4 913 b 165 488 4 511 38 488 b 328 660 290 488 328 519 z "},"’":{"ha":332,"x_min":0,"x_max":0,"o":"m 328 801 b 167 1008 328 983 294 1008 b 4 835 42 1008 4 975 b 131 665 4 700 35 665 b 147 667 136 665 142 665 b 32 606 135 621 101 603 l 31 482 b 328 801 253 471 328 582 z "},"“":{"ha":546,"x_min":0,"x_max":0,"o":"m 136 569 b 265 711 236 569 265 596 b 161 844 265 828 236 844 l 149 844 b 246 901 156 883 182 901 l 246 1014 b 7 743 83 1017 7 922 b 136 569 7 594 36 569 z m 411 569 b 542 711 510 569 542 596 b 435 844 542 828 510 844 l 422 844 b 519 901 431 883 457 901 l 519 1014 b 283 743 357 1017 283 922 b 411 569 283 594 311 569 z "},"”":{"ha":546,"x_min":0,"x_max":0,"o":"m 540 835 b 411 1008 540 983 511 1008 b 282 867 311 1008 282 982 b 386 733 282 750 311 733 l 399 733 b 301 676 392 694 365 676 l 301 564 b 540 835 464 561 540 656 z m 264 835 b 136 1008 264 983 236 1008 b 6 867 38 1008 6 982 b 113 733 6 750 38 733 l 125 733 b 28 676 117 694 90 676 l 28 564 b 264 835 190 561 264 656 z "},"‚":{"ha":268,"x_min":0,"x_max":0,"o":"m 263 96 b 135 268 263 243 235 268 b 6 126 35 268 6 243 b 110 -8 6 7 35 -8 l 122 -8 b 25 -67 115 -49 89 -67 l 25 -178 b 263 96 188 -182 263 -86 z "},"„":{"ha":546,"x_min":0,"x_max":0,"o":"m 540 96 b 411 268 540 244 511 268 b 282 128 311 268 282 243 b 386 -7 282 10 311 -7 l 399 -7 b 301 -64 392 -46 365 -64 l 301 -176 b 540 96 464 -179 540 -85 z m 264 96 b 136 268 264 244 236 268 b 6 128 38 268 6 243 b 113 -7 6 10 38 -7 l 125 -7 b 28 -64 117 -46 90 -64 l 28 -176 b 264 96 190 -179 264 -85 z "},"‛":{"ha":332,"x_min":0,"x_max":0,"o":"m 301 490 l 300 614 b 185 675 231 611 197 629 b 201 674 190 674 196 674 b 328 843 297 674 328 708 b 169 1017 328 983 294 1017 b 4 810 42 1017 4 975 b 301 490 4 590 79 479 z "},"‟":{"ha":549,"x_min":0,"x_max":0,"o":"m 246 564 l 246 676 b 149 733 182 676 156 694 l 161 733 b 265 867 236 733 265 750 b 138 1008 265 982 238 1008 b 7 824 46 1008 7 976 b 246 564 7 644 83 561 z m 519 564 l 519 676 b 422 733 457 676 431 694 l 435 733 b 542 867 510 733 542 750 b 413 1008 542 982 511 1008 b 283 824 321 1008 283 976 b 519 564 283 644 357 561 z "},"‹":{"ha":407,"x_min":0,"x_max":0,"o":"m 418 149 l 235 422 l 403 686 l 160 686 l -3 419 l -3 407 l 160 149 z "},"›":{"ha":407,"x_min":0,"x_max":0,"o":"m 249 149 l 411 407 l 411 419 l 249 686 l 6 686 l 174 422 l -10 149 z "},"«":{"ha":679,"x_min":0,"x_max":0,"o":"m 404 149 l 233 411 l 406 686 l 171 686 l -1 415 l -1 401 l 163 149 z m 686 149 l 506 419 l 678 686 l 436 686 l 271 425 l 271 403 l 439 149 z "},"»":{"ha":679,"x_min":0,"x_max":0,"o":"m 519 149 l 683 401 l 683 415 l 511 686 l 276 686 l 449 411 l 278 149 z m 243 149 l 411 403 l 411 425 l 246 686 l 4 686 l 176 419 l -4 149 z "},"/":{"ha":456,"x_min":0,"x_max":0,"o":"m -14 0 l 285 0 l 469 1000 l 172 1000 z "},"\\":{"ha":456,"x_min":0,"x_max":0,"o":"m 171 0 l 469 0 l 283 1000 l -14 1000 z "},"|":{"ha":294,"x_min":0,"x_max":0,"o":"m 14 -62 l 281 -62 l 281 1050 l 14 1050 z "},"‖":{"ha":554,"x_min":0,"x_max":0,"o":"m 14 -37 l 264 -37 l 264 1050 l 14 1050 z m 292 -37 l 540 -37 l 540 1050 l 292 1050 z "},"¦":{"ha":294,"x_min":0,"x_max":0,"o":"m 14 511 l 281 511 l 281 1050 l 14 1050 z m 14 -62 l 281 -62 l 281 488 l 14 488 z "},"•":{"ha":356,"x_min":0,"x_max":0,"o":"m 178 235 b 351 418 301 235 351 279 b 178 600 351 558 304 600 b 6 418 53 600 6 556 b 178 235 6 278 50 235 z "},"·":{"ha":303,"x_min":0,"x_max":0,"o":"m 153 254 b 299 411 267 254 299 278 b 153 569 299 550 267 569 b 6 411 39 569 6 550 b 153 254 6 274 35 254 z "},"-":{"ha":439,"x_min":0,"x_max":0,"o":"m 8 290 l 431 290 l 431 543 l 8 543 z "},"­":{"ha":439,"x_min":0,"x_max":0,"o":"m 8 290 l 431 290 l 431 543 l 8 543 z "},"–":{"ha":407,"x_min":0,"x_max":0,"o":"m 8 290 l 399 290 l 399 543 l 8 543 z "},"—":{"ha":588,"x_min":0,"x_max":0,"o":"m 8 290 l 579 290 l 579 543 l 8 543 z "},"‒":{"ha":608,"x_min":0,"x_max":0,"o":"m 8 290 l 600 290 l 600 543 l 8 543 z "},"―":{"ha":782,"x_min":0,"x_max":0,"o":"m 8 290 l 774 290 l 774 543 l 8 543 z "},"(":{"ha":382,"x_min":0,"x_max":0,"o":"m 374 -196 l 374 67 b 297 171 307 64 297 67 l 297 640 b 374 753 297 747 307 753 l 374 1007 b 14 649 88 1011 14 918 l 14 154 b 374 -196 14 -119 76 -199 z "},")":{"ha":382,"x_min":0,"x_max":0,"o":"m 8 -196 b 368 168 314 -199 368 -135 l 368 633 b 8 1006 368 940 321 1010 l 8 751 b 85 625 71 756 85 739 l 85 185 b 8 67 85 74 71 63 z "},"[":{"ha":374,"x_min":0,"x_max":0,"o":"m 365 63 l 283 63 l 283 749 l 365 749 l 365 1000 l 14 1000 l 14 -190 l 365 -190 z "},"]":{"ha":374,"x_min":0,"x_max":0,"o":"m 360 -190 l 360 1000 l 8 1000 l 8 749 l 90 749 l 90 63 l 8 63 l 8 -190 z "},"{":{"ha":372,"x_min":0,"x_max":0,"o":"m 186 -190 l 358 -190 l 358 32 l 335 32 b 289 63 301 32 289 38 b 361 258 289 119 361 164 b 214 383 361 339 326 382 l 214 417 b 363 542 325 418 363 463 b 281 747 363 640 281 692 b 333 776 281 768 297 776 l 358 776 l 358 1000 l 183 1000 b 7 838 56 1000 7 932 b 92 585 7 722 92 650 b 22 525 92 539 72 525 l 10 525 l 10 274 l 31 274 b 100 219 81 274 100 260 b 8 -28 100 154 8 88 b 186 -190 8 -122 57 -190 z "},"}":{"ha":372,"x_min":0,"x_max":0,"o":"m 14 -190 l 186 -190 b 364 -28 315 -190 364 -122 b 272 219 364 88 272 154 b 342 274 272 260 292 274 l 363 274 l 363 525 l 350 525 b 281 585 300 525 281 539 b 365 838 281 650 365 722 b 189 1000 365 932 317 1000 l 14 1000 l 14 776 l 39 776 b 92 747 75 776 92 768 b 10 542 92 692 10 640 b 158 417 10 463 47 418 l 158 383 b 11 258 46 382 11 339 b 83 63 11 164 83 119 b 38 32 83 38 71 32 l 14 32 z "},"〈":{"ha":401,"x_min":0,"x_max":0,"o":"m 410 -190 l 250 419 l 413 1000 l 143 1000 l -10 418 l 133 -190 z "},"〉":{"ha":401,"x_min":0,"x_max":0,"o":"m 267 -190 l 410 432 l 260 1000 l -11 1000 l 150 432 l -10 -190 z "},"*":{"ha":546,"x_min":0,"x_max":0,"o":"m 439 608 l 546 790 l 378 825 l 546 861 l 438 1046 l 328 922 l 379 1078 l 165 1078 l 219 918 l 106 1044 l 0 858 l 165 825 l 0 789 l 107 607 l 219 732 l 165 572 l 379 572 l 326 731 z "},"†":{"ha":682,"x_min":0,"x_max":0,"o":"m 671 538 l 671 808 l 475 808 l 475 1139 l 206 1139 l 206 808 l 11 808 l 11 538 l 206 538 l 206 -139 l 475 -139 l 475 538 z "},"‡":{"ha":688,"x_min":0,"x_max":0,"o":"m 676 179 l 676 442 l 481 442 l 481 567 l 676 567 l 676 828 l 481 828 l 481 1139 l 211 1139 l 211 828 l 11 828 l 11 567 l 211 567 l 211 442 l 11 442 l 11 179 l 211 179 l 211 -139 l 481 -139 l 481 179 z "},"§":{"ha":617,"x_min":0,"x_max":0,"o":"m 251 522 b 264 536 251 529 254 532 b 365 488 340 515 365 504 b 356 474 365 482 364 479 b 251 522 278 494 251 504 z m 317 -36 b 611 213 542 -36 611 46 l 611 217 b 436 453 611 328 579 411 b 454 451 443 451 449 451 b 613 572 540 451 613 493 b 406 735 613 664 550 696 b 282 811 294 764 282 774 l 282 818 b 308 846 282 839 290 846 b 335 817 326 846 335 839 l 335 765 l 607 765 l 607 822 b 318 1029 607 975 525 1029 b 8 789 79 1029 8 943 l 8 785 b 183 557 8 674 39 597 b 157 558 174 558 165 558 b 7 428 51 558 7 513 b 204 265 7 350 56 296 b 340 190 324 242 340 224 l 340 185 b 314 156 340 160 332 156 b 292 192 296 156 292 165 l 292 231 l 13 231 l 13 171 b 317 -36 13 18 92 -36 z "},"¶":{"ha":817,"x_min":0,"x_max":0,"o":"m 308 549 b 276 660 282 549 276 557 b 306 774 276 765 283 774 l 310 774 l 310 549 z m 543 0 l 543 774 l 571 774 l 571 0 l 803 0 l 803 1000 l 297 1000 b 7 667 85 1000 7 865 b 260 313 7 467 44 311 l 310 313 l 310 0 z "},"^":{"ha":517,"x_min":0,"x_max":0,"o":"m 303 619 l 521 619 l 371 1000 l 143 1000 l -4 619 l 210 619 l 256 765 z "},"~":{"ha":447,"x_min":0,"x_max":0,"o":"m 319 761 b 443 1000 406 761 443 803 l 294 1000 b 276 967 294 979 292 967 b 132 1006 251 967 197 1006 b 4 764 36 1006 4 954 l 153 764 b 169 807 153 790 153 807 b 319 761 206 807 254 761 z "},"_":{"ha":601,"x_min":0,"x_max":0,"o":"m 3 -283 l 599 -283 l 599 -78 l 3 -78 z "},"'":{"ha":250,"x_min":0,"x_max":0,"o":"m 36 656 l 214 656 b 243 975 225 708 243 850 l 243 1000 l 8 1000 l 8 975 b 36 656 8 850 25 707 z "},"\"":{"ha":497,"x_min":0,"x_max":0,"o":"m 36 656 l 214 656 b 243 975 225 708 243 850 l 243 1000 l 8 1000 l 8 975 b 36 656 8 850 25 706 z m 282 656 l 458 656 b 489 975 469 708 489 850 l 489 1000 l 254 1000 l 254 975 b 282 656 254 850 269 706 z "},"‴":{"ha":743,"x_min":0,"x_max":0,"o":"m 36 656 l 214 656 b 243 975 225 708 243 850 l 243 1000 l 8 1000 l 8 975 b 36 656 8 850 25 706 z m 282 656 l 458 656 b 489 975 469 708 489 850 l 489 1000 l 254 1000 l 254 975 b 282 656 254 850 269 706 z m 528 656 l 704 656 b 735 975 715 708 735 850 l 735 1000 l 500 1000 l 500 975 b 528 656 500 850 515 706 z "},"@":{"ha":725,"x_min":0,"x_max":0,"o":"m 367 -108 b 701 88 536 -108 644 -50 l 504 88 b 367 24 479 51 454 24 b 157 274 210 24 157 117 l 157 658 b 363 901 157 832 207 901 b 568 679 536 901 568 832 l 568 367 b 556 239 568 249 569 239 b 543 310 542 239 543 251 l 543 806 l 422 806 l 388 744 b 304 813 379 793 356 813 b 182 642 217 813 182 761 l 182 279 b 315 106 182 153 235 106 b 410 158 369 106 397 133 b 549 103 433 124 476 103 b 711 279 686 103 711 169 l 711 678 b 364 1032 711 906 599 1032 b 14 672 147 1032 14 914 l 14 257 b 367 -108 14 11 133 -108 z m 363 247 b 350 289 350 247 350 254 l 350 632 b 364 674 350 668 350 674 b 375 633 375 674 375 667 l 375 289 b 363 247 375 253 374 247 z "},"©":{"ha":828,"x_min":0,"x_max":0,"o":"m 418 -18 b 818 365 657 -18 818 140 l 818 629 b 413 1011 818 863 651 1011 b 10 619 185 1011 10 857 l 10 364 b 418 -18 10 117 174 -18 z m 418 153 b 190 372 268 153 190 225 l 190 611 b 413 840 190 753 278 840 b 640 622 568 840 640 760 l 640 372 b 418 153 640 229 554 153 z m 417 174 b 622 368 547 174 622 246 l 622 494 l 429 494 l 429 381 b 418 349 429 354 428 349 b 408 386 410 349 408 353 l 408 608 b 418 651 408 647 411 651 b 429 618 426 651 429 650 l 429 513 l 622 513 l 622 618 b 415 819 622 750 556 819 b 211 606 288 819 211 747 l 211 374 b 417 174 211 244 289 174 z "},"®":{"ha":472,"x_min":0,"x_max":0,"o":"m 240 522 b 465 746 369 522 465 600 l 465 774 b 238 1004 465 922 372 1004 b 7 771 101 1004 7 921 l 7 746 b 240 522 7 594 101 522 z m 240 613 b 100 750 142 613 100 649 l 100 765 b 238 922 100 868 143 922 b 376 768 332 922 376 871 l 376 750 b 342 640 376 697 365 663 b 339 653 340 643 339 649 l 339 682 b 315 742 339 713 332 731 b 350 803 339 754 350 775 b 247 889 350 865 318 889 l 142 889 l 142 639 l 228 639 l 228 708 b 253 675 247 708 253 703 l 253 654 b 260 639 253 649 254 642 l 339 639 b 240 613 317 621 285 613 z m 232 818 b 263 796 256 818 263 813 b 232 772 263 776 256 772 l 228 772 l 228 818 z "},"℗":{"ha":822,"x_min":0,"x_max":0,"o":"m 414 -18 b 799 365 678 -18 799 124 l 799 629 b 408 1011 799 892 664 1011 b 31 619 172 1011 31 890 l 31 364 b 414 -18 31 104 136 -18 z m 208 372 l 208 611 b 239 786 208 696 215 751 l 239 218 b 208 372 217 253 208 303 z m 408 657 b 428 638 424 657 428 649 l 428 501 b 410 486 428 494 421 486 l 406 486 l 406 657 z m 414 153 b 257 196 338 153 289 165 l 406 196 l 406 342 l 436 342 b 596 493 546 340 596 383 l 596 656 b 426 796 596 731 546 796 l 246 796 b 408 840 276 829 325 840 b 621 622 564 840 621 776 l 621 372 b 414 153 621 204 592 153 z "},"™":{"ha":619,"x_min":0,"x_max":0,"o":"m 260 867 l 260 1000 l 4 1000 l 4 867 l 64 867 l 64 579 l 203 579 l 203 867 z m 435 676 l 450 676 l 488 768 l 488 579 l 610 579 l 610 1000 l 489 1000 l 442 878 l 393 1000 l 272 1000 l 272 579 l 393 579 l 393 769 z "},"℠":{"ha":629,"x_min":0,"x_max":0,"o":"m 444 676 l 460 676 l 497 768 l 497 579 l 619 579 l 619 1000 l 499 1000 l 451 878 l 403 1000 l 282 1000 l 282 579 l 403 579 l 403 769 z m 138 567 b 272 683 225 567 272 606 l 272 733 b 176 844 272 799 240 821 b 133 872 138 860 133 863 l 133 908 b 139 915 133 914 136 915 b 147 900 146 915 147 910 l 147 863 l 271 863 l 271 896 b 142 1013 271 978 224 1013 b 6 900 44 1013 6 974 l 6 858 b 97 760 6 806 31 785 b 144 733 136 746 144 743 l 144 686 b 138 675 144 676 142 675 b 131 690 135 675 131 676 l 131 739 l 3 739 l 3 689 b 138 567 3 610 38 567 z "},"€":{"ha":665,"x_min":0,"x_max":0,"o":"m 653 278 l 653 360 l 375 360 l 375 288 b 361 233 375 238 372 233 b 346 288 347 233 346 238 l 346 382 l 517 382 l 543 500 l 346 500 l 346 522 l 547 522 l 572 642 l 346 642 l 346 725 b 361 779 346 775 346 779 b 375 725 371 779 375 776 l 375 663 l 653 663 l 653 725 b 368 1018 653 932 567 1018 b 71 725 179 1018 71 929 l 71 642 l 1 642 l 1 522 l 71 522 l 71 500 l 1 500 l 1 382 l 71 382 l 71 278 b 361 -15 71 61 178 -15 b 653 278 543 -15 653 69 z "},"$":{"ha":597,"x_min":0,"x_max":0,"o":"m 431 -126 l 431 -1 b 589 239 540 29 589 106 l 589 346 b 396 607 589 472 549 524 b 288 704 290 664 288 671 l 288 767 b 301 800 288 797 290 800 b 315 763 315 800 315 794 l 315 663 l 585 663 l 585 781 b 433 1001 585 899 531 971 l 433 1138 l 176 1138 l 176 1004 b 10 760 63 971 10 888 l 10 696 b 192 432 10 569 43 515 b 314 308 307 368 314 358 l 314 251 b 299 218 314 221 308 218 b 285 247 289 218 285 222 l 285 367 l 6 367 l 6 239 b 172 -6 6 101 53 22 l 172 -126 z "},"¢":{"ha":581,"x_min":0,"x_max":0,"o":"m 571 257 l 571 378 l 303 378 l 303 267 b 289 217 303 222 301 217 b 274 268 276 217 274 222 l 274 542 b 288 601 274 596 275 601 b 303 538 299 601 303 599 l 303 446 l 571 446 l 571 560 b 431 808 571 693 526 774 l 431 936 l 172 936 l 172 806 b 11 544 69 769 11 683 l 11 261 b 171 -1 11 114 65 31 l 171 -135 l 429 -135 l 429 4 b 571 257 529 40 571 124 z "},"£":{"ha":678,"x_min":0,"x_max":0,"o":"m 476 -12 b 674 221 607 -12 674 25 l 674 349 l 428 349 l 428 224 b 408 185 428 190 422 185 b 400 186 406 185 403 185 b 404 231 403 200 404 215 b 385 379 404 296 397 339 l 510 379 l 510 550 l 339 550 b 326 735 328 632 326 706 b 344 785 326 779 329 785 b 363 728 360 785 363 779 l 363 578 l 629 578 l 629 740 b 326 1015 629 924 564 1015 b 42 768 121 1015 42 928 b 113 550 43 683 71 617 l 40 550 l 40 379 l 217 379 b 247 308 232 356 242 333 b 161 331 224 322 194 331 b -3 158 67 331 -3 272 b 179 -12 -3 46 39 -12 b 318 36 233 -12 281 6 b 476 -12 357 8 407 -12 z m 178 136 b 157 156 165 136 157 142 b 175 171 157 165 165 171 b 213 144 188 171 199 160 b 178 136 203 139 192 136 z "},"ƒ":{"ha":363,"x_min":0,"x_max":0,"o":"m 317 -37 l 317 282 l 354 282 l 354 529 l 315 529 l 315 753 b 347 776 315 769 326 776 l 354 776 l 354 1004 l 303 1004 b 56 781 124 1004 56 944 l 56 529 l 8 529 l 8 282 l 56 282 l 56 -10 b 22 -43 56 -33 44 -43 l 7 -43 l 7 -264 l 68 -264 b 317 -37 239 -264 317 -201 z "},"¥":{"ha":590,"x_min":0,"x_max":0,"o":"m 576 78 l 576 207 l 435 207 l 435 229 l 576 229 l 576 358 l 450 358 l 613 1000 l 339 1000 l 301 793 l 296 578 l 286 793 l 253 1000 l -24 1000 l 132 358 l 14 358 l 14 229 l 153 229 l 153 207 l 14 207 l 14 78 l 153 78 l 153 0 l 435 0 l 435 78 z "},"₡":{"ha":606,"x_min":0,"x_max":0,"o":"m 254 -158 l 385 -158 l 403 -6 b 596 278 525 22 596 110 l 596 464 l 318 464 l 318 288 b 304 233 318 238 315 233 b 289 288 290 233 289 238 l 289 725 b 304 779 289 775 289 779 b 318 725 314 779 318 776 l 318 564 l 596 564 l 596 725 b 492 978 596 853 564 933 l 517 1132 l 390 1132 l 374 1015 b 335 1018 361 1017 349 1017 l 350 1132 l 221 1132 l 203 1006 b 14 725 82 975 14 886 l 14 278 b 114 32 14 153 49 75 l 90 -158 l 218 -158 l 239 -11 b 275 -15 250 -12 263 -14 z "},"₢":{"ha":724,"x_min":0,"x_max":0,"o":"m 715 276 l 715 369 l 483 369 l 483 288 b 461 217 483 257 476 233 l 461 361 b 504 399 461 393 463 399 l 621 399 l 621 617 l 579 617 b 449 526 486 617 458 585 l 417 617 l 271 617 l 271 231 b 247 346 254 256 247 293 l 247 633 b 367 790 247 751 282 790 b 479 689 446 790 479 751 l 479 647 l 715 647 l 715 728 b 369 1001 715 882 607 1001 b 11 644 139 1001 11 872 l 11 339 b 375 -17 11 115 133 -17 b 715 276 588 -17 715 83 z "},"₣":{"ha":465,"x_min":0,"x_max":0,"o":"m 453 122 l 453 350 l 282 350 l 282 375 l 453 375 l 453 603 l 282 603 l 282 731 l 453 731 l 453 1000 l 14 1000 l 14 0 l 282 0 l 282 122 z "},"₤":{"ha":678,"x_min":0,"x_max":0,"o":"m 476 -12 b 661 221 607 -12 661 25 l 661 321 l 406 321 l 406 239 b 379 186 406 197 401 186 b 368 188 375 186 372 186 b 379 290 375 218 379 253 b 376 347 379 307 378 326 l 531 347 l 531 463 l 361 463 b 358 485 360 469 358 478 l 531 485 l 531 601 l 340 601 b 326 735 332 654 326 701 b 344 785 326 779 329 785 b 363 728 360 785 363 779 l 363 629 l 629 629 l 629 740 b 326 1015 629 924 564 1015 b 42 768 121 1015 42 928 b 85 601 43 704 60 650 l 24 601 l 24 485 l 156 485 b 169 463 160 478 165 469 l 24 463 l 24 347 l 229 347 b 243 265 238 321 243 294 l 243 258 b 156 281 219 271 192 281 b -4 132 54 281 -4 228 b 161 -12 -4 39 46 -12 b 301 49 217 -12 264 10 b 476 -12 350 15 408 -12 z m 154 124 b 138 139 144 124 138 128 b 153 153 138 147 144 153 b 194 132 164 153 178 144 b 154 124 182 126 169 124 z "},"₦":{"ha":732,"x_min":0,"x_max":0,"o":"m 301 272 l 264 607 l 386 0 l 679 0 l 679 290 l 732 290 l 732 482 l 679 482 l 679 519 l 732 519 l 732 711 l 679 711 l 679 1000 l 432 1000 l 432 771 l 483 368 l 350 1000 l 50 1000 l 50 711 l 0 711 l 0 519 l 50 519 l 50 482 l 0 482 l 0 290 l 50 290 l 50 0 l 301 0 z "},"₧":{"ha":1542,"x_min":0,"x_max":0,"o":"m 281 776 b 311 739 304 776 311 760 l 311 422 b 281 381 311 392 300 381 z m 294 146 b 586 415 503 146 586 247 l 586 544 l 618 544 l 618 233 b 867 0 618 51 685 0 l 1257 0 b 1538 244 1453 0 1538 93 l 1538 254 b 1346 510 1538 404 1463 464 b 1242 593 1258 547 1242 563 l 1242 594 b 1263 626 1242 614 1247 626 b 1283 582 1279 626 1283 615 l 1283 544 l 1532 544 l 1532 600 b 1261 828 1532 736 1464 828 b 982 579 1063 828 982 719 l 982 578 b 1168 338 982 450 1043 394 b 1265 282 1236 307 1264 293 b 1247 271 1265 274 1261 271 l 951 271 b 893 335 907 271 893 275 l 893 544 l 967 544 l 967 814 l 893 814 l 893 957 l 663 957 b 654 858 663 913 663 889 b 604 810 644 825 632 815 b 582 807 597 808 590 807 b 296 1000 565 933 481 1000 l 14 1000 l 14 0 l 281 0 l 281 146 z "},"₨":{"ha":1143,"x_min":0,"x_max":0,"o":"m 275 775 b 303 742 297 775 303 768 l 303 597 b 269 563 303 572 296 563 l 269 775 z m 301 297 l 301 243 b 544 0 301 81 367 0 l 858 0 b 1139 244 1054 0 1139 93 l 1139 254 b 947 510 1139 404 1064 464 b 843 593 860 547 843 563 l 843 594 b 864 626 843 614 849 626 b 885 582 881 626 885 615 l 885 544 l 1133 544 l 1133 600 b 863 828 1133 736 1065 828 b 583 579 664 828 583 719 l 583 578 b 769 322 583 450 644 379 b 867 267 838 292 865 278 b 849 254 867 258 863 254 l 596 254 b 563 285 568 254 563 261 l 563 315 b 500 465 563 397 553 442 b 565 617 543 492 565 538 l 565 760 b 299 1000 565 957 483 1000 l 14 1000 l 14 0 l 269 0 l 269 340 b 301 297 293 339 301 333 z "},"₩":{"ha":994,"x_min":0,"x_max":0,"o":"m 490 371 l 499 663 l 506 371 l 539 0 l 874 0 l 901 286 l 989 286 l 989 488 l 921 488 l 924 511 l 989 511 l 989 707 l 942 707 l 971 1000 l 694 1000 l 676 624 l 679 319 l 660 625 l 624 1000 l 374 1000 l 336 625 l 317 319 l 319 624 l 304 1000 l 24 1000 l 53 707 l 6 707 l 6 511 l 71 511 l 74 488 l 6 488 l 6 286 l 93 286 l 121 0 l 457 0 z "},"₪":{"ha":1006,"x_min":0,"x_max":0,"o":"m 331 803 b 522 583 451 803 522 756 l 522 231 l 563 231 b 742 399 686 231 742 272 l 742 653 b 367 1000 742 874 589 1000 l 14 1000 l 14 0 l 240 0 l 240 803 z m 618 0 b 992 371 861 0 992 136 l 992 1000 l 769 1000 l 769 425 b 575 206 769 247 706 206 l 494 206 l 494 604 b 315 778 494 738 436 778 l 268 778 l 268 0 z "},"₮":{"ha":506,"x_min":0,"x_max":0,"o":"m 471 333 l 471 461 l 393 438 l 393 482 l 471 506 l 471 633 l 393 610 l 393 740 l 497 740 l 497 1000 l 8 1000 l 8 740 l 113 740 l 113 522 l 29 496 l 29 371 l 113 396 l 113 350 l 29 324 l 29 199 l 113 224 l 113 0 l 393 0 l 393 310 z "},"₱":{"ha":667,"x_min":0,"x_max":0,"o":"m 318 169 b 628 465 544 169 626 310 l 661 465 l 661 571 l 628 571 l 628 606 l 661 606 l 661 711 l 628 711 l 628 728 b 318 1000 628 865 538 1000 l 38 1000 l 38 711 l 6 711 l 6 606 l 38 606 l 38 571 l 6 571 l 6 465 l 38 465 l 38 0 l 282 0 l 282 169 z m 301 803 b 379 721 351 803 379 764 l 379 711 l 282 711 l 282 803 z m 379 571 l 282 571 l 282 606 l 379 606 z m 300 374 l 282 374 l 282 465 l 379 465 b 300 374 379 418 356 374 z "},"฿":{"ha":711,"x_min":0,"x_max":0,"o":"m 450 0 b 703 199 622 0 703 74 l 703 376 b 638 519 703 447 679 492 b 694 663 675 546 694 589 l 694 807 b 418 1000 694 931 599 1000 l 413 1000 l 413 1069 l 289 1069 l 289 1000 l 14 1000 l 14 0 l 289 0 l 289 -89 l 413 -89 l 413 0 z m 429 793 b 444 776 440 793 444 789 l 444 632 b 432 621 444 625 442 621 l 413 621 l 413 793 z m 258 621 l 258 793 l 289 793 l 289 621 z m 417 419 b 446 393 440 419 446 410 l 446 249 b 414 224 446 229 436 224 l 413 224 l 413 419 z m 258 224 l 258 419 l 289 419 l 289 224 z "},"#":{"ha":813,"x_min":0,"x_max":0,"o":"m 440 468 l 364 468 l 374 544 l 449 544 z m 389 0 l 649 0 l 671 197 l 801 197 l 801 468 l 700 468 l 708 544 l 801 544 l 801 815 l 738 815 l 758 1000 l 499 1000 l 478 815 l 403 815 l 424 1000 l 163 1000 l 142 815 l 11 815 l 11 544 l 113 544 l 104 468 l 11 468 l 11 197 l 75 197 l 53 0 l 313 0 l 335 197 l 411 197 z "},"⁰":{"ha":367,"x_min":0,"x_max":0,"o":"m 183 699 b 361 847 281 699 361 739 l 361 1071 b 183 1217 361 1176 281 1217 b 6 1071 83 1217 6 1176 l 6 847 b 183 699 6 739 82 699 z m 183 842 b 174 867 175 842 174 844 l 174 1058 b 183 1083 174 1082 175 1083 b 193 1058 192 1083 193 1082 l 193 867 b 183 842 193 844 192 842 z "},"¹":{"ha":274,"x_min":0,"x_max":0,"o":"m 269 707 l 269 860 l 218 860 l 218 1207 l 99 1207 b 4 1133 89 1161 46 1136 l 4 997 l 51 997 l 51 860 l 4 860 l 4 707 z "},"²":{"ha":363,"x_min":0,"x_max":0,"o":"m 358 707 l 358 854 l 186 854 b 253 893 199 871 224 881 b 358 1029 303 915 358 944 l 358 1086 b 181 1215 358 1171 304 1215 b 3 1082 56 1215 3 1156 l 3 1008 l 172 1008 l 172 1071 b 182 1088 172 1081 175 1088 b 192 1076 190 1088 192 1082 l 192 1031 b 115 972 192 1001 156 989 b 3 832 63 953 3 922 l 3 707 z "},"³":{"ha":369,"x_min":0,"x_max":0,"o":"m 188 694 b 364 819 308 694 364 751 l 364 883 b 294 963 364 938 333 957 b 364 1043 335 972 364 996 l 364 1090 b 186 1214 364 1176 297 1214 b 4 1082 74 1214 4 1174 l 4 1038 l 174 1038 l 174 1072 b 183 1088 174 1082 175 1088 b 193 1074 193 1088 193 1079 l 193 1032 b 174 1014 193 1018 188 1014 l 114 1014 l 114 904 l 165 904 b 193 882 188 904 193 901 l 193 846 b 185 829 193 836 192 829 b 174 847 174 829 174 833 l 174 881 l 4 881 l 4 832 b 188 694 4 746 31 694 z "},"⁴":{"ha":400,"x_min":0,"x_max":0,"o":"m 393 758 l 393 908 l 356 908 l 356 1207 l 163 1207 l 6 899 l 6 758 l 193 758 l 193 707 l 356 707 l 356 758 z m 182 949 l 204 1032 l 193 946 l 193 908 l 161 908 z "},"⁵":{"ha":372,"x_min":0,"x_max":0,"o":"m 192 697 b 367 842 315 697 367 756 l 367 936 b 264 1051 367 1006 340 1051 b 174 994 215 1051 190 1029 l 181 1064 l 242 1064 b 367 1183 353 1064 367 1069 l 367 1207 l 26 1207 l 3 957 l 172 915 l 178 929 b 190 942 182 939 186 942 b 199 929 196 942 199 939 l 199 853 b 190 840 199 846 197 840 b 181 853 182 840 181 844 l 181 900 l 6 900 l 6 836 b 192 697 6 747 56 697 z "},"⁶":{"ha":367,"x_min":0,"x_max":0,"o":"m 361 836 l 361 914 b 261 1004 361 978 326 1004 b 174 965 219 1004 192 993 l 174 1057 b 185 1082 174 1076 175 1082 b 193 1068 192 1082 193 1078 l 193 1019 l 361 1019 l 361 1078 b 185 1215 361 1158 307 1215 b 6 1060 64 1215 6 1156 l 6 851 b 182 697 6 749 67 697 b 361 836 303 697 361 753 z m 185 836 b 174 856 176 836 174 840 l 174 911 b 186 914 178 913 182 914 b 197 899 194 914 197 908 l 197 850 b 185 836 197 842 194 836 z "},"⁷":{"ha":301,"x_min":0,"x_max":0,"o":"m 193 707 b 297 1090 211 869 235 968 l 297 1207 l 7 1207 l 7 1058 l 118 1058 b 24 707 65 969 40 868 z "},"⁸":{"ha":356,"x_min":0,"x_max":0,"o":"m 178 697 b 356 825 317 697 356 753 l 356 883 b 303 968 356 929 338 956 b 354 1050 333 982 354 1007 l 354 1090 b 176 1215 354 1182 296 1215 b 1 1089 67 1215 1 1181 l 1 1049 b 56 967 1 1004 24 981 b 0 881 17 951 0 922 l 0 822 b 178 697 0 744 42 697 z m 168 1031 l 168 1085 b 178 1094 168 1089 169 1094 b 188 1085 186 1094 188 1089 l 188 1031 b 178 1017 188 1022 186 1017 b 168 1031 169 1017 168 1022 z m 178 828 b 168 838 169 828 168 831 l 168 904 b 178 918 168 914 169 918 b 188 907 186 918 188 914 l 188 840 b 178 828 188 831 185 828 z "},"⁹":{"ha":367,"x_min":0,"x_max":0,"o":"m 181 999 b 169 1014 172 999 169 1004 l 169 1063 b 182 1076 169 1071 172 1076 b 193 1057 190 1076 193 1072 l 193 1001 b 181 999 189 1000 185 999 z m 182 696 b 361 853 303 696 361 757 l 361 1061 b 185 1214 361 1164 300 1214 b 6 1076 64 1214 6 1160 l 6 999 b 113 908 6 935 47 908 b 193 944 153 908 176 918 l 193 856 b 182 831 193 836 192 831 b 174 844 175 831 174 835 l 174 896 l 6 896 l 6 835 b 182 696 6 754 60 696 z "},"⁺":{"ha":278,"x_min":0,"x_max":0,"o":"m 274 899 l 274 1035 l 206 1035 l 206 1108 l 72 1108 l 72 1035 l 4 1035 l 4 899 l 72 899 l 72 825 l 206 825 l 206 899 z "},"⁻":{"ha":279,"x_min":0,"x_max":0,"o":"m 4 896 l 275 896 l 275 1036 l 4 1036 z "},"⁼":{"ha":246,"x_min":0,"x_max":0,"o":"m 4 972 l 242 972 l 242 1089 l 4 1089 z m 4 835 l 242 835 l 242 951 l 4 951 z "},"⁽":{"ha":214,"x_min":0,"x_max":0,"o":"m 210 607 l 210 778 b 160 861 164 781 160 794 l 160 1039 b 210 1133 160 1106 165 1128 l 210 1288 b 6 1054 71 1283 6 1228 l 6 844 b 210 607 6 653 75 614 z "},"⁾":{"ha":215,"x_min":0,"x_max":0,"o":"m 4 607 b 210 844 139 614 210 653 l 210 1054 b 4 1288 210 1228 143 1283 l 4 1135 b 54 1039 49 1129 54 1106 l 54 861 b 4 779 54 794 50 781 z "},"₀":{"ha":367,"x_min":0,"x_max":0,"o":"m 183 -10 b 361 139 281 -10 361 31 l 361 363 b 183 508 361 468 281 508 b 6 363 83 508 6 468 l 6 139 b 183 -10 6 31 82 -10 z m 183 133 b 174 158 175 133 174 136 l 174 350 b 183 375 174 374 175 375 b 193 350 192 375 193 374 l 193 158 b 183 133 193 136 192 133 z "},"₁":{"ha":274,"x_min":0,"x_max":0,"o":"m 269 0 l 269 153 l 218 153 l 218 500 l 99 500 b 4 426 89 454 46 429 l 4 290 l 51 290 l 51 153 l 4 153 l 4 0 z "},"₂":{"ha":363,"x_min":0,"x_max":0,"o":"m 358 0 l 358 147 l 186 147 b 253 186 199 164 224 174 b 358 322 303 208 358 238 l 358 379 b 181 508 358 464 304 508 b 3 375 56 508 3 449 l 3 301 l 172 301 l 172 364 b 182 381 172 374 175 381 b 192 369 190 381 192 375 l 192 324 b 115 265 192 294 156 282 b 3 125 63 246 3 215 l 3 0 z "},"₃":{"ha":369,"x_min":0,"x_max":0,"o":"m 188 -12 b 364 113 308 -12 364 44 l 364 176 b 294 256 364 231 333 250 b 364 336 335 265 364 289 l 364 383 b 186 507 364 469 297 507 b 4 375 74 507 4 467 l 4 331 l 174 331 l 174 365 b 183 381 174 375 175 381 b 193 367 193 381 193 372 l 193 325 b 174 307 193 311 188 307 l 114 307 l 114 197 l 165 197 b 193 175 188 197 193 194 l 193 139 b 185 122 193 129 192 122 b 174 140 174 122 174 126 l 174 174 l 4 174 l 4 125 b 188 -12 4 39 31 -12 z "},"₄":{"ha":400,"x_min":0,"x_max":0,"o":"m 393 51 l 393 201 l 356 201 l 356 500 l 163 500 l 6 192 l 6 51 l 193 51 l 193 0 l 356 0 l 356 51 z m 182 242 l 204 325 l 193 239 l 193 201 l 161 201 z "},"₅":{"ha":372,"x_min":0,"x_max":0,"o":"m 192 -10 b 367 135 315 -10 367 49 l 367 229 b 264 344 367 299 340 344 b 174 288 215 344 190 322 l 181 357 l 242 357 b 367 476 353 357 367 363 l 367 500 l 26 500 l 3 250 l 172 208 l 178 222 b 190 235 182 232 186 235 b 199 222 196 235 199 232 l 199 146 b 190 133 199 139 197 133 b 181 146 182 133 181 138 l 181 193 l 6 193 l 6 129 b 192 -10 6 40 56 -10 z "},"₆":{"ha":367,"x_min":0,"x_max":0,"o":"m 361 129 l 361 207 b 261 297 361 271 326 297 b 174 258 219 297 192 286 l 174 350 b 185 375 174 369 175 375 b 193 361 192 375 193 371 l 193 313 l 361 313 l 361 371 b 185 508 361 451 307 508 b 6 353 64 508 6 449 l 6 144 b 182 -10 6 42 67 -10 b 361 129 303 -10 361 46 z m 185 129 b 174 149 176 129 174 133 l 174 204 b 186 207 178 206 182 207 b 197 192 194 207 197 201 l 197 143 b 185 129 197 135 194 129 z "},"₇":{"ha":301,"x_min":0,"x_max":0,"o":"m 193 0 b 297 383 211 163 235 261 l 297 500 l 7 500 l 7 351 l 118 351 b 24 0 65 263 40 161 z "},"₈":{"ha":356,"x_min":0,"x_max":0,"o":"m 178 -10 b 356 118 317 -10 356 46 l 356 176 b 303 261 356 222 338 249 b 354 343 333 275 354 300 l 354 383 b 176 508 354 475 296 508 b 1 382 67 508 1 474 l 1 342 b 56 260 1 297 24 274 b 0 174 17 244 0 215 l 0 115 b 178 -10 0 38 42 -10 z m 168 324 l 168 378 b 178 388 168 382 169 388 b 188 378 186 388 188 382 l 188 324 b 178 310 188 315 186 310 b 168 324 169 310 168 315 z m 178 121 b 168 131 169 121 168 124 l 168 197 b 178 211 168 207 169 211 b 188 200 186 211 188 207 l 188 133 b 178 121 188 124 185 121 z "},"₉":{"ha":367,"x_min":0,"x_max":0,"o":"m 181 292 b 169 307 172 292 169 297 l 169 356 b 182 369 169 364 172 369 b 193 350 190 369 193 365 l 193 294 b 181 292 189 293 185 292 z m 182 -11 b 361 146 303 -11 361 50 l 361 354 b 185 507 361 457 300 507 b 6 369 64 507 6 453 l 6 292 b 113 201 6 228 47 201 b 193 238 153 201 176 211 l 193 149 b 182 124 193 129 192 124 b 174 138 175 124 174 128 l 174 189 l 6 189 l 6 128 b 182 -11 6 47 60 -11 z "},"₊":{"ha":281,"x_min":0,"x_max":0,"o":"m 275 192 l 275 328 l 207 328 l 207 401 l 74 401 l 74 328 l 6 328 l 6 192 l 74 192 l 74 118 l 207 118 l 207 192 z "},"₋":{"ha":282,"x_min":0,"x_max":0,"o":"m 6 189 l 276 189 l 276 329 l 6 329 z "},"₌":{"ha":249,"x_min":0,"x_max":0,"o":"m 6 265 l 243 265 l 243 382 l 6 382 z m 6 128 l 243 128 l 243 244 l 6 244 z "},"₍":{"ha":214,"x_min":0,"x_max":0,"o":"m 210 -100 l 210 71 b 160 154 164 74 160 88 l 160 332 b 210 426 160 399 165 421 l 210 581 b 6 347 71 576 6 521 l 6 138 b 210 -100 6 -54 75 -93 z "},"₎":{"ha":215,"x_min":0,"x_max":0,"o":"m 4 -100 b 210 138 139 -93 210 -54 l 210 347 b 4 581 210 521 143 576 l 4 428 b 54 332 49 422 54 399 l 54 154 b 4 72 54 88 50 74 z "},"⁄":{"ha":794,"x_min":0,"x_max":0,"o":"m 417 515 l 789 928 l 576 1042 l 411 519 z m 243 -42 l 408 503 l 403 507 l 28 85 z "},"⅟":{"ha":794,"x_min":0,"x_max":0,"o":"m 417 515 l 789 928 l 576 1042 l 411 519 z m 243 -42 l 408 503 l 403 507 l 28 85 z m 328 499 l 328 651 l 276 651 l 276 999 l 157 999 b 63 925 147 953 104 928 l 63 789 l 110 789 l 110 651 l 63 651 l 63 499 z "},"½":{"ha":794,"x_min":0,"x_max":0,"o":"m 417 515 l 789 928 l 576 1042 l 411 519 z m 243 -42 l 408 503 l 403 507 l 28 85 z m 328 499 l 328 651 l 276 651 l 276 999 l 157 999 b 63 925 147 953 104 928 l 63 789 l 110 789 l 110 651 l 63 651 l 63 499 z m 794 0 l 794 147 l 622 147 b 689 186 635 164 660 174 b 794 322 739 208 794 238 l 794 379 b 617 508 794 464 740 508 b 439 375 492 508 439 449 l 439 301 l 608 301 l 608 364 b 618 381 608 374 611 381 b 628 369 626 381 628 375 l 628 324 b 551 265 628 294 592 282 b 439 125 499 246 439 215 l 439 0 z "},"⅓":{"ha":794,"x_min":0,"x_max":0,"o":"m 417 515 l 789 928 l 576 1042 l 411 519 z m 243 -42 l 408 503 l 403 507 l 28 85 z m 328 499 l 328 651 l 276 651 l 276 999 l 157 999 b 63 925 147 953 104 928 l 63 789 l 110 789 l 110 651 l 63 651 l 63 499 z m 597 -12 b 774 113 718 -12 774 44 l 774 176 b 704 256 774 231 743 250 b 774 336 744 265 774 289 l 774 383 b 596 507 774 469 707 507 b 414 375 483 507 414 467 l 414 331 l 583 331 l 583 365 b 593 381 583 375 585 381 b 603 367 603 381 603 372 l 603 325 b 583 307 603 311 597 307 l 524 307 l 524 197 l 575 197 b 603 175 597 197 603 194 l 603 139 b 594 122 603 129 601 122 b 583 140 583 122 583 126 l 583 174 l 414 174 l 414 125 b 597 -12 414 39 440 -12 z "},"⅔":{"ha":794,"x_min":0,"x_max":0,"o":"m 417 515 l 789 928 l 576 1042 l 411 519 z m 243 -42 l 408 503 l 403 507 l 28 85 z m 375 499 l 375 646 l 203 646 b 269 685 215 663 240 672 b 375 821 319 707 375 736 l 375 878 b 197 1007 375 963 321 1007 b 19 874 72 1007 19 947 l 19 800 l 189 800 l 189 863 b 199 879 189 872 192 879 b 208 868 207 879 208 874 l 208 822 b 132 764 208 793 172 781 b 19 624 79 744 19 714 l 19 499 z m 597 -12 b 774 113 718 -12 774 44 l 774 176 b 704 256 774 231 743 250 b 774 336 744 265 774 289 l 774 383 b 596 507 774 469 707 507 b 414 375 483 507 414 467 l 414 331 l 583 331 l 583 365 b 593 381 583 375 585 381 b 603 367 603 381 603 372 l 603 325 b 583 307 603 311 597 307 l 524 307 l 524 197 l 575 197 b 603 175 597 197 603 194 l 603 139 b 594 122 603 129 601 122 b 583 140 583 122 583 126 l 583 174 l 414 174 l 414 125 b 597 -12 414 39 440 -12 z "},"¼":{"ha":794,"x_min":0,"x_max":0,"o":"m 417 515 l 789 928 l 576 1042 l 411 519 z m 243 -42 l 408 503 l 403 507 l 28 85 z m 772 51 l 772 201 l 735 201 l 735 500 l 542 500 l 385 192 l 385 51 l 572 51 l 572 0 l 735 0 l 735 51 z m 561 242 l 583 325 l 572 239 l 572 201 l 540 201 z m 328 499 l 328 651 l 276 651 l 276 999 l 157 999 b 63 925 147 953 104 928 l 63 789 l 110 789 l 110 651 l 63 651 l 63 499 z "},"¾":{"ha":794,"x_min":0,"x_max":0,"o":"m 425 515 l 797 928 l 585 1042 l 419 519 z m 251 -42 l 417 503 l 411 507 l 36 85 z m 772 51 l 772 201 l 735 201 l 735 500 l 542 500 l 385 192 l 385 51 l 572 51 l 572 0 l 735 0 l 735 51 z m 561 242 l 583 325 l 572 239 l 572 201 l 540 201 z m 196 486 b 372 611 317 486 372 543 l 372 675 b 303 754 372 729 342 749 b 372 835 343 764 372 788 l 372 882 b 194 1006 372 968 306 1006 b 13 874 82 1006 13 965 l 13 829 l 182 829 l 182 864 b 192 879 182 874 183 879 b 201 865 201 879 201 871 l 201 824 b 182 806 201 810 196 806 l 122 806 l 122 696 l 174 696 b 201 674 196 696 201 693 l 201 638 b 193 621 201 628 200 621 b 182 639 182 621 182 625 l 182 672 l 13 672 l 13 624 b 196 486 13 538 39 486 z "},"⅕":{"ha":794,"x_min":0,"x_max":0,"o":"m 417 515 l 789 928 l 576 1042 l 411 519 z m 243 -42 l 408 503 l 403 507 l 28 85 z m 607 -10 b 782 135 731 -10 782 49 l 782 229 b 679 344 782 299 756 344 b 589 288 631 344 606 322 l 596 357 l 657 357 b 782 476 768 357 782 363 l 782 500 l 442 500 l 418 250 l 588 208 l 593 222 b 606 235 597 232 601 235 b 614 222 611 235 614 232 l 614 146 b 606 133 614 139 613 133 b 596 146 597 133 596 138 l 596 193 l 421 193 l 421 129 b 607 -10 421 40 471 -10 z m 328 499 l 328 651 l 276 651 l 276 999 l 157 999 b 63 925 147 953 104 928 l 63 789 l 110 789 l 110 651 l 63 651 l 63 499 z "},"⅖":{"ha":794,"x_min":0,"x_max":0,"o":"m 417 515 l 789 928 l 576 1042 l 411 519 z m 243 -42 l 408 503 l 403 507 l 28 85 z m 607 -10 b 782 135 731 -10 782 49 l 782 229 b 679 344 782 299 756 344 b 589 288 631 344 606 322 l 596 357 l 657 357 b 782 476 768 357 782 363 l 782 500 l 442 500 l 418 250 l 588 208 l 593 222 b 606 235 597 232 601 235 b 614 222 611 235 614 232 l 614 146 b 606 133 614 139 613 133 b 596 146 597 133 596 138 l 596 193 l 421 193 l 421 129 b 607 -10 421 40 471 -10 z m 374 499 l 374 646 l 201 646 b 268 685 214 663 239 672 b 374 821 318 707 374 736 l 374 878 b 196 1007 374 963 319 1007 b 18 874 71 1007 18 947 l 18 800 l 188 800 l 188 863 b 197 879 188 872 190 879 b 207 868 206 879 207 874 l 207 822 b 131 764 207 793 171 781 b 18 624 78 744 18 714 l 18 499 z "},"⅗":{"ha":794,"x_min":0,"x_max":0,"o":"m 417 515 l 789 928 l 576 1042 l 411 519 z m 243 -42 l 408 503 l 403 507 l 28 85 z m 607 -10 b 782 135 731 -10 782 49 l 782 229 b 679 344 782 299 756 344 b 589 288 631 344 606 322 l 596 357 l 657 357 b 782 476 768 357 782 363 l 782 500 l 442 500 l 418 250 l 588 208 l 593 222 b 606 235 597 232 601 235 b 614 222 611 235 614 232 l 614 146 b 606 133 614 139 613 133 b 596 146 597 133 596 138 l 596 193 l 421 193 l 421 129 b 607 -10 421 40 471 -10 z m 178 486 b 354 611 299 486 354 543 l 354 675 b 285 754 354 729 324 749 b 354 835 325 764 354 788 l 354 882 b 176 1006 354 968 288 1006 b -6 874 64 1006 -6 965 l -6 829 l 164 829 l 164 864 b 174 879 164 874 165 879 b 183 865 183 879 183 871 l 183 824 b 164 806 183 810 178 806 l 104 806 l 104 696 l 156 696 b 183 674 178 696 183 693 l 183 638 b 175 621 183 628 182 621 b 164 639 164 621 164 625 l 164 672 l -6 672 l -6 624 b 178 486 -6 538 21 486 z "},"⅘":{"ha":794,"x_min":0,"x_max":0,"o":"m 417 515 l 789 928 l 576 1042 l 411 519 z m 243 -42 l 408 503 l 403 507 l 28 85 z m 607 -10 b 782 135 731 -10 782 49 l 782 229 b 679 344 782 299 756 344 b 589 288 631 344 606 322 l 596 357 l 657 357 b 782 476 768 357 782 363 l 782 500 l 442 500 l 418 250 l 588 208 l 593 222 b 606 235 597 232 601 235 b 614 222 611 235 614 232 l 614 146 b 606 133 614 139 613 133 b 596 146 597 133 596 138 l 596 193 l 421 193 l 421 129 b 607 -10 421 40 471 -10 z m 375 550 l 375 700 l 338 700 l 338 999 l 144 999 l -12 690 l -12 550 l 175 550 l 175 499 l 338 499 l 338 550 z m 164 740 l 186 824 l 175 738 l 175 700 l 143 700 z "},"⅙":{"ha":794,"x_min":0,"x_max":0,"o":"m 417 515 l 789 928 l 576 1042 l 411 519 z m 243 -42 l 408 503 l 403 507 l 28 85 z m 328 499 l 328 651 l 276 651 l 276 999 l 157 999 b 63 925 147 953 104 928 l 63 789 l 110 789 l 110 651 l 63 651 l 63 499 z m 781 129 l 781 207 b 681 297 781 271 746 297 b 593 258 639 297 611 286 l 593 350 b 604 375 593 369 594 375 b 613 361 611 375 613 371 l 613 313 l 781 313 l 781 371 b 604 508 781 451 726 508 b 425 353 483 508 425 449 l 425 144 b 601 -10 425 42 486 -10 b 781 129 722 -10 781 46 z m 604 129 b 593 149 596 129 593 133 l 593 204 b 606 207 597 206 601 207 b 617 192 614 207 617 201 l 617 143 b 604 129 617 135 614 129 z "},"⅚":{"ha":794,"x_min":0,"x_max":0,"o":"m 417 515 l 789 928 l 576 1042 l 411 519 z m 243 -42 l 408 503 l 403 507 l 28 85 z m 196 489 b 371 633 319 489 371 547 l 371 728 b 268 843 371 797 344 843 b 178 786 219 843 194 821 l 185 856 l 246 856 b 371 975 357 856 371 861 l 371 999 l 31 999 l 7 749 l 176 707 l 182 721 b 194 733 186 731 190 733 b 203 721 200 733 203 731 l 203 644 b 194 632 203 638 201 632 b 185 644 186 632 185 636 l 185 692 l 10 692 l 10 628 b 196 489 10 539 60 489 z m 781 129 l 781 207 b 681 297 781 271 746 297 b 593 258 639 297 611 286 l 593 350 b 604 375 593 369 594 375 b 613 361 611 375 613 371 l 613 313 l 781 313 l 781 371 b 604 508 781 451 726 508 b 425 353 483 508 425 449 l 425 144 b 601 -10 425 42 486 -10 b 781 129 722 -10 781 46 z m 604 129 b 593 149 596 129 593 133 l 593 204 b 606 207 597 206 601 207 b 617 192 614 207 617 201 l 617 143 b 604 129 617 135 614 129 z "},"⅛":{"ha":794,"x_min":0,"x_max":0,"o":"m 417 515 l 789 928 l 576 1042 l 411 519 z m 243 -42 l 408 503 l 403 507 l 28 85 z m 328 499 l 328 651 l 276 651 l 276 999 l 157 999 b 63 925 147 953 104 928 l 63 789 l 110 789 l 110 651 l 63 651 l 63 499 z m 610 -10 b 788 118 749 -10 788 46 l 788 176 b 735 261 788 222 769 249 b 786 343 765 275 786 300 l 786 383 b 608 508 786 475 728 508 b 433 382 499 508 433 474 l 433 342 b 488 260 433 297 456 274 b 432 174 449 244 432 215 l 432 115 b 610 -10 432 38 474 -10 z m 600 324 l 600 378 b 610 388 600 382 601 388 b 619 378 618 388 619 382 l 619 324 b 610 310 619 315 618 310 b 600 324 601 310 600 315 z m 610 121 b 600 131 601 121 600 124 l 600 197 b 610 211 600 207 601 211 b 619 200 618 211 619 207 l 619 133 b 610 121 619 124 617 121 z "},"⅜":{"ha":794,"x_min":0,"x_max":0,"o":"m 417 515 l 789 928 l 576 1042 l 411 519 z m 243 -42 l 408 503 l 403 507 l 28 85 z m 610 -10 b 788 118 749 -10 788 46 l 788 176 b 735 261 788 222 769 249 b 786 343 765 275 786 300 l 786 383 b 608 508 786 475 728 508 b 433 382 499 508 433 474 l 433 342 b 488 260 433 297 456 274 b 432 174 449 244 432 215 l 432 115 b 610 -10 432 38 474 -10 z m 600 324 l 600 378 b 610 388 600 382 601 388 b 619 378 618 388 619 382 l 619 324 b 610 310 619 315 618 310 b 600 324 601 310 600 315 z m 610 121 b 600 131 601 121 600 124 l 600 197 b 610 211 600 207 601 211 b 619 200 618 211 619 207 l 619 133 b 610 121 619 124 617 121 z m 178 486 b 354 611 299 486 354 543 l 354 675 b 285 754 354 729 324 749 b 354 835 325 764 354 788 l 354 882 b 176 1006 354 968 288 1006 b -6 874 64 1006 -6 965 l -6 829 l 164 829 l 164 864 b 174 879 164 874 165 879 b 183 865 183 879 183 871 l 183 824 b 164 806 183 810 178 806 l 104 806 l 104 696 l 156 696 b 183 674 178 696 183 693 l 183 638 b 175 621 183 628 182 621 b 164 639 164 621 164 625 l 164 672 l -6 672 l -6 624 b 178 486 -6 538 21 486 z "},"⅝":{"ha":794,"x_min":0,"x_max":0,"o":"m 417 515 l 789 928 l 576 1042 l 411 519 z m 243 -42 l 408 503 l 403 507 l 28 85 z m 610 -10 b 788 118 749 -10 788 46 l 788 176 b 735 261 788 222 769 249 b 786 343 765 275 786 300 l 786 383 b 608 508 786 475 728 508 b 433 382 499 508 433 474 l 433 342 b 488 260 433 297 456 274 b 432 174 449 244 432 215 l 432 115 b 610 -10 432 38 474 -10 z m 600 324 l 600 378 b 610 388 600 382 601 388 b 619 378 618 388 619 382 l 619 324 b 610 310 619 315 618 310 b 600 324 601 310 600 315 z m 610 121 b 600 131 601 121 600 124 l 600 197 b 610 211 600 207 601 211 b 619 200 618 211 619 207 l 619 133 b 610 121 619 124 617 121 z m 182 489 b 357 633 306 489 357 547 l 357 728 b 254 843 357 797 331 843 b 164 786 206 843 181 821 l 171 856 l 232 856 b 357 975 343 856 357 861 l 357 999 l 17 999 l -7 749 l 163 707 l 168 721 b 181 733 172 731 176 733 b 189 721 186 733 189 731 l 189 644 b 181 632 189 638 188 632 b 171 644 172 632 171 636 l 171 692 l -4 692 l -4 628 b 182 489 -4 539 46 489 z "},"⅞":{"ha":794,"x_min":0,"x_max":0,"o":"m 417 515 l 789 928 l 576 1042 l 411 519 z m 243 -42 l 408 503 l 403 507 l 28 85 z m 610 -10 b 788 118 749 -10 788 46 l 788 176 b 735 261 788 222 769 249 b 786 343 765 275 786 300 l 786 383 b 608 508 786 475 728 508 b 433 382 499 508 433 474 l 433 342 b 488 260 433 297 456 274 b 432 174 449 244 432 215 l 432 115 b 610 -10 432 38 474 -10 z m 600 324 l 600 378 b 610 388 600 382 601 388 b 619 378 618 388 619 382 l 619 324 b 610 310 619 315 618 310 b 600 324 601 310 600 315 z m 610 121 b 600 131 601 121 600 124 l 600 197 b 610 211 600 207 601 211 b 619 200 618 211 619 207 l 619 133 b 610 121 619 124 617 121 z m 251 499 b 356 882 269 661 293 760 l 356 999 l 65 999 l 65 850 l 176 850 b 82 499 124 761 99 660 z "},"%":{"ha":853,"x_min":0,"x_max":0,"o":"m 181 521 b 364 690 294 521 364 571 l 364 846 b 183 1015 364 960 290 1015 b 3 846 78 1015 3 961 l 3 690 b 181 521 3 572 65 521 z m 0 0 l 265 0 l 865 1000 l 607 1000 z m 183 665 b 174 694 175 665 174 668 l 174 843 b 183 875 174 869 175 875 b 193 843 190 875 193 871 l 193 694 b 183 665 193 667 190 665 z m 667 -39 b 850 131 781 -39 850 11 l 850 286 b 669 456 850 400 776 456 b 489 286 564 456 489 401 l 489 131 b 667 -39 489 13 551 -39 z m 669 106 b 660 135 661 106 660 108 l 660 283 b 669 315 660 310 661 315 b 679 283 676 315 679 311 l 679 135 b 669 106 679 107 676 106 z "},"‰":{"ha":1232,"x_min":0,"x_max":0,"o":"m 181 521 b 364 690 294 521 364 571 l 364 846 b 183 1015 364 960 290 1015 b 3 846 78 1015 3 961 l 3 690 b 181 521 3 572 65 521 z m 0 0 l 265 0 l 865 1000 l 607 1000 z m 183 665 b 174 694 175 665 174 668 l 174 843 b 183 875 174 869 175 875 b 193 843 190 875 193 871 l 193 694 b 183 665 193 667 190 665 z m 667 -39 b 850 131 781 -39 850 11 l 850 286 b 669 456 850 400 776 456 b 489 286 564 456 489 401 l 489 131 b 667 -39 489 13 551 -39 z m 1046 -39 b 1229 131 1160 -39 1229 11 l 1229 286 b 1049 456 1229 400 1156 456 b 868 286 943 456 868 401 l 868 131 b 1046 -39 868 13 931 -39 z m 669 106 b 660 135 661 106 660 108 l 660 283 b 669 315 660 310 661 315 b 679 283 676 315 679 311 l 679 135 b 669 106 679 107 676 106 z m 1049 106 b 1039 135 1040 106 1039 108 l 1039 283 b 1049 315 1039 310 1040 315 b 1058 283 1056 315 1058 311 l 1058 135 b 1049 106 1058 107 1056 106 z "},"№":{"ha":1083,"x_min":0,"x_max":0,"o":"m 867 453 b 1075 644 996 453 1075 508 l 1075 822 b 869 1015 1075 953 992 1015 b 663 822 749 1015 663 954 l 663 644 b 867 453 663 510 735 453 z m 869 617 b 858 650 860 617 858 619 l 858 819 b 869 856 858 850 860 856 b 881 819 878 856 881 851 l 881 650 b 869 617 881 618 876 617 z m 265 272 l 228 607 l 350 0 l 643 0 l 643 1000 l 396 1000 l 396 771 l 447 368 l 314 1000 l 14 1000 l 14 0 l 265 0 z m 663 217 l 1075 217 l 1075 429 l 663 429 z "},"¤":{"ha":619,"x_min":0,"x_max":0,"o":"m 307 436 b 292 453 297 436 292 443 l 292 556 b 308 571 292 564 297 571 b 325 556 318 571 325 565 l 325 453 b 307 436 325 443 318 436 z m 311 243 b 396 256 342 243 369 247 l 492 149 l 628 275 l 536 378 b 556 475 549 407 556 439 l 556 535 b 535 635 556 572 549 606 l 631 739 l 493 861 l 396 754 b 311 767 369 763 342 767 b 226 754 281 767 253 763 l 128 863 l -6 738 l 88 636 b 65 533 74 606 65 571 l 65 474 b 85 374 65 436 72 403 l -10 268 l 133 144 l 229 253 b 311 243 254 246 282 243 z "},"←":{"ha":978,"x_min":0,"x_max":0,"o":"m 915 382 l 915 622 l 411 622 b 556 825 471 675 526 751 l 272 825 b 40 561 240 735 140 622 l 40 440 b 272 179 140 376 239 269 l 567 179 b 410 382 535 256 472 331 z "},"→":{"ha":978,"x_min":0,"x_max":0,"o":"m 704 179 b 938 440 739 269 838 376 l 938 561 b 706 825 838 622 738 735 l 422 825 b 565 622 451 751 507 675 l 63 622 l 63 382 l 567 382 b 411 179 504 331 443 256 z "},"↑":{"ha":978,"x_min":0,"x_max":0,"o":"m 817 425 l 817 707 b 554 938 722 740 617 838 l 438 938 b 171 707 374 838 261 740 l 171 425 b 374 574 256 458 324 513 l 374 72 l 614 72 l 614 574 b 817 425 664 513 732 458 z "},"↓":{"ha":978,"x_min":0,"x_max":0,"o":"m 549 58 b 815 289 611 158 722 256 l 815 571 b 613 424 732 538 663 483 l 613 924 l 372 924 l 372 421 b 169 571 322 483 254 538 l 169 289 b 432 58 261 256 368 158 z "},"↖":{"ha":978,"x_min":0,"x_max":0,"o":"m 883 283 l 526 639 b 775 676 606 631 692 640 l 574 876 b 225 853 486 832 343 826 l 143 771 b 119 419 169 657 160 507 l 318 222 b 357 469 356 304 365 392 l 713 115 z "},"↗":{"ha":978,"x_min":0,"x_max":0,"o":"m 683 222 l 883 421 b 861 767 840 510 835 653 l 779 849 b 425 875 664 825 514 832 l 226 675 b 475 638 310 640 397 629 l 118 283 l 289 115 l 646 468 b 683 222 638 390 649 306 z "},"↘":{"ha":978,"x_min":0,"x_max":0,"o":"m 775 139 l 857 221 b 882 572 831 335 840 483 l 682 769 b 643 521 644 686 635 599 l 288 876 l 117 707 l 475 351 b 225 315 396 361 308 351 l 426 115 b 775 139 513 158 657 165 z "},"↙":{"ha":978,"x_min":0,"x_max":0,"o":"m 575 115 l 776 314 b 525 353 693 351 604 361 l 882 707 l 711 876 l 356 521 b 319 768 364 599 354 685 l 118 568 b 142 222 161 483 165 339 l 224 140 b 575 115 339 167 486 157 z "},"○":{"ha":1149,"x_min":0,"x_max":0,"o":"m 574 -15 b 1096 500 883 -15 1096 203 b 574 1015 1096 799 879 1015 b 53 500 265 1015 53 794 b 574 -15 53 199 265 -15 z m 574 351 b 436 500 483 351 436 418 b 574 650 436 583 483 650 b 711 500 661 650 711 583 b 574 351 711 418 661 351 z "},"●":{"ha":1149,"x_min":0,"x_max":0,"o":"m 574 -15 b 1096 500 883 -15 1096 203 b 574 1015 1096 799 879 1015 b 53 500 265 1015 53 794 b 574 -15 53 199 265 -15 z "},"■":{"ha":1044,"x_min":0,"x_max":0,"o":"m 18 0 l 1026 0 l 1026 1000 l 18 1000 z "},"□":{"ha":1044,"x_min":0,"x_max":0,"o":"m 18 0 l 1026 0 l 1026 1000 l 18 1000 z m 415 392 l 415 610 l 631 610 l 631 392 z "},"⊠":{"ha":1044,"x_min":0,"x_max":0,"o":"m 18 0 l 1026 0 l 1026 1000 l 18 1000 z m 415 392 l 415 610 l 631 610 l 631 392 z m 579 408 l 613 442 l 558 497 l 614 553 l 578 588 l 524 532 l 471 586 l 436 551 l 490 497 l 438 443 l 471 410 l 525 464 z "},"▪":{"ha":860,"x_min":0,"x_max":0,"o":"m 17 0 l 843 0 l 843 822 l 17 822 z "},"▫":{"ha":860,"x_min":0,"x_max":0,"o":"m 17 0 l 843 0 l 843 822 l 17 822 z m 339 319 l 339 504 l 519 504 l 519 319 z "},"▲":{"ha":1243,"x_min":0,"x_max":0,"o":"m 21 0 l 1222 0 l 622 1035 z "},"▼":{"ha":1243,"x_min":0,"x_max":0,"o":"m 622 -17 l 1222 1018 l 21 1018 z "},"◄":{"ha":1243,"x_min":0,"x_max":0,"o":"m 1110 -81 l 1110 1117 l 71 519 z "},"►":{"ha":1243,"x_min":0,"x_max":0,"o":"m 133 -81 l 1172 519 l 133 1117 z "},"◤":{"ha":1243,"x_min":0,"x_max":0,"o":"m 1194 -76 l 882 1081 l 33 236 z "},"◥":{"ha":1243,"x_min":0,"x_max":0,"o":"m 54 -82 l 1215 229 l 368 1075 z "},"◢":{"ha":1243,"x_min":0,"x_max":0,"o":"m 368 -103 l 1217 744 l 56 1054 z "},"◣":{"ha":1243,"x_min":0,"x_max":0,"o":"m 878 -103 l 1190 1054 l 29 744 z "},"◎":{"ha":1265,"x_min":0,"x_max":0,"o":"m 633 -14 b 1146 500 935 -14 1146 203 b 633 1013 1146 799 931 1013 b 119 500 331 1013 119 794 b 633 -14 119 199 331 -14 z m 633 168 b 303 500 446 168 303 310 b 633 833 303 690 446 833 b 963 500 822 833 963 686 b 633 168 963 310 822 168 z m 635 261 b 872 499 771 261 872 365 b 635 736 872 636 769 736 b 394 499 500 736 394 636 b 635 261 394 363 496 261 z m 635 418 b 558 499 589 418 558 453 b 635 579 558 546 589 579 b 710 499 679 579 710 546 b 635 418 710 453 679 418 z "},"★":{"ha":1247,"x_min":0,"x_max":0,"o":"m 360 119 l 619 307 l 881 119 l 781 424 l 1042 610 l 721 611 l 621 915 l 521 611 l 199 613 l 460 425 z "},"☼":{"ha":1286,"x_min":0,"x_max":0,"o":"m 625 792 l 654 792 l 678 990 l 601 990 z m 481 747 l 503 760 l 425 946 l 360 907 z m 797 747 l 919 907 l 853 946 l 776 760 z m 376 636 l 390 657 l 229 776 l 189 713 z m 901 636 l 1089 714 l 1047 776 l 888 658 z m 640 254 b 882 497 772 254 882 365 b 640 740 882 629 772 740 b 396 497 507 740 396 629 b 640 254 396 365 507 254 z m 144 461 l 343 485 l 343 513 l 144 536 z m 1133 461 l 1133 536 l 935 513 l 935 485 z m 1050 221 l 1089 285 l 901 363 l 888 340 z m 232 221 l 390 339 l 376 363 l 189 283 z m 853 50 l 919 90 l 797 250 l 776 238 z m 425 50 l 503 238 l 481 250 l 360 90 z m 601 6 l 678 6 l 654 204 l 625 204 z "},"☾":{"ha":1089,"x_min":0,"x_max":0,"o":"m 592 82 b 840 161 683 82 769 111 b 742 144 808 151 775 144 b 407 494 557 144 407 301 b 742 843 407 688 557 843 b 840 826 775 843 808 835 b 592 907 769 876 683 907 b 176 494 364 907 176 722 b 592 82 176 267 364 82 z "},"♻":{"ha":1147,"x_min":0,"x_max":0,"o":"m 832 669 l 907 865 l 854 836 l 821 893 b 714 950 792 947 757 949 l 483 950 l 483 949 b 592 881 483 949 556 944 l 678 735 l 629 707 z m 419 633 l 557 869 b 363 913 533 917 432 954 b 321 875 342 901 326 885 l 242 736 z m 921 314 b 1054 463 969 314 1056 381 b 1042 514 1054 483 1049 504 l 960 653 l 783 551 z m 224 175 l 226 175 b 231 301 226 175 194 243 b 315 450 233 307 315 450 l 365 421 l 294 617 l 88 581 l 138 551 l 104 493 b 110 374 74 442 89 411 z m 743 19 l 743 79 l 811 79 b 915 144 872 79 890 108 l 1029 342 l 1028 343 b 915 282 1028 343 985 282 l 743 282 l 743 340 l 610 181 z m 375 79 l 535 79 l 535 282 l 260 282 b 321 94 233 240 250 136 b 375 79 339 83 361 79 z "},"♼":{"ha":1147,"x_min":0,"x_max":0,"o":"m 576 24 b 1049 494 836 24 1049 235 b 576 968 1049 756 836 968 b 100 494 313 968 100 756 b 576 24 100 235 313 24 z m 768 636 l 610 665 l 649 688 l 581 800 b 497 851 554 846 497 851 l 497 853 l 675 853 b 758 810 710 853 735 850 l 785 765 l 824 788 z m 453 608 l 314 689 l 378 794 b 407 824 381 804 393 815 b 558 792 461 856 540 826 z m 840 360 l 733 543 l 871 622 l 933 517 b 944 476 939 507 944 493 b 840 360 944 413 879 360 z m 300 253 l 213 406 b 208 500 196 436 182 458 l 235 544 l 194 568 l 356 594 l 410 443 l 372 467 l 304 351 b 301 253 278 304 301 253 z m 704 133 l 599 257 l 704 381 l 704 336 l 835 336 b 924 383 890 336 924 383 l 925 382 l 835 231 b 756 179 818 201 804 179 l 704 179 z m 413 179 b 372 190 403 179 386 182 b 322 336 315 224 301 301 l 538 336 l 538 179 z "},"♽":{"ha":1147,"x_min":0,"x_max":0,"o":"m 576 24 b 1049 494 836 24 1049 235 b 576 968 1049 756 836 968 b 100 494 313 968 100 756 b 576 24 100 235 313 24 z m 576 46 b 124 494 325 46 124 247 b 576 944 124 744 325 944 b 1024 494 824 944 1024 744 b 576 46 1024 247 824 46 z m 768 636 l 824 788 l 785 765 l 758 810 b 675 853 735 850 710 853 l 497 853 l 497 851 b 581 800 497 851 554 846 l 649 688 l 610 665 z m 453 608 l 558 792 b 407 824 540 826 461 856 b 378 794 393 815 381 804 l 314 689 z m 840 360 b 944 476 879 360 944 413 b 933 517 944 493 939 507 l 871 622 l 733 543 z m 300 253 l 301 253 b 304 351 301 253 278 304 l 372 467 l 410 443 l 356 594 l 194 568 l 235 544 l 208 500 b 213 406 182 458 196 436 z m 704 133 l 704 179 l 756 179 b 835 231 804 179 818 201 l 925 382 l 924 383 b 835 336 924 383 890 336 l 704 336 l 704 381 l 599 257 z m 413 179 l 538 179 l 538 336 l 322 336 b 372 190 301 301 315 224 b 413 179 386 182 403 179 z "},"⌂":{"ha":1181,"x_min":0,"x_max":0,"o":"m 133 0 l 1047 0 l 1047 567 l 590 1003 l 133 567 z "},"♠":{"ha":1250,"x_min":0,"x_max":0,"o":"m 807 0 b 671 397 772 69 671 233 b 919 214 707 301 785 214 b 1135 428 1038 214 1135 308 b 822 867 1135 583 1050 689 l 632 1019 l 629 1019 l 438 867 b 114 428 211 689 114 583 b 350 211 114 308 222 211 b 582 397 474 211 549 301 b 451 0 582 233 492 69 z "},"♣":{"ha":1250,"x_min":0,"x_max":0,"o":"m 899 179 b 1142 424 1033 179 1142 289 b 900 665 1142 557 1035 665 b 838 654 878 665 856 661 b 863 774 853 692 863 733 b 622 1013 863 907 756 1013 b 381 774 490 1013 381 907 b 408 657 381 735 392 693 b 351 665 390 661 371 665 b 107 424 217 665 107 557 b 351 179 107 289 217 179 b 581 344 457 179 543 249 b 453 0 564 200 489 61 l 808 0 b 676 342 778 61 696 199 b 899 179 713 247 794 179 z "},"♥":{"ha":1250,"x_min":0,"x_max":0,"o":"m 621 -24 l 814 192 b 1133 754 1044 444 1133 596 b 872 1013 1133 894 1014 1013 b 621 793 733 1013 636 917 b 368 1013 606 917 507 1013 b 115 754 226 1013 115 894 b 428 192 115 596 199 444 z "},"♦":{"ha":1250,"x_min":0,"x_max":0,"o":"m 625 -14 l 1074 508 l 625 1024 l 175 508 z "},"+":{"ha":565,"x_min":0,"x_max":0,"o":"m 554 379 l 554 606 l 397 606 l 397 767 l 172 767 l 172 606 l 11 606 l 11 379 l 172 379 l 172 218 l 397 218 l 397 379 z "},"−":{"ha":558,"x_min":0,"x_max":0,"o":"m 11 376 l 547 376 l 547 608 l 11 608 z "},"±":{"ha":481,"x_min":0,"x_max":0,"o":"m 469 551 l 469 769 l 353 769 l 353 894 l 131 894 l 131 769 l 11 769 l 11 551 l 131 551 l 131 426 l 353 426 l 353 551 z m 11 153 l 469 153 l 469 376 l 11 376 z "},"×":{"ha":531,"x_min":0,"x_max":0,"o":"m 388 228 l 532 375 l 414 490 l 529 603 l 382 750 l 265 635 l 147 751 l 1 604 l 119 490 l -1 371 l 146 226 l 267 346 z "},"÷":{"ha":565,"x_min":0,"x_max":0,"o":"m 282 622 b 413 713 383 622 413 638 b 282 803 413 789 382 803 b 151 713 182 803 151 789 b 282 622 151 636 175 622 z m 11 372 l 554 372 l 554 603 l 11 603 z m 282 167 b 413 258 383 167 413 185 b 282 350 413 335 382 350 b 151 258 182 350 151 335 b 282 167 151 183 175 167 z "},"=":{"ha":515,"x_min":0,"x_max":0,"o":"m 11 510 l 504 510 l 504 735 l 11 735 z m 11 260 l 504 260 l 504 486 l 11 486 z "},"≠":{"ha":515,"x_min":0,"x_max":0,"o":"m 504 261 l 504 481 l 325 481 l 333 504 l 504 504 l 504 724 l 406 724 l 438 818 l 283 818 l 253 724 l 11 724 l 11 504 l 179 504 l 172 481 l 11 481 l 11 261 l 100 261 l 69 169 l 221 169 l 251 261 z "},"≈":{"ha":500,"x_min":0,"x_max":0,"o":"m 382 496 b 489 554 429 496 468 522 l 489 779 b 382 721 465 742 424 721 b 124 783 308 721 208 783 b 11 733 76 783 29 760 l 11 501 b 122 554 29 532 75 554 b 382 496 199 554 294 496 z m 382 232 b 489 281 431 232 474 256 l 489 524 b 382 474 461 486 424 474 b 122 532 289 474 190 532 b 11 474 74 532 32 504 l 11 236 b 122 296 35 269 81 296 b 382 232 194 296 285 232 z "},"<":{"ha":500,"x_min":0,"x_max":0,"o":"m 489 197 l 489 443 l 315 503 l 489 563 l 489 813 l 10 611 l 10 393 z "},">":{"ha":501,"x_min":0,"x_max":0,"o":"m 11 197 l 492 393 l 492 611 l 11 813 l 11 563 l 185 503 l 11 443 z "},"≤":{"ha":504,"x_min":0,"x_max":0,"o":"m 492 381 l 492 590 l 282 657 l 492 722 l 492 933 l 11 747 l 11 563 z m 13 161 l 490 161 l 490 363 l 13 363 z "},"≥":{"ha":503,"x_min":0,"x_max":0,"o":"m 13 381 l 492 563 l 492 747 l 13 933 l 13 722 l 222 657 l 13 590 z m 13 161 l 492 161 l 492 363 l 13 363 z "},"¬":{"ha":567,"x_min":0,"x_max":0,"o":"m 557 229 l 557 644 l 8 644 l 8 411 l 304 411 l 304 229 z "},"≡":{"ha":515,"x_min":0,"x_max":0,"o":"m 11 628 l 504 628 l 504 851 l 11 851 z m 11 378 l 504 378 l 504 604 l 11 604 z m 11 128 l 504 128 l 504 353 l 11 353 z "},"′":{"ha":297,"x_min":0,"x_max":0,"o":"m 188 668 l 303 1000 l 57 1000 l -1 668 z "},"″":{"ha":539,"x_min":0,"x_max":0,"o":"m 185 668 l 299 1000 l 54 1000 l -4 668 z m 429 668 l 546 1000 l 303 1000 l 239 668 z "},"℅":{"ha":853,"x_min":0,"x_max":0,"o":"m 0 0 l 265 0 l 865 1000 l 607 1000 z m 181 521 b 364 690 294 521 364 571 l 364 761 l 193 761 l 193 694 b 183 665 193 667 190 665 b 174 694 175 665 174 668 l 174 843 b 183 875 174 869 175 875 b 193 843 190 875 193 871 l 193 781 l 364 781 l 364 846 b 183 1015 364 960 290 1015 b 3 846 78 1015 3 961 l 3 690 b 181 521 3 572 65 521 z m 667 -39 b 850 131 781 -39 850 11 l 850 286 b 669 456 850 400 776 456 b 489 286 564 456 489 401 l 489 131 b 667 -39 489 13 551 -39 z m 669 106 b 660 135 661 106 660 108 l 660 283 b 669 315 660 310 661 315 b 679 283 676 315 679 311 l 679 135 b 669 106 679 107 676 106 z "},"‗":{"ha":614,"x_min":0,"x_max":0,"o":"m 10 0 l 604 0 l 604 221 l 10 221 z m 10 -237 l 604 -237 l 604 -18 l 10 -18 z "},"‼":{"ha":654,"x_min":0,"x_max":0,"o":"m 63 294 b 165 306 81 301 115 306 b 267 294 213 306 246 301 b 315 683 282 311 315 492 l 315 1000 l 11 1000 l 11 683 b 63 294 11 488 46 311 z m 164 -11 b 319 139 288 -11 319 14 b 164 286 319 263 288 286 b 7 139 35 286 7 263 b 164 -11 7 13 35 -11 z m 390 294 b 493 306 408 301 443 306 b 594 294 540 306 574 301 b 643 683 610 311 643 492 l 643 1000 l 339 1000 l 339 683 b 390 294 339 488 374 311 z m 492 -11 b 647 139 615 -11 647 14 b 492 286 647 263 615 286 b 335 139 363 286 335 263 b 492 -11 335 13 363 -11 z "},"∞":{"ha":893,"x_min":0,"x_max":0,"o":"m 247 476 b 218 504 229 476 218 489 b 247 532 218 519 229 532 b 293 504 264 532 275 521 b 247 476 275 488 264 476 z m 647 476 b 601 504 631 476 619 488 b 647 532 619 521 631 532 b 676 504 665 532 676 519 b 647 476 676 489 665 476 z m 229 268 b 443 365 326 268 372 296 b 667 269 515 296 568 269 b 893 503 818 269 893 360 b 661 735 893 631 794 735 b 447 640 564 735 519 710 b 233 735 375 710 328 735 b 0 504 89 735 0 633 b 229 268 0 365 60 268 z "},"∂":{"ha":576,"x_min":0,"x_max":0,"o":"m 279 -17 b 567 275 457 -17 567 72 l 567 558 b 317 1068 567 788 468 968 l -21 1068 b 339 681 201 919 303 806 b 190 781 317 743 279 781 b 11 528 61 781 11 706 l 11 243 b 279 -17 11 64 93 -17 z m 289 217 b 274 256 278 217 274 219 l 274 518 b 289 558 274 556 278 558 b 304 518 300 558 304 556 l 304 256 b 289 217 304 219 300 217 z "},"π":{"ha":744,"x_min":0,"x_max":0,"o":"m 383 213 b 600 0 383 40 429 0 l 733 0 l 733 249 l 672 249 b 643 281 649 249 643 256 l 643 739 l 733 739 l 733 1000 l 8 1000 l 8 739 l 94 739 l 94 0 l 354 0 l 354 739 l 383 739 z "},"μ":{"ha":599,"x_min":0,"x_max":0,"o":"m 325 -12 b 357 88 347 -12 356 -3 l 375 0 l 585 0 l 585 814 l 313 814 l 313 267 b 299 231 313 243 311 231 b 285 271 283 231 285 243 l 285 814 l 15 814 l 15 -246 l 286 -246 l 286 75 b 325 -12 290 3 301 -12 z "},"∫":{"ha":319,"x_min":0,"x_max":0,"o":"m -35 -278 l 26 -278 b 275 -51 197 -278 275 -215 l 274 753 b 306 776 274 769 285 776 l 313 776 l 313 1004 l 261 1004 b 14 781 82 1004 14 944 l 14 -24 b -19 -57 14 -47 3 -57 l -35 -57 z "},"√":{"ha":797,"x_min":0,"x_max":0,"o":"m 485 0 l 818 1000 l 535 1000 l 363 481 l 354 246 l 343 481 l 286 685 l 6 685 l 6 419 l 93 419 l 214 0 z "},"∆":{"ha":764,"x_min":0,"x_max":0,"o":"m -21 0 l 783 0 l 382 1022 z m 436 221 l 331 221 l 383 369 z "},"Ω":{"ha":792,"x_min":0,"x_max":0,"o":"m 386 257 b 294 578 306 400 294 488 b 394 767 294 743 344 767 b 496 576 446 767 496 740 b 399 257 494 486 481 400 l 500 0 l 782 0 l 782 256 l 682 256 b 785 588 742 347 783 446 b 394 1015 785 899 636 1015 b 7 589 156 1015 7 886 b 99 256 7 449 43 347 l 10 256 l 10 0 l 294 0 z "},"∏":{"ha":744,"x_min":0,"x_max":0,"o":"m 386 0 l 646 0 l 646 739 l 733 739 l 733 1000 l 8 1000 l 8 739 l 97 739 l 97 0 l 357 0 l 357 739 l 386 739 z "},"∑":{"ha":508,"x_min":0,"x_max":0,"o":"m 497 250 l 311 250 l 507 521 l 326 761 l 497 761 l 497 1000 l 11 1000 l 11 768 l 215 517 l 11 240 l 11 0 l 497 0 z "},"◊":{"ha":710,"x_min":0,"x_max":0,"o":"m 356 140 l 718 500 l 354 863 l -8 501 z m 356 457 l 313 500 l 356 543 l 400 500 z "},"°":{"ha":396,"x_min":0,"x_max":0,"o":"m 197 640 b 394 814 317 640 394 693 l 394 822 b 199 1010 394 951 314 1010 b 1 822 82 1010 1 950 l 1 814 b 197 640 1 694 68 640 z m 199 804 b 178 824 185 804 178 808 b 199 846 178 842 185 846 b 219 824 213 846 219 842 b 199 804 219 810 213 804 z "}}}
